STARTFONT 2.1
COMMENT
COMMENT Converted from OpenType font "MultiTypeGamerChess-Regular.otf" by "otf2bdf 3.0".
COMMENT
FONT -FreeType-MultiType Gamer Chess-Medium-R-Normal--25-180-100-100-P-152-ISO10646-1
SIZE 18 100 100
FONTBOUNDINGBOX 65 44 -22 -8
STARTPROPERTIES 19
FOUNDRY "FreeType"
FAMILY_NAME "MultiType Gamer Chess"
WEIGHT_NAME "Medium"
SLANT "R"
SETWIDTH_NAME "Normal"
ADD_STYLE_NAME ""
PIXEL_SIZE 25
POINT_SIZE 180
RESOLUTION_X 100
RESOLUTION_Y 100
SPACING "P"
AVERAGE_WIDTH 152
CHARSET_REGISTRY "ISO10646"
CHARSET_ENCODING "1"
FONT_ASCENT 27
FONT_DESCENT 2
COPYRIGHT "-FreeType-MultiType Gamer Chess-Medium-R-Normal--25-180-100-100-P-152-ISO10646-1"
_OTF_FONTFILE "MultiTypeGamerChess-Regular.otf"
_OTF_PSNAME "MultiTypeGamer-Chess"
ENDPROPERTIES
CHARS 758
STARTCHAR 0020
ENCODING 32
SWIDTH 280 0
DWIDTH 7 0
BBX 0 0 0 0
BITMAP
ENDCHAR
STARTCHAR 0021
ENCODING 33
SWIDTH 280 0
DWIDTH 7 0
BBX 4 19 2 0
BITMAP
B0
F0
40
B0
40
B0
F0
40
B0
40
B0
F0
40
00
00
B0
F0
40
B0
ENDCHAR
STARTCHAR 0022
ENCODING 34
SWIDTH 440 0
DWIDTH 11 0
BBX 10 6 1 15
BITMAP
A2C0
4100
A2C0
E3C0
4100
A2C0
ENDCHAR
STARTCHAR 0023
ENCODING 35
SWIDTH 880 0
DWIDTH 22 0
BBX 19 24 2 -3
BITMAP
0A1200
040C00
0A1200
0E1E00
040C00
0A1200
B5AD60
4A5280
FFFFE0
B5AD60
0A1200
040C00
0A1200
BFBF60
B5AD60
4A5280
B5AD60
0A1200
0E1E00
040C00
0A1200
040C00
0A1200
0A1200
ENDCHAR
STARTCHAR 0024
ENCODING 36
SWIDTH 680 0
DWIDTH 17 0
BBX 14 24 2 -3
BITMAP
0580
0200
35AC
7FFC
4A50
B5AC
4000
B000
F000
4000
B5A0
4A50
35AC
35BC
0010
002C
0010
B5AC
FFFC
4A50
B5A0
0200
0580
0580
ENDCHAR
STARTCHAR 0025
ENCODING 37
SWIDTH 1280 0
DWIDTH 32 0
BBX 29 19 2 0
BITMAP
35816000
7FC1E000
4A408000
B5A16000
40428000
B1A10000
F1E38000
40428000
B5AD0B40
4A4214A0
358D6B58
359F7B78
00121020
000C6858
00121020
002C6B58
003C7FF8
001014A0
002C0B40
ENDCHAR
STARTCHAR 0026
ENCODING 38
SWIDTH 800 0
DWIDTH 20 0
BBX 16 19 2 0
BITMAP
35A0
7FE0
4A40
B5A0
4000
B02C
F83C
4810
35AD
0A52
35AD
7DBD
4810
B02C
4010
B5AD
FFFF
4A52
35AD
ENDCHAR
STARTCHAR 0027
ENCODING 39
SWIDTH 200 0
DWIDTH 5 0
BBX 3 6 1 15
BITMAP
A0
40
A0
E0
40
A0
ENDCHAR
STARTCHAR 0028
ENCODING 40
SWIDTH 280 0
DWIDTH 7 0
BBX 6 29 2 -5
BITMAP
34
7C
48
B0
40
B0
F0
40
B0
40
B0
F0
40
B0
40
B0
F0
40
B0
40
B0
F0
40
B0
40
B0
F8
48
34
ENDCHAR
STARTCHAR 0029
ENCODING 41
SWIDTH 280 0
DWIDTH 7 0
BBX 7 29 -1 -5
BITMAP
D0
F8
28
16
08
16
1E
08
16
08
16
1E
08
16
08
16
1E
08
16
08
16
1E
08
16
08
16
3E
28
D0
ENDCHAR
STARTCHAR 002A
ENCODING 42
SWIDTH 880 0
DWIDTH 22 0
BBX 19 16 2 5
BITMAP
B1A160
404080
B1A160
F9E3E0
484280
35AD00
0A5200
05AC00
0FFE00
0A5200
35AD00
484280
B1A160
F1E1E0
404080
B1A160
ENDCHAR
STARTCHAR 002B
ENCODING 43
SWIDTH 680 0
DWIDTH 17 0
BBX 14 14 2 2
BITMAP
0580
0200
0580
0780
0200
B5AC
4A50
B5AC
B7AC
0200
0580
0200
0580
0580
ENDCHAR
STARTCHAR 002C
ENCODING 44
SWIDTH 200 0
DWIDTH 5 0
BBX 3 7 1 -3
BITMAP
A0
E0
40
A0
40
80
80
ENDCHAR
STARTCHAR 002D
ENCODING 45
SWIDTH 480 0
DWIDTH 12 0
BBX 11 4 1 7
BITMAP
A520
5AC0
A520
A520
ENDCHAR
STARTCHAR 002E
ENCODING 46
SWIDTH 200 0
DWIDTH 5 0
BBX 3 4 1 0
BITMAP
A0
E0
40
A0
ENDCHAR
STARTCHAR 002F
ENCODING 47
SWIDTH 400 0
DWIDTH 10 0
BBX 8 19 1 0
BITMAP
05
07
02
05
1A
04
1E
1A
24
18
24
7C
58
20
58
A0
E0
40
A0
ENDCHAR
STARTCHAR 0030
ENCODING 48
SWIDTH 680 0
DWIDTH 17 0
BBX 14 19 2 0
BITMAP
0580
0FC0
0A40
35A0
4850
B02C
F03C
4010
B02C
4010
B02C
F03C
4010
B02C
4850
35A0
3FE0
0A40
0580
ENDCHAR
STARTCHAR 0031
ENCODING 49
SWIDTH 400 0
DWIDTH 10 0
BBX 6 19 2 0
BITMAP
B4
FC
48
B4
08
34
3C
08
34
08
34
3C
08
34
08
34
3C
08
34
ENDCHAR
STARTCHAR 0032
ENCODING 50
SWIDTH 680 0
DWIDTH 17 0
BBX 14 19 2 0
BITMAP
35A0
7FF0
4A50
B5AC
4010
B02C
B07C
0050
01A0
0240
0580
0F80
0A00
3400
4800
B5AC
FFFC
4A50
B5AC
ENDCHAR
STARTCHAR 0033
ENCODING 51
SWIDTH 680 0
DWIDTH 17 0
BBX 14 19 2 0
BITMAP
35A0
7FF0
4A50
B5AC
4010
B02C
B07C
0050
05A0
0250
05AC
05BC
0010
B02C
4010
B5AC
FFFC
4A50
35A0
ENDCHAR
STARTCHAR 0034
ENCODING 52
SWIDTH 680 0
DWIDTH 17 0
BBX 14 19 2 0
BITMAP
01A0
03E0
0240
05A0
0A40
35A0
7DE0
4840
B1A0
4040
B5AC
FFFC
4A50
B5AC
0040
01A0
01E0
0040
01A0
ENDCHAR
STARTCHAR 0035
ENCODING 53
SWIDTH 680 0
DWIDTH 17 0
BBX 14 19 2 0
BITMAP
B5AC
FFFC
4A50
B5AC
4000
B000
F000
4000
B5A0
4A50
B5AC
B5BC
0010
002C
0010
B5AC
FFFC
4A50
B5A0
ENDCHAR
STARTCHAR 0036
ENCODING 54
SWIDTH 680 0
DWIDTH 17 0
BBX 14 19 2 0
BITMAP
05AC
0FFC
0A50
35AC
4800
B000
F000
4000
B5A0
4A50
B5AC
F5BC
4010
B02C
4010
B5AC
FFFC
4A50
35A0
ENDCHAR
STARTCHAR 0037
ENCODING 55
SWIDTH 680 0
DWIDTH 17 0
BBX 14 19 2 0
BITMAP
B5AC
FFFC
4A50
B5AC
0010
002C
007C
0050
01A0
0240
0580
0F80
0A00
3400
0800
3400
3C00
0800
3400
ENDCHAR
STARTCHAR 0038
ENCODING 56
SWIDTH 680 0
DWIDTH 17 0
BBX 14 19 2 0
BITMAP
35A0
7FF0
4A50
B5AC
4010
B02C
F87C
4850
35A0
0A40
35A0
7DF0
4850
B02C
4010
B5AC
FFFC
4A50
35A0
ENDCHAR
STARTCHAR 0039
ENCODING 57
SWIDTH 680 0
DWIDTH 17 0
BBX 14 19 2 0
BITMAP
35A0
7FF0
4A50
B5AC
4010
B02C
F03C
4010
B5AC
4A50
35AC
35BC
0010
002C
0050
B5A0
FFE0
4A40
B580
ENDCHAR
STARTCHAR 003A
ENCODING 58
SWIDTH 200 0
DWIDTH 5 0
BBX 3 11 1 4
BITMAP
A0
40
E0
A0
00
00
00
A0
A0
40
A0
ENDCHAR
STARTCHAR 003B
ENCODING 59
SWIDTH 200 0
DWIDTH 5 0
BBX 3 14 1 -3
BITMAP
A0
40
A0
A0
00
00
00
A0
E0
40
A0
40
80
80
ENDCHAR
STARTCHAR 003C
ENCODING 60
SWIDTH 640 0
DWIDTH 16 0
BBX 12 19 1 0
BITMAP
00D0
01F0
0120
02C0
0500
1A00
3E00
2400
5800
A000
5800
7C00
2400
1A00
0500
02C0
03E0
0120
00D0
ENDCHAR
STARTCHAR 003D
ENCODING 61
SWIDTH 680 0
DWIDTH 17 0
BBX 14 12 2 2
BITMAP
B5AC
FFFC
4A50
B5AC
0000
0000
0000
0000
B5AC
4A50
B5AC
B5AC
ENDCHAR
STARTCHAR 003E
ENCODING 62
SWIDTH 640 0
DWIDTH 16 0
BBX 13 19 3 0
BITMAP
9000
F800
6800
1400
0B00
0480
07C0
0340
00A0
0058
00A0
03E0
0340
0480
0B00
1400
7C00
6800
9000
ENDCHAR
STARTCHAR 003F
ENCODING 63
SWIDTH 680 0
DWIDTH 17 0
BBX 14 19 2 0
BITMAP
35A0
7FF0
4A50
B5AC
4010
B02C
B03C
0010
01AC
0250
05A0
07A0
0200
0580
0000
0580
0780
0200
0580
ENDCHAR
STARTCHAR 0040
ENCODING 64
SWIDTH 1200 0
DWIDTH 30 0
BBX 26 27 2 -3
BITMAP
05AD6800
0FFFFC00
0A529400
35AD6B00
48000480
B0000340
F00003C0
40000080
B02D6340
40528080
B1AD6340
F1EDE3C0
40408080
B1A16340
40408080
B1AD6B40
F1FFFFC0
40529480
B02D6B00
40000000
B0000000
F8000000
48000000
35AD6B40
0A529480
05AD6B40
05AD6B40
ENDCHAR
STARTCHAR 0041
ENCODING 65
SWIDTH 680 0
DWIDTH 17 0
BBX 14 19 2 0
BITMAP
0580
0FC0
0A40
35A0
4850
B02C
F03C
4010
B02C
4010
B5AC
FFFC
4A50
B5AC
4010
B02C
F03C
4010
B02C
ENDCHAR
STARTCHAR 0042
ENCODING 66
SWIDTH 680 0
DWIDTH 17 0
BBX 14 19 2 0
BITMAP
B5A0
FFF0
4A50
B5AC
4010
B02C
F07C
4050
B5A0
4A50
B5AC
F5BC
4010
B02C
4010
B5AC
FFFC
4A50
B5A0
ENDCHAR
STARTCHAR 0043
ENCODING 67
SWIDTH 800 0
DWIDTH 20 0
BBX 16 19 2 0
BITMAP
05A0
0FF0
0A50
35AC
4812
B00D
F00F
4002
B00D
4000
B000
F000
4000
B00D
4812
35AC
3FFC
0A50
05A0
ENDCHAR
STARTCHAR 0044
ENCODING 68
SWIDTH 800 0
DWIDTH 20 0
BBX 16 19 2 0
BITMAP
B5A0
FFF0
4A50
B5AC
4012
B00D
F00F
4002
B00D
4002
B00D
F00F
4002
B00D
4012
B5AC
FFFC
4A50
B5A0
ENDCHAR
STARTCHAR 0045
ENCODING 69
SWIDTH 680 0
DWIDTH 17 0
BBX 14 19 2 0
BITMAP
05AC
0FFC
0A50
35AC
4800
B000
F000
4000
B5A0
4A40
B5A0
F5A0
4000
B000
4800
35AC
3FFC
0A50
05AC
ENDCHAR
STARTCHAR 0046
ENCODING 70
SWIDTH 680 0
DWIDTH 17 0
BBX 14 19 2 0
BITMAP
05AC
0FFC
0A50
35AC
4800
B000
F000
4000
B5A0
4A40
B5A0
F5A0
4000
B000
4000
B000
F000
4000
B000
ENDCHAR
STARTCHAR 0047
ENCODING 71
SWIDTH 800 0
DWIDTH 20 0
BBX 16 19 2 0
BITMAP
05AD
0FFF
0A52
35AD
4800
B000
F000
4000
B1AD
4052
B1AD
F1AF
4002
B00D
4802
35AD
3FFF
0A52
05AD
ENDCHAR
STARTCHAR 0048
ENCODING 72
SWIDTH 800 0
DWIDTH 20 0
BBX 16 19 2 0
BITMAP
B00D
F00F
4002
B00D
4002
B00D
F00F
4002
B5AD
4A52
B5AD
F5AF
4002
B00D
4002
B00D
F00F
4002
B00D
ENDCHAR
STARTCHAR 0049
ENCODING 73
SWIDTH 480 0
DWIDTH 12 0
BBX 9 19 2 0
BITMAP
B580
FF80
4A00
B580
0800
3400
3C00
0800
3400
0800
3400
3C00
0800
3400
0800
B580
FF80
4A00
B580
ENDCHAR
STARTCHAR 004A
ENCODING 74
SWIDTH 600 0
DWIDTH 15 0
BBX 11 19 2 0
BITMAP
B5A0
FFE0
4A40
B5A0
0040
01A0
01E0
0040
01A0
0040
01A0
01E0
0040
01A0
0240
B580
FF80
4A00
B400
ENDCHAR
STARTCHAR 004B
ENCODING 75
SWIDTH 680 0
DWIDTH 17 0
BBX 14 19 2 0
BITMAP
B02C
F03C
4010
B02C
4050
B1A0
F3E0
4240
B580
4A00
B580
F7C0
4240
B1A0
4050
B02C
F03C
4010
B02C
ENDCHAR
STARTCHAR 004C
ENCODING 76
SWIDTH 680 0
DWIDTH 17 0
BBX 14 19 2 0
BITMAP
B000
F000
4000
B000
4000
B000
F000
4000
B000
4000
B000
F000
4000
B000
4000
B5AC
FFFC
4A50
35AC
ENDCHAR
STARTCHAR 004D
ENCODING 77
SWIDTH 1000 0
DWIDTH 25 0
BBX 21 19 2 0
BITMAP
B00068
F800F8
480090
B40168
4A0290
B58D68
F7DF78
425210
B1AC68
405010
B02068
F02078
400010
B00068
400010
B00068
F00078
400010
B00068
ENDCHAR
STARTCHAR 004E
ENCODING 78
SWIDTH 800 0
DWIDTH 20 0
BBX 16 19 2 0
BITMAP
B00D
F80F
4802
B40D
4A02
B58D
F7CF
4242
B1AD
4052
B02D
F03F
4012
B00D
4002
B00D
F00F
4002
B00D
ENDCHAR
STARTCHAR 004F
ENCODING 79
SWIDTH 800 0
DWIDTH 20 0
BBX 16 19 2 0
BITMAP
05A0
0FF0
0A50
35AC
4812
B00D
F00F
4002
B00D
4002
B00D
F00F
4002
B00D
4812
35AC
3FFC
0A50
05A0
ENDCHAR
STARTCHAR 0050
ENCODING 80
SWIDTH 680 0
DWIDTH 17 0
BBX 14 19 2 0
BITMAP
B580
FFC0
4A40
B5A0
4050
B02C
F03C
4010
B02C
4010
B02C
F07C
4050
B5A0
4A40
B580
F580
4000
B000
ENDCHAR
STARTCHAR 0051
ENCODING 81
SWIDTH 800 0
DWIDTH 20 0
BBX 16 22 2 -3
BITMAP
05A0
0FF0
0A50
35AC
4812
B00D
F00F
4002
B00D
4002
B00D
F00F
4002
B00D
4812
35AC
3FFC
0A50
05A0
0050
002C
002C
ENDCHAR
STARTCHAR 0052
ENCODING 82
SWIDTH 680 0
DWIDTH 17 0
BBX 14 19 2 0
BITMAP
B580
FFC0
4A40
B5A0
4050
B02C
F03C
4010
B02C
4010
B02C
F07C
4050
B5A0
4A40
B5A0
F5F0
4050
B02C
ENDCHAR
STARTCHAR 0053
ENCODING 83
SWIDTH 680 0
DWIDTH 17 0
BBX 14 19 2 0
BITMAP
35A0
7FF0
4A50
B5AC
4010
B02C
F02C
4000
B5A0
4A50
35AC
35BC
0010
B02C
4010
B5AC
FFFC
4A50
35A0
ENDCHAR
STARTCHAR 0054
ENCODING 84
SWIDTH 680 0
DWIDTH 17 0
BBX 14 19 2 0
BITMAP
B5AC
FFFC
4A50
B5AC
0200
0580
0780
0200
0580
0200
0580
0780
0200
0580
0200
0580
0780
0200
0580
ENDCHAR
STARTCHAR 0055
ENCODING 85
SWIDTH 800 0
DWIDTH 20 0
BBX 16 19 2 0
BITMAP
B00D
F00F
4002
B00D
4002
B00D
F00F
4002
B00D
4002
B00D
F00F
4002
B00D
4812
35AC
3FFC
0A50
05A0
ENDCHAR
STARTCHAR 0056
ENCODING 86
SWIDTH 680 0
DWIDTH 17 0
BBX 14 19 2 0
BITMAP
B02C
F03C
4010
B02C
4010
B02C
F03C
4010
B02C
4010
B02C
F03C
4010
B02C
4850
35A0
3FE0
0A40
0580
ENDCHAR
STARTCHAR 0057
ENCODING 87
SWIDTH 1080 0
DWIDTH 27 0
BBX 24 19 2 0
BITMAP
B02C0B
F03C0F
401004
B02C0B
401004
B02C0B
F03C0F
401004
B02C0B
401004
B02C0B
F03C0F
401004
B02C0B
485214
35AD68
3FEFF8
0A4290
058160
ENDCHAR
STARTCHAR 0058
ENCODING 88
SWIDTH 800 0
DWIDTH 20 0
BBX 16 19 2 0
BITMAP
B00D
F00F
4002
B00D
4002
B00D
F81F
4812
35AC
0A50
35AC
7DBE
4812
B00D
4002
B00D
F00F
4002
B00D
ENDCHAR
STARTCHAR 0059
ENCODING 89
SWIDTH 680 0
DWIDTH 17 0
BBX 14 19 2 0
BITMAP
B02C
F03C
4010
B02C
4010
B02C
F03C
4010
B02C
4850
35A0
3FE0
0A40
0580
0200
0580
0780
0200
0580
ENDCHAR
STARTCHAR 005A
ENCODING 90
SWIDTH 680 0
DWIDTH 17 0
BBX 14 19 2 0
BITMAP
B5AC
FFFC
4A50
B5AC
0050
01A0
03E0
0240
0580
0A00
3400
7C00
4800
B000
4000
B5AC
FFFC
4A50
B5AC
ENDCHAR
STARTCHAR 005B
ENCODING 91
SWIDTH 320 0
DWIDTH 8 0
BBX 6 29 2 -5
BITMAP
B4
FC
48
B4
40
B0
F0
40
B0
40
B0
F0
40
B0
40
B0
F0
40
B0
40
B0
F0
40
B0
40
B4
FC
48
B4
ENDCHAR
STARTCHAR 005C
ENCODING 92
SWIDTH 400 0
DWIDTH 10 0
BBX 8 19 1 0
BITMAP
A0
E0
40
A0
58
20
78
58
24
18
24
3E
1A
04
1A
05
07
02
05
ENDCHAR
STARTCHAR 005D
ENCODING 93
SWIDTH 320 0
DWIDTH 8 0
BBX 6 29 1 -5
BITMAP
A4
FC
58
A4
18
24
3C
18
24
18
24
3C
18
24
18
24
3C
18
24
18
24
3C
18
24
18
A4
FC
58
A4
ENDCHAR
STARTCHAR 005F
ENCODING 95
SWIDTH 800 0
DWIDTH 20 0
BBX 18 4 1 -3
BITMAP
A52940
5AD680
A52940
A52940
ENDCHAR
STARTCHAR 0060
ENCODING 96
SWIDTH 320 0
DWIDTH 8 0
BBX 9 6 -2 20
BITMAP
9000
6800
1400
1F00
0B00
0480
ENDCHAR
STARTCHAR 0061
ENCODING 97
SWIDTH 680 0
DWIDTH 17 0
BBX 14 19 2 0
BITMAP
35A0
7FF0
4A50
B5AC
4010
B02C
F03C
4010
B02C
4010
B5AC
FFFC
4A50
B5AC
4010
B02C
F03C
4010
B02C
ENDCHAR
STARTCHAR 0062
ENCODING 98
SWIDTH 680 0
DWIDTH 17 0
BBX 14 19 2 0
BITMAP
B5A0
FFF0
4A50
B5AC
4010
B02C
F07C
4050
B5A0
4A40
B5A0
F5F0
4050
B02C
4010
B5AC
FFFC
4A50
B5A0
ENDCHAR
STARTCHAR 0063
ENCODING 99
SWIDTH 680 0
DWIDTH 17 0
BBX 14 19 2 0
BITMAP
35A0
7FF0
4A50
B5AC
4010
B02C
F03C
4010
B02C
4000
B000
F000
4000
B02C
4010
B5AC
FFFC
4A50
35A0
ENDCHAR
STARTCHAR 0064
ENCODING 100
SWIDTH 680 0
DWIDTH 17 0
BBX 14 19 2 0
BITMAP
B5A0
FFF0
4A50
B5AC
4010
B02C
F03C
4010
B02C
4010
B02C
F03C
4010
B02C
4010
B5AC
FFFC
4A50
B5A0
ENDCHAR
STARTCHAR 0065
ENCODING 101
SWIDTH 680 0
DWIDTH 17 0
BBX 14 19 2 0
BITMAP
35AC
7FFC
4A50
B5AC
4000
B000
F000
4000
B5A0
4A40
B5A0
F5A0
4000
B000
4000
B5AC
FFFC
4A50
35AC
ENDCHAR
STARTCHAR 0066
ENCODING 102
SWIDTH 680 0
DWIDTH 17 0
BBX 14 19 2 0
BITMAP
35AC
7FFC
4A50
B5AC
4000
B000
F000
4000
B5A0
4A40
B5A0
F5A0
4000
B000
4000
B000
F000
4000
B000
ENDCHAR
STARTCHAR 0067
ENCODING 103
SWIDTH 680 0
DWIDTH 17 0
BBX 14 19 2 0
BITMAP
35AC
7FFC
4A50
B5AC
4000
B000
F000
4000
B1AC
4050
B1AC
F1BC
4010
B02C
4010
B5AC
FFFC
4A50
35A0
ENDCHAR
STARTCHAR 0068
ENCODING 104
SWIDTH 680 0
DWIDTH 17 0
BBX 14 19 2 0
BITMAP
B02C
F03C
4010
B02C
4010
B02C
F03C
4010
B5AC
4A50
B5AC
F5BC
4010
B02C
4010
B02C
F03C
4010
B02C
ENDCHAR
STARTCHAR 0069
ENCODING 105
SWIDTH 280 0
DWIDTH 7 0
BBX 4 19 2 0
BITMAP
B0
F0
40
B0
40
B0
F0
40
B0
40
B0
F0
40
B0
40
B0
F0
40
B0
ENDCHAR
STARTCHAR 006A
ENCODING 106
SWIDTH 480 0
DWIDTH 12 0
BBX 9 19 2 0
BITMAP
0580
0780
0200
0580
0200
0580
0780
0200
0580
0200
0580
0780
0200
0580
0200
B580
FF80
4A00
B400
ENDCHAR
STARTCHAR 006B
ENCODING 107
SWIDTH 680 0
DWIDTH 17 0
BBX 14 19 2 0
BITMAP
B02C
F03C
4010
B02C
4010
B02C
F07C
4050
B5A0
4A40
B5A0
F5F0
4050
B02C
4010
B02C
F03C
4010
B02C
ENDCHAR
STARTCHAR 006C
ENCODING 108
SWIDTH 600 0
DWIDTH 15 0
BBX 11 19 2 0
BITMAP
B000
F000
4000
B000
4000
B000
F000
4000
B000
4000
B000
F000
4000
B000
4000
B5A0
FFE0
4A40
35A0
ENDCHAR
STARTCHAR 006D
ENCODING 109
SWIDTH 880 0
DWIDTH 22 0
BBX 19 19 2 0
BITMAP
B00160
F803E0
480280
B40D60
4A1280
B5AD60
F7FDE0
425080
B1A160
404080
B00160
F001E0
400080
B00160
400080
B00160
F001E0
400080
B00160
ENDCHAR
STARTCHAR 006E
ENCODING 110
SWIDTH 680 0
DWIDTH 17 0
BBX 14 19 2 0
BITMAP
B02C
F83C
4810
B42C
4A10
B5AC
F7FC
4250
B1AC
4050
B02C
F03C
4010
B02C
4010
B02C
F03C
4010
B02C
ENDCHAR
STARTCHAR 006F
ENCODING 111
SWIDTH 680 0
DWIDTH 17 0
BBX 14 19 2 0
BITMAP
35A0
7FF0
4A50
B5AC
4010
B02C
F03C
4010
B02C
4010
B02C
F03C
4010
B02C
4010
B5AC
FFFC
4A50
35A0
ENDCHAR
STARTCHAR 0070
ENCODING 112
SWIDTH 680 0
DWIDTH 17 0
BBX 14 19 2 0
BITMAP
B5A0
FFF0
4A50
B5AC
4010
B02C
F03C
4010
B02C
4010
B5AC
FFFC
4A50
B5A0
4000
B000
F000
4000
B000
ENDCHAR
STARTCHAR 0071
ENCODING 113
SWIDTH 680 0
DWIDTH 17 0
BBX 14 22 2 -3
BITMAP
35A0
7FF0
4A50
B5AC
4010
B02C
F03C
4010
B02C
4010
B02C
F03C
4010
B02C
4010
B5AC
FFFC
4A50
35A0
0050
002C
002C
ENDCHAR
STARTCHAR 0072
ENCODING 114
SWIDTH 680 0
DWIDTH 17 0
BBX 14 19 2 0
BITMAP
B5A0
FFF0
4A50
B5AC
4010
B02C
F03C
4010
B02C
4010
B5AC
FFFC
4A50
B5A0
4050
B02C
F03C
4010
B02C
ENDCHAR
STARTCHAR 0073
ENCODING 115
SWIDTH 680 0
DWIDTH 17 0
BBX 14 19 2 0
BITMAP
35A0
7FF0
4A50
B5AC
4010
B02C
F02C
4000
B5A0
4A50
35AC
35BC
0010
B02C
4010
B5AC
FFFC
4A50
35A0
ENDCHAR
STARTCHAR 0074
ENCODING 116
SWIDTH 680 0
DWIDTH 17 0
BBX 14 19 2 0
BITMAP
B5AC
FFFC
4A50
B5AC
0200
0580
0780
0200
0580
0200
0580
0780
0200
0580
0200
0580
0780
0200
0580
ENDCHAR
STARTCHAR 0075
ENCODING 117
SWIDTH 680 0
DWIDTH 17 0
BBX 14 19 2 0
BITMAP
B02C
F03C
4010
B02C
4010
B02C
F03C
4010
B02C
4010
B02C
F03C
4010
B02C
4010
B5AC
FFFC
4A50
35A0
ENDCHAR
STARTCHAR 0076
ENCODING 118
SWIDTH 680 0
DWIDTH 17 0
BBX 14 19 2 0
BITMAP
B02C
F03C
4010
B02C
4010
B02C
F03C
4010
B02C
4010
B02C
F03C
4010
B02C
4850
35A0
3FE0
0A40
0580
ENDCHAR
STARTCHAR 0077
ENCODING 119
SWIDTH 1080 0
DWIDTH 27 0
BBX 24 19 2 0
BITMAP
B02C0B
F03C0F
401004
B02C0B
401004
B02C0B
F03C0F
401004
B02C0B
401004
B02C0B
F03C0F
401004
B02C0B
405204
B5AD6B
FFEFFF
4A4294
358168
ENDCHAR
STARTCHAR 0078
ENCODING 120
SWIDTH 680 0
DWIDTH 17 0
BBX 14 19 2 0
BITMAP
B02C
F03C
4010
B02C
4010
B02C
F87C
4850
35A0
0A40
35A0
7DF0
4850
B02C
4010
B02C
F03C
4010
B02C
ENDCHAR
STARTCHAR 0079
ENCODING 121
SWIDTH 680 0
DWIDTH 17 0
BBX 14 19 2 0
BITMAP
B02C
F03C
4010
B02C
4010
B02C
F03C
4010
B02C
4010
B5AC
FFFC
4A50
35A0
0200
0580
0780
0200
0580
ENDCHAR
STARTCHAR 007A
ENCODING 122
SWIDTH 680 0
DWIDTH 17 0
BBX 14 19 2 0
BITMAP
B5AC
FFFC
4A50
B5AC
0010
002C
003C
0010
35AC
4A50
B5A0
F5A0
4000
B000
4000
B5AC
FFFC
4A50
B5AC
ENDCHAR
STARTCHAR 007B
ENCODING 123
SWIDTH 400 0
DWIDTH 10 0
BBX 10 29 1 -5
BITMAP
02C0
07C0
0500
1A00
0400
1A00
1E00
0400
1A00
0400
1A00
3E00
2400
5800
A000
5800
7C00
2400
1A00
0400
1A00
1E00
0400
1A00
0400
1A00
1F00
0500
02C0
ENDCHAR
STARTCHAR 007C
ENCODING 124
SWIDTH 280 0
DWIDTH 7 0
BBX 4 24 2 -3
BITMAP
B0
40
B0
F0
40
B0
40
B0
F0
40
B0
40
B0
F0
40
B0
40
B0
F0
40
B0
40
B0
B0
ENDCHAR
STARTCHAR 007D
ENCODING 125
SWIDTH 400 0
DWIDTH 10 0
BBX 10 29 -1 -5
BITMAP
D000
F800
2800
1600
0800
1600
1E00
0800
1600
0800
1600
1F00
0900
0680
0140
0680
0F80
0900
1600
0800
1600
1E00
0800
1600
0800
1600
3E00
2800
D000
ENDCHAR
STARTCHAR 00A1
ENCODING 161
SWIDTH 280 0
DWIDTH 7 0
BBX 4 19 2 0
BITMAP
B0
F0
40
B0
00
00
40
40
B0
40
B0
F0
40
B0
40
B0
F0
40
B0
ENDCHAR
STARTCHAR 00A2
ENCODING 162
SWIDTH 680 0
DWIDTH 17 0
BBX 14 24 2 -3
BITMAP
0580
0200
35A0
7FF0
4A50
B5AC
4010
B02C
F03C
4010
B02C
4000
B000
F000
4000
B02C
4010
B5AC
FFFC
4A50
35A0
0200
0580
0580
ENDCHAR
STARTCHAR 00A3
ENCODING 163
SWIDTH 680 0
DWIDTH 17 0
BBX 14 21 2 0
BITMAP
05A0
0A50
35AC
3DBC
0810
342C
0800
3400
3C00
0800
B5A0
4A40
B5A0
BDA0
0800
3400
0800
B5AC
FFFC
4A50
B5AC
ENDCHAR
STARTCHAR 00A4
ENCODING 164
SWIDTH 800 0
DWIDTH 20 0
BBX 16 16 2 5
BITMAP
3400
0800
35AD
3FFF
0A52
35AD
0810
342C
3C3C
0810
B5AC
4A50
B5AC
B5BC
0010
002C
ENDCHAR
STARTCHAR 00A5
ENCODING 165
SWIDTH 680 0
DWIDTH 17 0
BBX 14 27 2 -3
BITMAP
B02C
F03C
4010
B02C
4010
B02C
F87C
4850
35A0
0A40
0580
0780
0200
B5AC
4A50
B5AC
B7AC
0200
0580
0200
B5AC
FFFC
4A50
B5AC
0200
0580
0580
ENDCHAR
STARTCHAR 00A6
ENCODING 166
SWIDTH 280 0
DWIDTH 7 0
BBX 4 24 2 -3
BITMAP
B0
40
B0
F0
40
B0
40
B0
B0
00
00
00
00
00
00
B0
40
B0
F0
40
B0
40
B0
B0
ENDCHAR
STARTCHAR 00A7
ENCODING 167
SWIDTH 680 0
DWIDTH 17 0
BBX 14 29 2 -5
BITMAP
05AC
0FFC
0A50
35AC
4800
B000
F000
4000
B580
4A40
B5A0
F5F0
4050
B02C
4010
B02C
F83C
4810
35AC
0A50
05AC
05BC
0010
002C
0050
B5A0
FFE0
4A40
B580
ENDCHAR
STARTCHAR 00A8
ENCODING 168
SWIDTH 400 0
DWIDTH 10 0
BBX 8 4 1 20
BITMAP
A5
E7
42
A5
ENDCHAR
STARTCHAR 00AB
ENCODING 171
SWIDTH 840 0
DWIDTH 21 0
BBX 17 14 1 2
BITMAP
02C680
050900
1A1600
3E3E00
242800
58D000
A12000
58D000
7CF800
242800
1A1600
050900
02C680
02C680
ENDCHAR
STARTCHAR 00AD
ENCODING 173
SWIDTH 480 0
DWIDTH 12 0
BBX 11 4 1 7
BITMAP
A520
5AC0
A520
A520
ENDCHAR
STARTCHAR 00AF
ENCODING 175
SWIDTH 400 0
DWIDTH 10 0
BBX 8 4 1 20
BITMAP
A5
FF
5A
A5
ENDCHAR
STARTCHAR 00B0
ENCODING 176
SWIDTH 480 0
DWIDTH 12 0
BBX 11 11 1 10
BITMAP
2500
5AC0
A520
E5E0
40C0
A120
40C0
A520
FFE0
5AC0
2500
ENDCHAR
STARTCHAR 00B4
ENCODING 180
SWIDTH 320 0
DWIDTH 8 0
BBX 8 6 1 20
BITMAP
05
1A
24
7C
58
A0
ENDCHAR
STARTCHAR 00B6
ENCODING 182
SWIDTH 680 0
DWIDTH 17 0
BBX 14 19 2 0
BITMAP
35AC
7FBC
4A10
B5AC
4A10
B5AC
FFBC
4A10
B5AC
4A10
35AC
37BC
0210
05AC
0210
05AC
07BC
0210
05AC
ENDCHAR
STARTCHAR 00B7
ENCODING 183
SWIDTH 200 0
DWIDTH 5 0
BBX 3 4 1 7
BITMAP
A0
40
A0
A0
ENDCHAR
STARTCHAR 00B8
ENCODING 184
SWIDTH 240 0
DWIDTH 6 0
BBX 7 5 -1 -5
BITMAP
08
D6
FE
28
D0
ENDCHAR
STARTCHAR 00BB
ENCODING 187
SWIDTH 840 0
DWIDTH 21 0
BBX 18 14 3 2
BITMAP
90A000
685800
142400
1F3E00
0B1A00
048500
0342C0
048500
0F9F00
0B1A00
142400
685800
90A000
90A000
ENDCHAR
STARTCHAR 00BF
ENCODING 191
SWIDTH 680 0
DWIDTH 17 0
BBX 14 19 2 0
BITMAP
0580
0780
0200
0580
0000
0580
0780
0200
3580
4A00
B400
F400
4000
B02C
4010
B5AC
FFFC
4A50
35A0
ENDCHAR
STARTCHAR 00C0
ENCODING 192
SWIDTH 680 0
DWIDTH 17 0
BBX 14 26 2 0
BITMAP
B000
4800
3400
3E00
0A00
0580
0000
0580
0FC0
0A40
35A0
4850
B02C
F03C
4010
B02C
4010
B5AC
FFFC
4A50
B5AC
4010
B02C
F03C
4010
B02C
ENDCHAR
STARTCHAR 00C1
ENCODING 193
SWIDTH 680 0
DWIDTH 17 0
BBX 14 26 2 0
BITMAP
0050
01A0
0240
07C0
0580
0A00
0000
0580
0FC0
0A40
35A0
4850
B02C
F03C
4010
B02C
4010
B5AC
FFFC
4A50
B5AC
4010
B02C
F03C
4010
B02C
ENDCHAR
STARTCHAR 00C2
ENCODING 194
SWIDTH 680 0
DWIDTH 17 0
BBX 14 26 2 0
BITMAP
0580
0A40
35A0
3DE0
0840
35A0
0000
0580
0FC0
0A40
35A0
4850
B02C
F03C
4010
B02C
4010
B5AC
FFFC
4A50
B5AC
4010
B02C
F03C
4010
B02C
ENDCHAR
STARTCHAR 00C3
ENCODING 195
SWIDTH 680 0
DWIDTH 17 0
BBX 14 26 2 0
BITMAP
342C
4A10
B5AC
F7FC
4250
B1A0
0000
0580
0FC0
0A40
35A0
4850
B02C
F03C
4010
B02C
4010
B5AC
FFFC
4A50
B5AC
4010
B02C
F03C
4010
B02C
ENDCHAR
STARTCHAR 00C4
ENCODING 196
SWIDTH 680 0
DWIDTH 17 0
BBX 14 24 2 0
BITMAP
35A0
3DE0
0840
35A0
0000
0580
0FC0
0A40
35A0
4850
B02C
F03C
4010
B02C
4010
B5AC
FFFC
4A50
B5AC
4010
B02C
F03C
4010
B02C
ENDCHAR
STARTCHAR 00C5
ENCODING 197
SWIDTH 680 0
DWIDTH 17 0
BBX 14 31 2 0
BITMAP
0A40
35A0
4A50
7A70
3020
4850
3020
4A50
7FF0
35A0
0A40
0000
0580
0FC0
0A40
35A0
4850
B02C
F03C
4010
B02C
4010
B5AC
FFFC
4A50
B5AC
4010
B02C
F03C
4010
B02C
ENDCHAR
STARTCHAR 00C6
ENCODING 198
SWIDTH 1080 0
DWIDTH 27 0
BBX 24 19 2 0
BITMAP
05AD6B
0FFFFF
0A5294
35AD6B
481000
B02C00
F03C00
401000
B02D68
401290
B5AD68
FFFD68
4A5000
B5AC00
401000
B02D6B
F03FFF
401294
B00D6B
ENDCHAR
STARTCHAR 00C7
ENCODING 199
SWIDTH 800 0
DWIDTH 20 0
BBX 16 24 2 -5
BITMAP
05A0
0FF0
0A50
35AC
4812
B00D
F00F
4002
B00D
4000
B000
F000
4000
B00D
4812
35AC
3FFC
0A50
05A0
0040
05A0
07E0
0240
0580
ENDCHAR
STARTCHAR 00C8
ENCODING 200
SWIDTH 680 0
DWIDTH 17 0
BBX 14 26 2 0
BITMAP
B000
4800
3400
3E00
0A00
0580
0000
05AC
0FFC
0A50
35AC
4800
B000
F000
4000
B5A0
4A40
B5A0
F5A0
4000
B000
4800
35AC
3FFC
0A50
05AC
ENDCHAR
STARTCHAR 00C9
ENCODING 201
SWIDTH 680 0
DWIDTH 17 0
BBX 14 26 2 0
BITMAP
0050
01A0
0240
07C0
0580
0A00
0000
05AC
0FFC
0A50
35AC
4800
B000
F000
4000
B5A0
4A40
B5A0
F5A0
4000
B000
4800
35AC
3FFC
0A50
05AC
ENDCHAR
STARTCHAR 00CA
ENCODING 202
SWIDTH 680 0
DWIDTH 17 0
BBX 14 26 2 0
BITMAP
0580
0A40
35A0
3DE0
0840
35A0
0000
05AC
0FFC
0A50
35AC
4800
B000
F000
4000
B5A0
4A40
B5A0
F5A0
4000
B000
4800
35AC
3FFC
0A50
05AC
ENDCHAR
STARTCHAR 00CB
ENCODING 203
SWIDTH 680 0
DWIDTH 17 0
BBX 14 24 2 0
BITMAP
35A0
3DE0
0840
35A0
0000
05AC
0FFC
0A50
35AC
4800
B000
F000
4000
B5A0
4A40
B5A0
F5A0
4000
B000
4800
35AC
3FFC
0A50
05AC
ENDCHAR
STARTCHAR 00CC
ENCODING 204
SWIDTH 480 0
DWIDTH 12 0
BBX 12 26 -1 0
BITMAP
D000
2800
1600
1F00
0900
0680
0000
16B0
1FF0
0940
16B0
0100
0680
0780
0100
0680
0100
0680
0780
0100
0680
0100
16B0
1FF0
0940
16B0
ENDCHAR
STARTCHAR 00CD
ENCODING 205
SWIDTH 480 0
DWIDTH 12 0
BBX 10 26 2 0
BITMAP
0240
0580
0A00
3E00
3400
4800
0000
B580
FF80
4A00
B580
0800
3400
3C00
0800
3400
0800
3400
3C00
0800
3400
0800
B580
FF80
4A00
B580
ENDCHAR
STARTCHAR 00CE
ENCODING 206
SWIDTH 480 0
DWIDTH 12 0
BBX 9 26 2 0
BITMAP
3400
4A00
B580
F780
4200
B580
0000
B580
FF80
4A00
B580
0800
3400
3C00
0800
3400
0800
3400
3C00
0800
3400
0800
B580
FF80
4A00
B580
ENDCHAR
STARTCHAR 00CF
ENCODING 207
SWIDTH 480 0
DWIDTH 12 0
BBX 9 24 2 0
BITMAP
B580
F780
4200
B580
0000
B580
FF80
4A00
B580
0800
3400
3C00
0800
3400
0800
3400
3C00
0800
3400
0800
B580
FF80
4A00
B580
ENDCHAR
STARTCHAR 00D0
ENCODING 208
SWIDTH 840 0
DWIDTH 21 0
BBX 18 19 1 0
BITMAP
252800
3FFE00
1AD600
252900
180680
240140
3C01C0
180080
A50140
5A0080
A50140
BD01C0
180080
240140
180680
252900
3FFF00
1AD600
252800
ENDCHAR
STARTCHAR 00D1
ENCODING 209
SWIDTH 800 0
DWIDTH 20 0
BBX 16 26 2 0
BITMAP
0A12
358C
4A52
7BFE
31AC
4850
0000
B00D
F80F
4802
B40D
4A02
B58D
F7CF
4242
B1AD
4052
B02D
F03F
4012
B00D
4002
B00D
F00F
4002
B00D
ENDCHAR
STARTCHAR 00D2
ENCODING 210
SWIDTH 800 0
DWIDTH 20 0
BBX 16 26 2 0
BITMAP
4800
3400
0A00
0F80
0580
0240
0000
05A0
0FF0
0A50
35AC
4812
B00D
F00F
4002
B00D
4002
B00D
F00F
4002
B00D
4812
35AC
3FFC
0A50
05A0
ENDCHAR
STARTCHAR 00D3
ENCODING 211
SWIDTH 800 0
DWIDTH 20 0
BBX 16 26 2 0
BITMAP
002C
0050
01A0
03E0
0240
0580
0000
05A0
0FF0
0A50
35AC
4812
B00D
F00F
4002
B00D
4002
B00D
F00F
4002
B00D
4812
35AC
3FFC
0A50
05A0
ENDCHAR
STARTCHAR 00D4
ENCODING 212
SWIDTH 800 0
DWIDTH 20 0
BBX 16 26 2 0
BITMAP
0240
05A0
0A50
0E70
0420
0A50
0000
05A0
0FF0
0A50
35AC
4812
B00D
F00F
4002
B00D
4002
B00D
F00F
4002
B00D
4812
35AC
3FFC
0A50
05A0
ENDCHAR
STARTCHAR 00D5
ENCODING 213
SWIDTH 800 0
DWIDTH 20 0
BBX 16 26 2 0
BITMAP
0A12
358C
4A52
7BFE
31AC
4850
0000
05A0
0FF0
0A50
35AC
4812
B00D
F00F
4002
B00D
4002
B00D
F00F
4002
B00D
4812
35AC
3FFC
0A50
05A0
ENDCHAR
STARTCHAR 00D6
ENCODING 214
SWIDTH 800 0
DWIDTH 20 0
BBX 16 24 2 0
BITMAP
0A50
0E70
0420
0A50
0000
05A0
0FF0
0A50
35AC
4812
B00D
F00F
4002
B00D
4002
B00D
F00F
4002
B00D
4812
35AC
3FFC
0A50
05A0
ENDCHAR
STARTCHAR 00D7
ENCODING 215
SWIDTH 680 0
DWIDTH 17 0
BBX 14 16 2 2
BITMAP
4010
4010
B02C
4850
35A0
3FE0
0A40
0580
0A40
35A0
7DF0
4850
B02C
4010
B02C
B02C
ENDCHAR
STARTCHAR 00D8
ENCODING 216
SWIDTH 880 0
DWIDTH 22 0
BBX 21 19 1 0
BITMAP
012800
03FE00
02D600
052900
1A0680
240140
3C01C0
180080
A52948
5AD6B0
A52948
BD29C8
180080
240140
1A0680
052900
07FF00
02D600
012800
ENDCHAR
STARTCHAR 00D9
ENCODING 217
SWIDTH 800 0
DWIDTH 20 0
BBX 16 26 2 0
BITMAP
4800
3400
0A00
0F80
0580
0240
0000
B00D
F00F
4002
B00D
4002
B00D
F00F
4002
B00D
4002
B00D
F00F
4002
B00D
4812
35AC
3FFC
0A50
05A0
ENDCHAR
STARTCHAR 00DA
ENCODING 218
SWIDTH 800 0
DWIDTH 20 0
BBX 16 26 2 0
BITMAP
002C
0050
01A0
03E0
0240
0580
0000
B00D
F00F
4002
B00D
4002
B00D
F00F
4002
B00D
4002
B00D
F00F
4002
B00D
4812
35AC
3FFC
0A50
05A0
ENDCHAR
STARTCHAR 00DB
ENCODING 219
SWIDTH 800 0
DWIDTH 20 0
BBX 16 26 2 0
BITMAP
0240
05A0
0A50
0E70
0420
0A50
0000
B00D
F00F
4002
B00D
4002
B00D
F00F
4002
B00D
4002
B00D
F00F
4002
B00D
4812
35AC
3FFC
0A50
05A0
ENDCHAR
STARTCHAR 00DC
ENCODING 220
SWIDTH 800 0
DWIDTH 20 0
BBX 16 24 2 0
BITMAP
0A50
0E70
0420
0A50
0000
B00D
F00F
4002
B00D
4002
B00D
F00F
4002
B00D
4002
B00D
F00F
4002
B00D
4812
35AC
3FFC
0A50
05A0
ENDCHAR
STARTCHAR 00DD
ENCODING 221
SWIDTH 680 0
DWIDTH 17 0
BBX 14 26 2 0
BITMAP
0050
01A0
0240
07C0
0580
0A00
0000
B02C
F03C
4010
B02C
4010
B02C
F03C
4010
B02C
4850
35A0
3FE0
0A40
0580
0200
0580
0780
0200
0580
ENDCHAR
STARTCHAR 00DE
ENCODING 222
SWIDTH 680 0
DWIDTH 17 0
BBX 14 19 2 0
BITMAP
B000
F000
4000
B5A0
4A50
B5AC
F5BC
4010
B02C
4010
B02C
F03C
4010
B5AC
4A50
B5A0
F5A0
4000
B000
ENDCHAR
STARTCHAR 00DF
ENCODING 223
SWIDTH 680 0
DWIDTH 17 0
BBX 14 19 2 0
BITMAP
35A0
7FF0
4A50
B5AC
4010
B02C
F07C
4050
B5A0
4250
B5AC
F5BC
4010
B02C
4010
B5AC
F7FC
4250
B5A0
ENDCHAR
STARTCHAR 00E0
ENCODING 224
SWIDTH 680 0
DWIDTH 17 0
BBX 14 26 2 0
BITMAP
B000
4800
3400
3E00
0A00
0580
0000
35A0
7FF0
4A50
B5AC
4010
B02C
F03C
4010
B02C
4010
B5AC
FFFC
4A50
B5AC
4010
B02C
F03C
4010
B02C
ENDCHAR
STARTCHAR 00E1
ENCODING 225
SWIDTH 680 0
DWIDTH 17 0
BBX 14 26 2 0
BITMAP
0050
01A0
0240
07C0
0580
0A00
0000
35A0
7FF0
4A50
B5AC
4010
B02C
F03C
4010
B02C
4010
B5AC
FFFC
4A50
B5AC
4010
B02C
F03C
4010
B02C
ENDCHAR
STARTCHAR 00E2
ENCODING 226
SWIDTH 680 0
DWIDTH 17 0
BBX 14 26 2 0
BITMAP
0580
0A40
35A0
3DE0
0840
35A0
0000
35A0
7FF0
4A50
B5AC
4010
B02C
F03C
4010
B02C
4010
B5AC
FFFC
4A50
B5AC
4010
B02C
F03C
4010
B02C
ENDCHAR
STARTCHAR 00E3
ENCODING 227
SWIDTH 680 0
DWIDTH 17 0
BBX 14 26 2 0
BITMAP
342C
4A10
B5AC
F7FC
4250
B1A0
0000
35A0
7FF0
4A50
B5AC
4010
B02C
F03C
4010
B02C
4010
B5AC
FFFC
4A50
B5AC
4010
B02C
F03C
4010
B02C
ENDCHAR
STARTCHAR 00E4
ENCODING 228
SWIDTH 680 0
DWIDTH 17 0
BBX 14 24 2 0
BITMAP
35A0
3DE0
0840
35A0
0000
35A0
7FF0
4A50
B5AC
4010
B02C
F03C
4010
B02C
4010
B5AC
FFFC
4A50
B5AC
4010
B02C
F03C
4010
B02C
ENDCHAR
STARTCHAR 00E5
ENCODING 229
SWIDTH 680 0
DWIDTH 17 0
BBX 14 31 2 0
BITMAP
0A40
35A0
4A50
7A70
3020
4850
3020
4A50
7FF0
35A0
0A40
0000
35A0
7FF0
4A50
B5AC
4010
B02C
F03C
4010
B02C
4010
B5AC
FFFC
4A50
B5AC
4010
B02C
F03C
4010
B02C
ENDCHAR
STARTCHAR 00E6
ENCODING 230
SWIDTH 1080 0
DWIDTH 27 0
BBX 24 19 2 0
BITMAP
35AD6B
7FFFFF
4A5294
B5AD6B
401000
B02C00
F03C00
401000
B02D68
401290
B5AD68
FFFD68
4A5000
B5AC00
401000
B02D6B
F03FFF
401294
B00D6B
ENDCHAR
STARTCHAR 00E7
ENCODING 231
SWIDTH 680 0
DWIDTH 17 0
BBX 14 24 2 -5
BITMAP
35A0
7FF0
4A50
B5AC
4010
B02C
F03C
4010
B02C
4000
B000
F000
4000
B02C
4010
B5AC
FFFC
4A50
35A0
0200
3580
3F80
0A00
3400
ENDCHAR
STARTCHAR 00E8
ENCODING 232
SWIDTH 680 0
DWIDTH 17 0
BBX 14 26 2 0
BITMAP
B000
4800
3400
3E00
0A00
0580
0000
35AC
7FFC
4A50
B5AC
4000
B000
F000
4000
B5A0
4A40
B5A0
F5A0
4000
B000
4000
B5AC
FFFC
4A50
35AC
ENDCHAR
STARTCHAR 00E9
ENCODING 233
SWIDTH 680 0
DWIDTH 17 0
BBX 14 26 2 0
BITMAP
0050
01A0
0240
07C0
0580
0A00
0000
35AC
7FFC
4A50
B5AC
4000
B000
F000
4000
B5A0
4A40
B5A0
F5A0
4000
B000
4000
B5AC
FFFC
4A50
35AC
ENDCHAR
STARTCHAR 00EA
ENCODING 234
SWIDTH 680 0
DWIDTH 17 0
BBX 14 26 2 0
BITMAP
0580
0A40
35A0
3DE0
0840
35A0
0000
35AC
7FFC
4A50
B5AC
4000
B000
F000
4000
B5A0
4A40
B5A0
F5A0
4000
B000
4000
B5AC
FFFC
4A50
35AC
ENDCHAR
STARTCHAR 00EB
ENCODING 235
SWIDTH 680 0
DWIDTH 17 0
BBX 14 24 2 0
BITMAP
35A0
3DE0
0840
35A0
0000
35AC
7FFC
4A50
B5AC
4000
B000
F000
4000
B5A0
4A40
B5A0
F5A0
4000
B000
4000
B5AC
FFFC
4A50
35AC
ENDCHAR
STARTCHAR 00EC
ENCODING 236
SWIDTH 280 0
DWIDTH 7 0
BBX 9 26 -3 0
BITMAP
B000
4800
3400
3E00
0A00
0580
0000
0580
0780
0200
0580
0200
0580
0780
0200
0580
0200
0580
0780
0200
0580
0200
0580
0780
0200
0580
ENDCHAR
STARTCHAR 00ED
ENCODING 237
SWIDTH 280 0
DWIDTH 7 0
BBX 8 26 1 0
BITMAP
05
1A
24
7C
58
A0
00
58
78
20
58
20
58
78
20
58
20
58
78
20
58
20
58
78
20
58
ENDCHAR
STARTCHAR 00EE
ENCODING 238
SWIDTH 280 0
DWIDTH 7 0
BBX 9 26 -1 0
BITMAP
1600
2900
D680
F780
2100
D680
0000
1600
1E00
0800
1600
0800
1600
1E00
0800
1600
0800
1600
1E00
0800
1600
0800
1600
1E00
0800
1600
ENDCHAR
STARTCHAR 00EF
ENCODING 239
SWIDTH 280 0
DWIDTH 7 0
BBX 9 24 -1 0
BITMAP
D680
F780
2100
D680
0000
1600
1E00
0800
1600
0800
1600
1E00
0800
1600
0800
1600
1E00
0800
1600
0800
1600
1E00
0800
1600
ENDCHAR
STARTCHAR 00F0
ENCODING 240
SWIDTH 720 0
DWIDTH 18 0
BBX 16 19 1 0
BITMAP
2528
3FFE
1AD6
2529
1806
2409
3C0F
1806
A509
5A06
A509
BD0F
1806
2409
1806
2529
3FFF
1AD6
2528
ENDCHAR
STARTCHAR 00F1
ENCODING 241
SWIDTH 680 0
DWIDTH 17 0
BBX 14 26 2 0
BITMAP
342C
4A10
B5AC
F7FC
4250
B1A0
0000
B02C
F83C
4810
B42C
4A10
B5AC
F7FC
4250
B1AC
4050
B02C
F03C
4010
B02C
4010
B02C
F03C
4010
B02C
ENDCHAR
STARTCHAR 00F2
ENCODING 242
SWIDTH 680 0
DWIDTH 17 0
BBX 14 26 2 0
BITMAP
B000
4800
3400
3E00
0A00
0580
0000
35A0
7FF0
4A50
B5AC
4010
B02C
F03C
4010
B02C
4010
B02C
F03C
4010
B02C
4010
B5AC
FFFC
4A50
35A0
ENDCHAR
STARTCHAR 00F3
ENCODING 243
SWIDTH 680 0
DWIDTH 17 0
BBX 14 26 2 0
BITMAP
0050
01A0
0240
07C0
0580
0A00
0000
35A0
7FF0
4A50
B5AC
4010
B02C
F03C
4010
B02C
4010
B02C
F03C
4010
B02C
4010
B5AC
FFFC
4A50
35A0
ENDCHAR
STARTCHAR 00F4
ENCODING 244
SWIDTH 680 0
DWIDTH 17 0
BBX 14 26 2 0
BITMAP
0580
0A40
35A0
3DE0
0840
35A0
0000
35A0
7FF0
4A50
B5AC
4010
B02C
F03C
4010
B02C
4010
B02C
F03C
4010
B02C
4010
B5AC
FFFC
4A50
35A0
ENDCHAR
STARTCHAR 00F5
ENCODING 245
SWIDTH 680 0
DWIDTH 17 0
BBX 14 26 2 0
BITMAP
342C
4A10
B5AC
F7FC
4250
B1A0
0000
35A0
7FF0
4A50
B5AC
4010
B02C
F03C
4010
B02C
4010
B02C
F03C
4010
B02C
4010
B5AC
FFFC
4A50
35A0
ENDCHAR
STARTCHAR 00F6
ENCODING 246
SWIDTH 680 0
DWIDTH 17 0
BBX 14 24 2 0
BITMAP
35A0
3DE0
0840
35A0
0000
35A0
7FF0
4A50
B5AC
4010
B02C
F03C
4010
B02C
4010
B02C
F03C
4010
B02C
4010
B5AC
FFFC
4A50
35A0
ENDCHAR
STARTCHAR 00F7
ENCODING 247
SWIDTH 680 0
DWIDTH 17 0
BBX 14 14 2 2
BITMAP
0580
0200
0580
0580
0000
B5AC
4A50
B5AC
B5AC
0000
0580
0200
0580
0580
ENDCHAR
STARTCHAR 00F8
ENCODING 248
SWIDTH 800 0
DWIDTH 20 0
BBX 18 19 1 0
BITMAP
052800
1FFE00
1AD600
252900
180600
240900
3C0F00
180600
A52940
5AD680
A52940
BD2F40
180600
240900
180600
252900
3FFF00
1AD600
052800
ENDCHAR
STARTCHAR 00F9
ENCODING 249
SWIDTH 680 0
DWIDTH 17 0
BBX 14 26 2 0
BITMAP
B000
4800
3400
3E00
0A00
0580
0000
B02C
F03C
4010
B02C
4010
B02C
F03C
4010
B02C
4010
B02C
F03C
4010
B02C
4010
B5AC
FFFC
4A50
35A0
ENDCHAR
STARTCHAR 00FA
ENCODING 250
SWIDTH 680 0
DWIDTH 17 0
BBX 14 26 2 0
BITMAP
0050
01A0
0240
07C0
0580
0A00
0000
B02C
F03C
4010
B02C
4010
B02C
F03C
4010
B02C
4010
B02C
F03C
4010
B02C
4010
B5AC
FFFC
4A50
35A0
ENDCHAR
STARTCHAR 00FB
ENCODING 251
SWIDTH 680 0
DWIDTH 17 0
BBX 14 26 2 0
BITMAP
0580
0A40
35A0
3DE0
0840
35A0
0000
B02C
F03C
4010
B02C
4010
B02C
F03C
4010
B02C
4010
B02C
F03C
4010
B02C
4010
B5AC
FFFC
4A50
35A0
ENDCHAR
STARTCHAR 00FC
ENCODING 252
SWIDTH 680 0
DWIDTH 17 0
BBX 14 24 2 0
BITMAP
35A0
3DE0
0840
35A0
0000
B02C
F03C
4010
B02C
4010
B02C
F03C
4010
B02C
4010
B02C
F03C
4010
B02C
4010
B5AC
FFFC
4A50
35A0
ENDCHAR
STARTCHAR 00FD
ENCODING 253
SWIDTH 680 0
DWIDTH 17 0
BBX 14 26 2 0
BITMAP
0050
01A0
0240
07C0
0580
0A00
0000
B02C
F03C
4010
B02C
4010
B02C
F03C
4010
B02C
4010
B5AC
FFFC
4A50
35A0
0200
0580
0780
0200
0580
ENDCHAR
STARTCHAR 00FE
ENCODING 254
SWIDTH 680 0
DWIDTH 17 0
BBX 14 19 2 0
BITMAP
B000
F000
4000
B5A0
4A50
B5AC
F5BC
4010
B02C
4010
B02C
F03C
4010
B5AC
4A50
B5A0
F5A0
4000
B000
ENDCHAR
STARTCHAR 00FF
ENCODING 255
SWIDTH 680 0
DWIDTH 17 0
BBX 14 24 2 0
BITMAP
35A0
3DE0
0840
35A0
0000
B02C
F03C
4010
B02C
4010
B02C
F03C
4010
B02C
4010
B5AC
FFFC
4A50
35A0
0200
0580
0780
0200
0580
ENDCHAR
STARTCHAR 0100
ENCODING 256
SWIDTH 680 0
DWIDTH 17 0
BBX 14 24 2 0
BITMAP
35A0
3FE0
0A40
35A0
0000
0580
0FC0
0A40
35A0
4850
B02C
F03C
4010
B02C
4010
B5AC
FFFC
4A50
B5AC
4010
B02C
F03C
4010
B02C
ENDCHAR
STARTCHAR 0101
ENCODING 257
SWIDTH 680 0
DWIDTH 17 0
BBX 14 24 2 0
BITMAP
35A0
3FE0
0A40
35A0
0000
35A0
7FF0
4A50
B5AC
4010
B02C
F03C
4010
B02C
4010
B5AC
FFFC
4A50
B5AC
4010
B02C
F03C
4010
B02C
ENDCHAR
STARTCHAR 0102
ENCODING 258
SWIDTH 680 0
DWIDTH 17 0
BBX 14 26 2 0
BITMAP
4850
3020
4A50
7FF0
35A0
0A40
0000
0580
0FC0
0A40
35A0
4850
B02C
F03C
4010
B02C
4010
B5AC
FFFC
4A50
B5AC
4010
B02C
F03C
4010
B02C
ENDCHAR
STARTCHAR 0103
ENCODING 259
SWIDTH 680 0
DWIDTH 17 0
BBX 14 26 2 0
BITMAP
4850
3020
4A50
7FF0
35A0
0A40
0000
35A0
7FF0
4A50
B5AC
4010
B02C
F03C
4010
B02C
4010
B5AC
FFFC
4A50
B5AC
4010
B02C
F03C
4010
B02C
ENDCHAR
STARTCHAR 0104
ENCODING 260
SWIDTH 680 0
DWIDTH 17 0
BBX 16 24 2 -5
BITMAP
0580
0FC0
0A40
35A0
4850
B02C
F03C
4010
B02C
4010
B5AC
FFFC
4A50
B5AC
4010
B02C
F03C
4010
B02C
0010
002D
003F
0012
000D
ENDCHAR
STARTCHAR 0105
ENCODING 261
SWIDTH 680 0
DWIDTH 17 0
BBX 16 24 2 -5
BITMAP
35A0
7FF0
4A50
B5AC
4010
B02C
F03C
4010
B02C
4010
B5AC
FFFC
4A50
B5AC
4010
B02C
F03C
4010
B02C
0010
002D
003F
0012
000D
ENDCHAR
STARTCHAR 0106
ENCODING 262
SWIDTH 800 0
DWIDTH 20 0
BBX 16 26 2 0
BITMAP
002C
0050
01A0
03E0
0240
0580
0000
05A0
0FF0
0A50
35AC
4812
B00D
F00F
4002
B00D
4000
B000
F000
4000
B00D
4812
35AC
3FFC
0A50
05A0
ENDCHAR
STARTCHAR 0107
ENCODING 263
SWIDTH 680 0
DWIDTH 17 0
BBX 14 26 2 0
BITMAP
0050
01A0
0240
07C0
0580
0A00
0000
35A0
7FF0
4A50
B5AC
4010
B02C
F03C
4010
B02C
4000
B000
F000
4000
B02C
4010
B5AC
FFFC
4A50
35A0
ENDCHAR
STARTCHAR 010A
ENCODING 266
SWIDTH 800 0
DWIDTH 20 0
BBX 16 24 2 0
BITMAP
0240
03C0
0180
0240
0000
05A0
0FF0
0A50
35AC
4812
B00D
F00F
4002
B00D
4000
B000
F000
4000
B00D
4812
35AC
3FFC
0A50
05A0
ENDCHAR
STARTCHAR 010B
ENCODING 267
SWIDTH 680 0
DWIDTH 17 0
BBX 14 24 2 0
BITMAP
0580
0780
0200
0580
0000
35A0
7FF0
4A50
B5AC
4010
B02C
F03C
4010
B02C
4000
B000
F000
4000
B02C
4010
B5AC
FFFC
4A50
35A0
ENDCHAR
STARTCHAR 010C
ENCODING 268
SWIDTH 800 0
DWIDTH 20 0
BBX 16 26 2 0
BITMAP
0A50
0420
0A50
0FF0
05A0
0240
0000
05A0
0FF0
0A50
35AC
4812
B00D
F00F
4002
B00D
4000
B000
F000
4000
B00D
4812
35AC
3FFC
0A50
05A0
ENDCHAR
STARTCHAR 010D
ENCODING 269
SWIDTH 680 0
DWIDTH 17 0
BBX 14 26 2 0
BITMAP
35A0
0840
35A0
3FE0
0A40
0580
0000
35A0
7FF0
4A50
B5AC
4010
B02C
F03C
4010
B02C
4000
B000
F000
4000
B02C
4010
B5AC
FFFC
4A50
35A0
ENDCHAR
STARTCHAR 010E
ENCODING 270
SWIDTH 800 0
DWIDTH 20 0
BBX 16 26 2 0
BITMAP
0A50
0420
0A50
0FF0
05A0
0240
0000
B5A0
FFF0
4A50
B5AC
4012
B00D
F00F
4002
B00D
4002
B00D
F00F
4002
B00D
4012
B5AC
FFFC
4A50
B5A0
ENDCHAR
STARTCHAR 010F
ENCODING 271
SWIDTH 680 0
DWIDTH 17 0
BBX 14 26 2 0
BITMAP
35A0
0840
35A0
3FE0
0A40
0580
0000
B5A0
FFF0
4A50
B5AC
4010
B02C
F03C
4010
B02C
4010
B02C
F03C
4010
B02C
4010
B5AC
FFFC
4A50
B5A0
ENDCHAR
STARTCHAR 0110
ENCODING 272
SWIDTH 840 0
DWIDTH 21 0
BBX 18 19 1 0
BITMAP
252800
3FFE00
1AD600
252900
180680
240140
3C01C0
180080
A50140
5A0080
A50140
BD01C0
180080
240140
180680
252900
3FFF00
1AD600
252800
ENDCHAR
STARTCHAR 0111
ENCODING 273
SWIDTH 720 0
DWIDTH 18 0
BBX 16 19 1 0
BITMAP
2528
3FFE
1AD6
2529
1806
2409
3C0F
1806
A509
5A06
A509
BD0F
1806
2409
1806
2529
3FFF
1AD6
2528
ENDCHAR
STARTCHAR 0112
ENCODING 274
SWIDTH 680 0
DWIDTH 17 0
BBX 14 24 2 0
BITMAP
35A0
3FE0
0A40
35A0
0000
05AC
0FFC
0A50
35AC
4800
B000
F000
4000
B5A0
4A40
B5A0
F5A0
4000
B000
4800
35AC
3FFC
0A50
05AC
ENDCHAR
STARTCHAR 0113
ENCODING 275
SWIDTH 680 0
DWIDTH 17 0
BBX 14 24 2 0
BITMAP
35A0
3FE0
0A40
35A0
0000
35AC
7FFC
4A50
B5AC
4000
B000
F000
4000
B5A0
4A40
B5A0
F5A0
4000
B000
4000
B5AC
FFFC
4A50
35AC
ENDCHAR
STARTCHAR 0116
ENCODING 278
SWIDTH 680 0
DWIDTH 17 0
BBX 14 24 2 0
BITMAP
0580
0780
0200
0580
0000
05AC
0FFC
0A50
35AC
4800
B000
F000
4000
B5A0
4A40
B5A0
F5A0
4000
B000
4800
35AC
3FFC
0A50
05AC
ENDCHAR
STARTCHAR 0117
ENCODING 279
SWIDTH 680 0
DWIDTH 17 0
BBX 14 24 2 0
BITMAP
0580
0780
0200
0580
0000
35AC
7FFC
4A50
B5AC
4000
B000
F000
4000
B5A0
4A40
B5A0
F5A0
4000
B000
4000
B5AC
FFFC
4A50
35AC
ENDCHAR
STARTCHAR 0118
ENCODING 280
SWIDTH 680 0
DWIDTH 17 0
BBX 16 24 2 -5
BITMAP
05AC
0FFC
0A50
35AC
4800
B000
F000
4000
B5A0
4A40
B5A0
F5A0
4000
B000
4800
35AC
3FFC
0A50
05AC
0010
002D
003F
0012
000D
ENDCHAR
STARTCHAR 0119
ENCODING 281
SWIDTH 680 0
DWIDTH 17 0
BBX 16 24 2 -5
BITMAP
35AC
7FFC
4A50
B5AC
4000
B000
F000
4000
B5A0
4A40
B5A0
F5A0
4000
B000
4000
B5AC
FFFC
4A50
35AC
0010
002D
003F
0012
000D
ENDCHAR
STARTCHAR 011A
ENCODING 282
SWIDTH 680 0
DWIDTH 17 0
BBX 14 26 2 0
BITMAP
35A0
0840
35A0
3FE0
0A40
0580
0000
05AC
0FFC
0A50
35AC
4800
B000
F000
4000
B5A0
4A40
B5A0
F5A0
4000
B000
4800
35AC
3FFC
0A50
05AC
ENDCHAR
STARTCHAR 011B
ENCODING 283
SWIDTH 680 0
DWIDTH 17 0
BBX 14 26 2 0
BITMAP
35A0
0840
35A0
3FE0
0A40
0580
0000
35AC
7FFC
4A50
B5AC
4000
B000
F000
4000
B5A0
4A40
B5A0
F5A0
4000
B000
4000
B5AC
FFFC
4A50
35AC
ENDCHAR
STARTCHAR 011E
ENCODING 286
SWIDTH 800 0
DWIDTH 20 0
BBX 16 26 2 0
BITMAP
342C
0810
35AC
3FFC
0A50
05A0
0000
05AD
0FFF
0A52
35AD
4800
B000
F000
4000
B1AD
4052
B1AD
F1AF
4002
B00D
4802
35AD
3FFF
0A52
05AD
ENDCHAR
STARTCHAR 011F
ENCODING 287
SWIDTH 680 0
DWIDTH 17 0
BBX 14 26 2 0
BITMAP
4850
3020
4A50
7FF0
35A0
0A40
0000
35AC
7FFC
4A50
B5AC
4000
B000
F000
4000
B1AC
4050
B1AC
F1BC
4010
B02C
4010
B5AC
FFFC
4A50
35A0
ENDCHAR
STARTCHAR 0120
ENCODING 288
SWIDTH 800 0
DWIDTH 20 0
BBX 16 24 2 0
BITMAP
0240
03C0
0180
0240
0000
05AD
0FFF
0A52
35AD
4800
B000
F000
4000
B1AD
4052
B1AD
F1AF
4002
B00D
4802
35AD
3FFF
0A52
05AD
ENDCHAR
STARTCHAR 0121
ENCODING 289
SWIDTH 680 0
DWIDTH 17 0
BBX 14 24 2 0
BITMAP
0580
0780
0200
0580
0000
35AC
7FFC
4A50
B5AC
4000
B000
F000
4000
B1AC
4050
B1AC
F1BC
4010
B02C
4010
B5AC
FFFC
4A50
35A0
ENDCHAR
STARTCHAR 0122
ENCODING 290
SWIDTH 800 0
DWIDTH 20 0
BBX 16 27 2 -8
BITMAP
05AD
0FFF
0A52
35AD
4800
B000
F000
4000
B1AD
4052
B1AD
F1AF
4002
B00D
4802
35AD
3FFF
0A52
05AD
0000
0240
03C0
0180
0240
0180
0200
0200
ENDCHAR
STARTCHAR 0123
ENCODING 291
SWIDTH 680 0
DWIDTH 17 0
BBX 14 27 2 -8
BITMAP
35AC
7FFC
4A50
B5AC
4000
B000
F000
4000
B1AC
4050
B1AC
F1BC
4010
B02C
4010
B5AC
FFFC
4A50
35A0
0000
0580
0780
0200
0580
0200
0400
0400
ENDCHAR
STARTCHAR 0126
ENCODING 294
SWIDTH 880 0
DWIDTH 22 0
BBX 21 19 1 0
BITMAP
240140
3C01C0
180080
A52948
5AD6B0
A52948
BD29C8
180080
252940
1AD680
252940
3D29C0
180080
240140
180080
240140
3C01C0
180080
240140
ENDCHAR
STARTCHAR 0127
ENCODING 295
SWIDTH 800 0
DWIDTH 20 0
BBX 18 19 1 0
BITMAP
240900
3C0F00
180600
A52940
5AD680
A52940
BD2F40
180600
252900
1AD600
252900
3D2F00
180600
240900
180600
240900
3C0F00
180600
240900
ENDCHAR
STARTCHAR 0128
ENCODING 296
SWIDTH 480 0
DWIDTH 12 0
BBX 14 26 -1 0
BITMAP
1634
2908
D6B4
F7FC
2148
D0B0
0000
16B0
1FF0
0940
16B0
0100
0680
0780
0100
0680
0100
0680
0780
0100
0680
0100
16B0
1FF0
0940
16B0
ENDCHAR
STARTCHAR 0129
ENCODING 297
SWIDTH 280 0
DWIDTH 7 0
BBX 14 26 -3 0
BITMAP
342C
4A10
B5AC
F7FC
4250
B1A0
0000
0580
0780
0200
0580
0200
0580
0780
0200
0580
0200
0580
0780
0200
0580
0200
0580
0780
0200
0580
ENDCHAR
STARTCHAR 012A
ENCODING 298
SWIDTH 480 0
DWIDTH 12 0
BBX 9 24 2 0
BITMAP
B580
FF80
4A00
B580
0000
B580
FF80
4A00
B580
0800
3400
3C00
0800
3400
0800
3400
3C00
0800
3400
0800
B580
FF80
4A00
B580
ENDCHAR
STARTCHAR 012B
ENCODING 299
SWIDTH 280 0
DWIDTH 7 0
BBX 9 24 -1 0
BITMAP
D680
FF80
2900
D680
0000
1600
1E00
0800
1600
0800
1600
1E00
0800
1600
0800
1600
1E00
0800
1600
0800
1600
1E00
0800
1600
ENDCHAR
STARTCHAR 012E
ENCODING 302
SWIDTH 480 0
DWIDTH 12 0
BBX 11 24 2 -5
BITMAP
B580
FF80
4A00
B580
0800
3400
3C00
0800
3400
0800
3400
3C00
0800
3400
0800
B580
FF80
4A00
B580
0200
05A0
07E0
0240
01A0
ENDCHAR
STARTCHAR 012F
ENCODING 303
SWIDTH 280 0
DWIDTH 7 0
BBX 6 24 2 -5
BITMAP
B0
F0
40
B0
40
B0
F0
40
B0
40
B0
F0
40
B0
40
B0
F0
40
B0
40
B4
FC
48
34
ENDCHAR
STARTCHAR 0130
ENCODING 304
SWIDTH 480 0
DWIDTH 12 0
BBX 9 24 2 0
BITMAP
3400
3C00
0800
3400
0000
B580
FF80
4A00
B580
0800
3400
3C00
0800
3400
0800
3400
3C00
0800
3400
0800
B580
FF80
4A00
B580
ENDCHAR
STARTCHAR 0131
ENCODING 305
SWIDTH 280 0
DWIDTH 7 0
BBX 4 19 2 0
BITMAP
B0
F0
40
B0
40
B0
F0
40
B0
40
B0
F0
40
B0
40
B0
F0
40
B0
ENDCHAR
STARTCHAR 0136
ENCODING 310
SWIDTH 680 0
DWIDTH 17 0
BBX 14 27 2 -8
BITMAP
B02C
F03C
4010
B02C
4050
B1A0
F3E0
4240
B580
4A00
B580
F7C0
4240
B1A0
4050
B02C
F03C
4010
B02C
0000
0580
0780
0200
0580
0200
0400
0400
ENDCHAR
STARTCHAR 0137
ENCODING 311
SWIDTH 680 0
DWIDTH 17 0
BBX 14 27 2 -8
BITMAP
B02C
F03C
4010
B02C
4010
B02C
F07C
4050
B5A0
4A40
B5A0
F5F0
4050
B02C
4010
B02C
F03C
4010
B02C
0000
0580
0780
0200
0580
0200
0400
0400
ENDCHAR
STARTCHAR 0139
ENCODING 313
SWIDTH 680 0
DWIDTH 17 0
BBX 15 26 1 0
BITMAP
0500
1A00
2400
7C00
5800
A000
0000
5800
7800
2000
5800
2000
5800
7800
2000
5800
2000
5800
7800
2000
5800
2000
5AD6
7FFE
2528
1AD6
ENDCHAR
STARTCHAR 013A
ENCODING 314
SWIDTH 600 0
DWIDTH 15 0
BBX 12 26 1 0
BITMAP
0500
1A00
2400
7C00
5800
A000
0000
5800
7800
2000
5800
2000
5800
7800
2000
5800
2000
5800
7800
2000
5800
2000
5AD0
7FF0
2520
1AD0
ENDCHAR
STARTCHAR 013B
ENCODING 315
SWIDTH 680 0
DWIDTH 17 0
BBX 14 27 2 -8
BITMAP
B000
F000
4000
B000
4000
B000
F000
4000
B000
4000
B000
F000
4000
B000
4000
B5AC
FFFC
4A50
35AC
0000
0580
0780
0200
0580
0200
0400
0400
ENDCHAR
STARTCHAR 013C
ENCODING 316
SWIDTH 600 0
DWIDTH 15 0
BBX 11 27 2 -8
BITMAP
B000
F000
4000
B000
4000
B000
F000
4000
B000
4000
B000
F000
4000
B000
4000
B5A0
FFE0
4A40
35A0
0000
0A00
0E00
0400
0A00
0400
0800
0800
ENDCHAR
STARTCHAR 013D
ENCODING 317
SWIDTH 680 0
DWIDTH 17 0
BBX 14 19 2 0
BITMAP
B02C
F03C
4010
B02C
4010
B020
F020
4000
B000
4000
B000
F000
4000
B000
4000
B5AC
FFFC
4A50
35AC
ENDCHAR
STARTCHAR 013E
ENCODING 318
SWIDTH 600 0
DWIDTH 15 0
BBX 11 19 2 0
BITMAP
B1A0
F1E0
4040
B1A0
4040
B180
F180
4000
B000
4000
B000
F000
4000
B000
4000
B5A0
FFE0
4A40
35A0
ENDCHAR
STARTCHAR 0141
ENCODING 321
SWIDTH 720 0
DWIDTH 18 0
BBX 16 19 1 0
BITMAP
2400
3C00
1800
2400
1800
2500
3F00
1A00
A500
5800
A400
BC00
1800
2400
1800
2529
3FFF
1AD6
0529
ENDCHAR
STARTCHAR 0142
ENCODING 322
SWIDTH 640 0
DWIDTH 16 0
BBX 13 19 1 0
BITMAP
2400
3C00
1800
2400
1800
2500
3F00
1A00
A500
5800
A400
BC00
1800
2400
1800
2528
3FF8
1AD0
0528
ENDCHAR
STARTCHAR 0143
ENCODING 323
SWIDTH 800 0
DWIDTH 20 0
BBX 16 26 2 0
BITMAP
002C
0050
01A0
03E0
0240
0580
0000
B00D
F80F
4802
B40D
4A02
B58D
F7CF
4242
B1AD
4052
B02D
F03F
4012
B00D
4002
B00D
F00F
4002
B00D
ENDCHAR
STARTCHAR 0144
ENCODING 324
SWIDTH 680 0
DWIDTH 17 0
BBX 14 26 2 0
BITMAP
0050
01A0
0240
07C0
0580
0A00
0000
B02C
F83C
4810
B42C
4A10
B5AC
F7FC
4250
B1AC
4050
B02C
F03C
4010
B02C
4010
B02C
F03C
4010
B02C
ENDCHAR
STARTCHAR 0145
ENCODING 325
SWIDTH 800 0
DWIDTH 20 0
BBX 16 27 2 -8
BITMAP
B00D
F80F
4802
B40D
4A02
B58D
F7CF
4242
B1AD
4052
B02D
F03F
4012
B00D
4002
B00D
F00F
4002
B00D
0000
0240
03C0
0180
0240
0180
0200
0200
ENDCHAR
STARTCHAR 0146
ENCODING 326
SWIDTH 680 0
DWIDTH 17 0
BBX 14 27 2 -8
BITMAP
B02C
F83C
4810
B42C
4A10
B5AC
F7FC
4250
B1AC
4050
B02C
F03C
4010
B02C
4010
B02C
F03C
4010
B02C
0000
0580
0780
0200
0580
0200
0400
0400
ENDCHAR
STARTCHAR 0147
ENCODING 327
SWIDTH 800 0
DWIDTH 20 0
BBX 16 26 2 0
BITMAP
0A50
0420
0A50
0FF0
05A0
0240
0000
B00D
F80F
4802
B40D
4A02
B58D
F7CF
4242
B1AD
4052
B02D
F03F
4012
B00D
4002
B00D
F00F
4002
B00D
ENDCHAR
STARTCHAR 0148
ENCODING 328
SWIDTH 680 0
DWIDTH 17 0
BBX 14 26 2 0
BITMAP
35A0
0840
35A0
3FE0
0A40
0580
0000
B02C
F83C
4810
B42C
4A10
B5AC
F7FC
4250
B1AC
4050
B02C
F03C
4010
B02C
4010
B02C
F03C
4010
B02C
ENDCHAR
STARTCHAR 014A
ENCODING 330
SWIDTH 800 0
DWIDTH 20 0
BBX 16 24 2 -5
BITMAP
B00D
F80F
4802
B40D
4A02
B58D
F7CF
4242
B1AD
4052
B02D
F03F
4012
B00D
4002
B00D
F00F
4002
B00D
0002
002D
003F
0012
002C
ENDCHAR
STARTCHAR 014B
ENCODING 331
SWIDTH 680 0
DWIDTH 17 0
BBX 14 24 2 -5
BITMAP
B02C
F83C
4810
B42C
4A10
B5AC
F7FC
4250
B1AC
4050
B02C
F03C
4010
B02C
4010
B02C
F03C
4010
B02C
0010
01AC
01FC
0050
01A0
ENDCHAR
STARTCHAR 014C
ENCODING 332
SWIDTH 800 0
DWIDTH 20 0
BBX 16 24 2 0
BITMAP
0A50
0FF0
05A0
0A50
0000
05A0
0FF0
0A50
35AC
4812
B00D
F00F
4002
B00D
4002
B00D
F00F
4002
B00D
4812
35AC
3FFC
0A50
05A0
ENDCHAR
STARTCHAR 014D
ENCODING 333
SWIDTH 680 0
DWIDTH 17 0
BBX 14 24 2 0
BITMAP
35A0
3FE0
0A40
35A0
0000
35A0
7FF0
4A50
B5AC
4010
B02C
F03C
4010
B02C
4010
B02C
F03C
4010
B02C
4010
B5AC
FFFC
4A50
35A0
ENDCHAR
STARTCHAR 0150
ENCODING 336
SWIDTH 800 0
DWIDTH 20 0
BBX 17 26 2 0
BITMAP
024280
058D00
0A1200
3E3E00
342C00
485000
000000
05A000
0FF000
0A5000
35AC00
481200
B00D00
F00F00
400200
B00D00
400200
B00D00
F00F00
400200
B00D00
481200
35AC00
3FFC00
0A5000
05A000
ENDCHAR
STARTCHAR 0151
ENCODING 337
SWIDTH 680 0
DWIDTH 17 0
BBX 16 26 2 0
BITMAP
058D
0A12
342C
7C7C
4850
B1A0
0000
35A0
7FF0
4A50
B5AC
4010
B02C
F03C
4010
B02C
4010
B02C
F03C
4010
B02C
4010
B5AC
FFFC
4A50
35A0
ENDCHAR
STARTCHAR 0152
ENCODING 338
SWIDTH 1200 0
DWIDTH 30 0
BBX 26 19 2 0
BITMAP
05A06B40
0FF0FFC0
0A509480
35AD6B40
48128000
B00D0000
F00F0000
40020000
B00D6B00
40029400
B00D6B00
F00F6B00
40020000
B00D0000
48128000
35AD6B40
3FFDFFC0
0A509480
05A06B40
ENDCHAR
STARTCHAR 0153
ENCODING 339
SWIDTH 1080 0
DWIDTH 27 0
BBX 24 19 2 0
BITMAP
35AD6B
7FFFFF
4A5294
B5AD6B
401000
B02C00
F03C00
401000
B02D68
401290
B02D68
F03D68
401000
B02C00
401000
B5AD6B
FFFFFF
4A5294
35AD6B
ENDCHAR
STARTCHAR 0154
ENCODING 340
SWIDTH 680 0
DWIDTH 17 0
BBX 14 26 2 0
BITMAP
0050
01A0
0240
07C0
0580
0A00
0000
B580
FFC0
4A40
B5A0
4050
B02C
F03C
4010
B02C
4010
B02C
F07C
4050
B5A0
4A40
B5A0
F5F0
4050
B02C
ENDCHAR
STARTCHAR 0155
ENCODING 341
SWIDTH 680 0
DWIDTH 17 0
BBX 14 26 2 0
BITMAP
0050
01A0
0240
07C0
0580
0A00
0000
B5A0
FFF0
4A50
B5AC
4010
B02C
F03C
4010
B02C
4010
B5AC
FFFC
4A50
B5A0
4050
B02C
F03C
4010
B02C
ENDCHAR
STARTCHAR 0156
ENCODING 342
SWIDTH 680 0
DWIDTH 17 0
BBX 14 27 2 -8
BITMAP
B580
FFC0
4A40
B5A0
4050
B02C
F03C
4010
B02C
4010
B02C
F07C
4050
B5A0
4A40
B5A0
F5F0
4050
B02C
0000
0580
0780
0200
0580
0200
0400
0400
ENDCHAR
STARTCHAR 0157
ENCODING 343
SWIDTH 680 0
DWIDTH 17 0
BBX 14 27 2 -8
BITMAP
B5A0
FFF0
4A50
B5AC
4010
B02C
F03C
4010
B02C
4010
B5AC
FFFC
4A50
B5A0
4050
B02C
F03C
4010
B02C
0000
0580
0780
0200
0580
0200
0400
0400
ENDCHAR
STARTCHAR 0158
ENCODING 344
SWIDTH 680 0
DWIDTH 17 0
BBX 14 26 2 0
BITMAP
35A0
0840
35A0
3FE0
0A40
0580
0000
B580
FFC0
4A40
B5A0
4050
B02C
F03C
4010
B02C
4010
B02C
F07C
4050
B5A0
4A40
B5A0
F5F0
4050
B02C
ENDCHAR
STARTCHAR 0159
ENCODING 345
SWIDTH 680 0
DWIDTH 17 0
BBX 14 26 2 0
BITMAP
35A0
0840
35A0
3FE0
0A40
0580
0000
B5A0
FFF0
4A50
B5AC
4010
B02C
F03C
4010
B02C
4010
B5AC
FFFC
4A50
B5A0
4050
B02C
F03C
4010
B02C
ENDCHAR
STARTCHAR 015A
ENCODING 346
SWIDTH 680 0
DWIDTH 17 0
BBX 14 26 2 0
BITMAP
0050
01A0
0240
07C0
0580
0A00
0000
35A0
7FF0
4A50
B5AC
4010
B02C
F02C
4000
B5A0
4A50
35AC
35BC
0010
B02C
4010
B5AC
FFFC
4A50
35A0
ENDCHAR
STARTCHAR 015B
ENCODING 347
SWIDTH 680 0
DWIDTH 17 0
BBX 14 26 2 0
BITMAP
0050
01A0
0240
07C0
0580
0A00
0000
35A0
7FF0
4A50
B5AC
4010
B02C
F02C
4000
B5A0
4A50
35AC
35BC
0010
B02C
4010
B5AC
FFFC
4A50
35A0
ENDCHAR
STARTCHAR 015E
ENCODING 350
SWIDTH 680 0
DWIDTH 17 0
BBX 14 24 2 -5
BITMAP
35A0
7FF0
4A50
B5AC
4010
B02C
F02C
4000
B5A0
4A50
35AC
35BC
0010
B02C
4010
B5AC
FFFC
4A50
35A0
0200
3580
3F80
0A00
3400
ENDCHAR
STARTCHAR 015F
ENCODING 351
SWIDTH 680 0
DWIDTH 17 0
BBX 14 24 2 -5
BITMAP
35A0
7FF0
4A50
B5AC
4010
B02C
F02C
4000
B5A0
4A50
35AC
35BC
0010
B02C
4010
B5AC
FFFC
4A50
35A0
0200
3580
3F80
0A00
3400
ENDCHAR
STARTCHAR 0160
ENCODING 352
SWIDTH 680 0
DWIDTH 17 0
BBX 14 26 2 0
BITMAP
35A0
0840
35A0
3FE0
0A40
0580
0000
35A0
7FF0
4A50
B5AC
4010
B02C
F02C
4000
B5A0
4A50
35AC
35BC
0010
B02C
4010
B5AC
FFFC
4A50
35A0
ENDCHAR
STARTCHAR 0161
ENCODING 353
SWIDTH 680 0
DWIDTH 17 0
BBX 14 26 2 0
BITMAP
35A0
0840
35A0
3FE0
0A40
0580
0000
35A0
7FF0
4A50
B5AC
4010
B02C
F02C
4000
B5A0
4A50
35AC
35BC
0010
B02C
4010
B5AC
FFFC
4A50
35A0
ENDCHAR
STARTCHAR 0162
ENCODING 354
SWIDTH 680 0
DWIDTH 17 0
BBX 14 24 2 -5
BITMAP
B5AC
FFFC
4A50
B5AC
0200
0580
0780
0200
0580
0200
0580
0780
0200
0580
0200
0580
0780
0200
0580
0200
3580
3F80
0A00
3400
ENDCHAR
STARTCHAR 0163
ENCODING 355
SWIDTH 680 0
DWIDTH 17 0
BBX 14 24 2 -5
BITMAP
B5AC
FFFC
4A50
B5AC
0200
0580
0780
0200
0580
0200
0580
0780
0200
0580
0200
0580
0780
0200
0580
0200
3580
3F80
0A00
3400
ENDCHAR
STARTCHAR 0164
ENCODING 356
SWIDTH 680 0
DWIDTH 17 0
BBX 14 26 2 0
BITMAP
35A0
0840
35A0
3FE0
0A40
0580
0000
B5AC
FFFC
4A50
B5AC
0200
0580
0780
0200
0580
0200
0580
0780
0200
0580
0200
0580
0780
0200
0580
ENDCHAR
STARTCHAR 0165
ENCODING 357
SWIDTH 680 0
DWIDTH 17 0
BBX 14 26 2 0
BITMAP
35A0
0840
35A0
3FE0
0A40
0580
0000
B5AC
FFFC
4A50
B5AC
0200
0580
0780
0200
0580
0200
0580
0780
0200
0580
0200
0580
0780
0200
0580
ENDCHAR
STARTCHAR 0166
ENCODING 358
SWIDTH 680 0
DWIDTH 17 0
BBX 14 19 2 0
BITMAP
B5AC
FFFC
4A50
B5AC
0200
0580
0780
0200
35A0
0A40
35A0
37A0
0200
0580
0200
0580
0780
0200
0580
ENDCHAR
STARTCHAR 0167
ENCODING 359
SWIDTH 680 0
DWIDTH 17 0
BBX 14 19 2 0
BITMAP
B5AC
FFFC
4A50
B5AC
0200
0580
0780
0200
35A0
0A40
35A0
37A0
0200
0580
0200
0580
0780
0200
0580
ENDCHAR
STARTCHAR 0168
ENCODING 360
SWIDTH 800 0
DWIDTH 20 0
BBX 16 26 2 0
BITMAP
0A12
358C
4A52
7BFE
31AC
4850
0000
B00D
F00F
4002
B00D
4002
B00D
F00F
4002
B00D
4002
B00D
F00F
4002
B00D
4812
35AC
3FFC
0A50
05A0
ENDCHAR
STARTCHAR 0169
ENCODING 361
SWIDTH 680 0
DWIDTH 17 0
BBX 14 26 2 0
BITMAP
342C
4A10
B5AC
F7FC
4250
B1A0
0000
B02C
F03C
4010
B02C
4010
B02C
F03C
4010
B02C
4010
B02C
F03C
4010
B02C
4010
B5AC
FFFC
4A50
35A0
ENDCHAR
STARTCHAR 016A
ENCODING 362
SWIDTH 800 0
DWIDTH 20 0
BBX 16 24 2 0
BITMAP
0A50
0FF0
05A0
0A50
0000
B00D
F00F
4002
B00D
4002
B00D
F00F
4002
B00D
4002
B00D
F00F
4002
B00D
4812
35AC
3FFC
0A50
05A0
ENDCHAR
STARTCHAR 016B
ENCODING 363
SWIDTH 680 0
DWIDTH 17 0
BBX 14 24 2 0
BITMAP
35A0
3FE0
0A40
35A0
0000
B02C
F03C
4010
B02C
4010
B02C
F03C
4010
B02C
4010
B02C
F03C
4010
B02C
4010
B5AC
FFFC
4A50
35A0
ENDCHAR
STARTCHAR 016E
ENCODING 366
SWIDTH 800 0
DWIDTH 20 0
BBX 16 31 2 0
BITMAP
05A0
0A50
35AC
3DBC
0810
342C
0810
35AC
3FFC
0A50
05A0
0000
B00D
F00F
4002
B00D
4002
B00D
F00F
4002
B00D
4002
B00D
F00F
4002
B00D
4812
35AC
3FFC
0A50
05A0
ENDCHAR
STARTCHAR 016F
ENCODING 367
SWIDTH 680 0
DWIDTH 17 0
BBX 14 31 2 0
BITMAP
0A40
35A0
4A50
7A70
3020
4850
3020
4A50
7FF0
35A0
0A40
0000
B02C
F03C
4010
B02C
4010
B02C
F03C
4010
B02C
4010
B02C
F03C
4010
B02C
4010
B5AC
FFFC
4A50
35A0
ENDCHAR
STARTCHAR 0170
ENCODING 368
SWIDTH 800 0
DWIDTH 20 0
BBX 17 26 2 0
BITMAP
024280
058D00
0A1200
3E3E00
342C00
485000
000000
B00D00
F00F00
400200
B00D00
400200
B00D00
F00F00
400200
B00D00
400200
B00D00
F00F00
400200
B00D00
481200
35AC00
3FFC00
0A5000
05A000
ENDCHAR
STARTCHAR 0171
ENCODING 369
SWIDTH 680 0
DWIDTH 17 0
BBX 16 26 2 0
BITMAP
058D
0A12
342C
7C7C
4850
B1A0
0000
B02C
F03C
4010
B02C
4010
B02C
F03C
4010
B02C
4010
B02C
F03C
4010
B02C
4010
B5AC
FFFC
4A50
35A0
ENDCHAR
STARTCHAR 0172
ENCODING 370
SWIDTH 800 0
DWIDTH 20 0
BBX 16 24 2 -5
BITMAP
B00D
F00F
4002
B00D
4002
B00D
F00F
4002
B00D
4002
B00D
F00F
4002
B00D
4812
35AC
3FFC
0A50
05A0
0040
01AC
01FC
0050
002C
ENDCHAR
STARTCHAR 0173
ENCODING 371
SWIDTH 680 0
DWIDTH 17 0
BBX 14 24 2 -5
BITMAP
B02C
F03C
4010
B02C
4010
B02C
F03C
4010
B02C
4010
B02C
F03C
4010
B02C
4010
B5AC
FFFC
4A50
35A0
0040
01AC
01FC
0050
002C
ENDCHAR
STARTCHAR 0174
ENCODING 372
SWIDTH 1080 0
DWIDTH 27 0
BBX 24 26 2 0
BITMAP
002C00
005200
01AD00
01EF00
004200
01AD00
000000
B02C0B
F03C0F
401004
B02C0B
401004
B02C0B
F03C0F
401004
B02C0B
401004
B02C0B
F03C0F
401004
B02C0B
485214
35AD68
3FEFF8
0A4290
058160
ENDCHAR
STARTCHAR 0175
ENCODING 373
SWIDTH 1080 0
DWIDTH 27 0
BBX 24 26 2 0
BITMAP
002C00
005200
01AD00
01EF00
004200
01AD00
000000
B02C0B
F03C0F
401004
B02C0B
401004
B02C0B
F03C0F
401004
B02C0B
401004
B02C0B
F03C0F
401004
B02C0B
405204
B5AD6B
FFEFFF
4A4294
358168
ENDCHAR
STARTCHAR 0176
ENCODING 374
SWIDTH 680 0
DWIDTH 17 0
BBX 14 26 2 0
BITMAP
0580
0A40
35A0
3DE0
0840
35A0
0000
B02C
F03C
4010
B02C
4010
B02C
F03C
4010
B02C
4850
35A0
3FE0
0A40
0580
0200
0580
0780
0200
0580
ENDCHAR
STARTCHAR 0177
ENCODING 375
SWIDTH 680 0
DWIDTH 17 0
BBX 14 26 2 0
BITMAP
0580
0A40
35A0
3DE0
0840
35A0
0000
B02C
F03C
4010
B02C
4010
B02C
F03C
4010
B02C
4010
B5AC
FFFC
4A50
35A0
0200
0580
0780
0200
0580
ENDCHAR
STARTCHAR 0178
ENCODING 376
SWIDTH 680 0
DWIDTH 17 0
BBX 14 24 2 0
BITMAP
35A0
3DE0
0840
35A0
0000
B02C
F03C
4010
B02C
4010
B02C
F03C
4010
B02C
4850
35A0
3FE0
0A40
0580
0200
0580
0780
0200
0580
ENDCHAR
STARTCHAR 0179
ENCODING 377
SWIDTH 680 0
DWIDTH 17 0
BBX 14 26 2 0
BITMAP
0050
01A0
0240
07C0
0580
0A00
0000
B5AC
FFFC
4A50
B5AC
0050
01A0
03E0
0240
0580
0A00
3400
7C00
4800
B000
4000
B5AC
FFFC
4A50
B5AC
ENDCHAR
STARTCHAR 017A
ENCODING 378
SWIDTH 680 0
DWIDTH 17 0
BBX 14 26 2 0
BITMAP
0050
01A0
0240
07C0
0580
0A00
0000
B5AC
FFFC
4A50
B5AC
0010
002C
003C
0010
35AC
4A50
B5A0
F5A0
4000
B000
4000
B5AC
FFFC
4A50
B5AC
ENDCHAR
STARTCHAR 017B
ENCODING 379
SWIDTH 680 0
DWIDTH 17 0
BBX 14 24 2 0
BITMAP
0580
0780
0200
0580
0000
B5AC
FFFC
4A50
B5AC
0050
01A0
03E0
0240
0580
0A00
3400
7C00
4800
B000
4000
B5AC
FFFC
4A50
B5AC
ENDCHAR
STARTCHAR 017C
ENCODING 380
SWIDTH 680 0
DWIDTH 17 0
BBX 14 24 2 0
BITMAP
0580
0780
0200
0580
0000
B5AC
FFFC
4A50
B5AC
0010
002C
003C
0010
35AC
4A50
B5A0
F5A0
4000
B000
4000
B5AC
FFFC
4A50
B5AC
ENDCHAR
STARTCHAR 017D
ENCODING 381
SWIDTH 680 0
DWIDTH 17 0
BBX 14 26 2 0
BITMAP
35A0
0840
35A0
3FE0
0A40
0580
0000
B5AC
FFFC
4A50
B5AC
0050
01A0
03E0
0240
0580
0A00
3400
7C00
4800
B000
4000
B5AC
FFFC
4A50
B5AC
ENDCHAR
STARTCHAR 017E
ENCODING 382
SWIDTH 680 0
DWIDTH 17 0
BBX 14 26 2 0
BITMAP
35A0
0840
35A0
3FE0
0A40
0580
0000
B5AC
FFFC
4A50
B5AC
0010
002C
003C
0010
35AC
4A50
B5A0
F5A0
4000
B000
4000
B5AC
FFFC
4A50
B5AC
ENDCHAR
STARTCHAR 0192
ENCODING 402
SWIDTH 680 0
DWIDTH 17 0
BBX 14 24 2 -5
BITMAP
01AC
03FC
0250
05AC
0200
0580
0780
0200
35A0
0A40
35A0
37A0
0200
0580
0200
0580
0780
0200
0580
0200
B580
FF80
4A00
B400
ENDCHAR
STARTCHAR 01A0
ENCODING 416
SWIDTH 920 0
DWIDTH 23 0
BBX 21 21 2 0
BITMAP
000068
000010
35AD68
7FFFF8
4A5290
B5AD60
400200
B00D00
F00F00
400200
B00D00
400200
B00D00
F00F00
400200
B00D00
400200
B5AD00
FFFF00
4A5200
35AC00
ENDCHAR
STARTCHAR 01A1
ENCODING 417
SWIDTH 840 0
DWIDTH 21 0
BBX 19 21 2 0
BITMAP
000160
000080
35AD60
7FFFE0
4A5280
B5AD00
401000
B02C00
F03C00
401000
B02C00
401000
B02C00
F03C00
401000
B02C00
401000
B5AC00
FFFC00
4A5000
35A000
ENDCHAR
STARTCHAR 01AF
ENCODING 431
SWIDTH 920 0
DWIDTH 23 0
BBX 21 21 2 0
BITMAP
000068
000010
B00D68
F00FF8
400290
B00D60
400200
B00D00
F00F00
400200
B00D00
400200
B00D00
F00F00
400200
B00D00
481200
35AC00
3FFC00
0A5000
05A000
ENDCHAR
STARTCHAR 01B0
ENCODING 432
SWIDTH 840 0
DWIDTH 21 0
BBX 19 21 2 0
BITMAP
000160
000080
B02D60
F03FE0
401280
B02D00
401000
B02C00
F03C00
401000
B02C00
401000
B02C00
F03C00
401000
B02C00
401000
B5AC00
FFFC00
4A5000
35A000
ENDCHAR
STARTCHAR 01CD
ENCODING 461
SWIDTH 680 0
DWIDTH 17 0
BBX 14 26 2 0
BITMAP
35A0
0840
35A0
3FE0
0A40
0580
0000
0580
0FC0
0A40
35A0
4850
B02C
F03C
4010
B02C
4010
B5AC
FFFC
4A50
B5AC
4010
B02C
F03C
4010
B02C
ENDCHAR
STARTCHAR 01CE
ENCODING 462
SWIDTH 680 0
DWIDTH 17 0
BBX 14 26 2 0
BITMAP
35A0
0840
35A0
3FE0
0A40
0580
0000
35A0
7FF0
4A50
B5AC
4010
B02C
F03C
4010
B02C
4010
B5AC
FFFC
4A50
B5AC
4010
B02C
F03C
4010
B02C
ENDCHAR
STARTCHAR 01CF
ENCODING 463
SWIDTH 480 0
DWIDTH 12 0
BBX 9 26 2 0
BITMAP
B580
4200
B580
FF80
4A00
3400
0000
B580
FF80
4A00
B580
0800
3400
3C00
0800
3400
0800
3400
3C00
0800
3400
0800
B580
FF80
4A00
B580
ENDCHAR
STARTCHAR 01D0
ENCODING 464
SWIDTH 280 0
DWIDTH 7 0
BBX 9 26 -1 0
BITMAP
D680
2100
D680
FF80
2900
1600
0000
1600
1E00
0800
1600
0800
1600
1E00
0800
1600
0800
1600
1E00
0800
1600
0800
1600
1E00
0800
1600
ENDCHAR
STARTCHAR 01D1
ENCODING 465
SWIDTH 800 0
DWIDTH 20 0
BBX 16 26 2 0
BITMAP
0A50
0420
0A50
0FF0
05A0
0240
0000
05A0
0FF0
0A50
35AC
4812
B00D
F00F
4002
B00D
4002
B00D
F00F
4002
B00D
4812
35AC
3FFC
0A50
05A0
ENDCHAR
STARTCHAR 01D2
ENCODING 466
SWIDTH 680 0
DWIDTH 17 0
BBX 14 26 2 0
BITMAP
35A0
0840
35A0
3FE0
0A40
0580
0000
35A0
7FF0
4A50
B5AC
4010
B02C
F03C
4010
B02C
4010
B02C
F03C
4010
B02C
4010
B5AC
FFFC
4A50
35A0
ENDCHAR
STARTCHAR 01D3
ENCODING 467
SWIDTH 800 0
DWIDTH 20 0
BBX 16 26 2 0
BITMAP
0A50
0420
0A50
0FF0
05A0
0240
0000
B00D
F00F
4002
B00D
4002
B00D
F00F
4002
B00D
4002
B00D
F00F
4002
B00D
4812
35AC
3FFC
0A50
05A0
ENDCHAR
STARTCHAR 01D4
ENCODING 468
SWIDTH 680 0
DWIDTH 17 0
BBX 14 26 2 0
BITMAP
35A0
0840
35A0
3FE0
0A40
0580
0000
B02C
F03C
4010
B02C
4010
B02C
F03C
4010
B02C
4010
B02C
F03C
4010
B02C
4010
B5AC
FFFC
4A50
35A0
ENDCHAR
STARTCHAR 01D5
ENCODING 469
SWIDTH 800 0
DWIDTH 20 0
BBX 16 29 2 0
BITMAP
0A50
0FF0
05A0
0A50
0000
0A50
0E70
0420
0A50
0000
B00D
F00F
4002
B00D
4002
B00D
F00F
4002
B00D
4002
B00D
F00F
4002
B00D
4812
35AC
3FFC
0A50
05A0
ENDCHAR
STARTCHAR 01D6
ENCODING 470
SWIDTH 680 0
DWIDTH 17 0
BBX 14 29 2 0
BITMAP
35A0
3FE0
0A40
35A0
0000
35A0
3DE0
0840
35A0
0000
B02C
F03C
4010
B02C
4010
B02C
F03C
4010
B02C
4010
B02C
F03C
4010
B02C
4010
B5AC
FFFC
4A50
35A0
ENDCHAR
STARTCHAR 01D7
ENCODING 471
SWIDTH 800 0
DWIDTH 20 0
BBX 16 31 2 0
BITMAP
002C
0050
01A0
03E0
0240
0580
0000
0A50
0E70
0420
0A50
0000
B00D
F00F
4002
B00D
4002
B00D
F00F
4002
B00D
4002
B00D
F00F
4002
B00D
4812
35AC
3FFC
0A50
05A0
ENDCHAR
STARTCHAR 01D8
ENCODING 472
SWIDTH 680 0
DWIDTH 17 0
BBX 14 31 2 0
BITMAP
0050
01A0
0240
07C0
0580
0A00
0000
35A0
3DE0
0840
35A0
0000
B02C
F03C
4010
B02C
4010
B02C
F03C
4010
B02C
4010
B02C
F03C
4010
B02C
4010
B5AC
FFFC
4A50
35A0
ENDCHAR
STARTCHAR 01D9
ENCODING 473
SWIDTH 800 0
DWIDTH 20 0
BBX 16 31 2 0
BITMAP
0A50
0420
0A50
0FF0
05A0
0240
0000
0A50
0E70
0420
0A50
0000
B00D
F00F
4002
B00D
4002
B00D
F00F
4002
B00D
4002
B00D
F00F
4002
B00D
4812
35AC
3FFC
0A50
05A0
ENDCHAR
STARTCHAR 01DA
ENCODING 474
SWIDTH 680 0
DWIDTH 17 0
BBX 14 31 2 0
BITMAP
35A0
0840
35A0
3FE0
0A40
0580
0000
35A0
3DE0
0840
35A0
0000
B02C
F03C
4010
B02C
4010
B02C
F03C
4010
B02C
4010
B02C
F03C
4010
B02C
4010
B5AC
FFFC
4A50
35A0
ENDCHAR
STARTCHAR 01DB
ENCODING 475
SWIDTH 800 0
DWIDTH 20 0
BBX 16 31 2 0
BITMAP
4800
3400
0A00
0F80
0580
0240
0000
0A50
0E70
0420
0A50
0000
B00D
F00F
4002
B00D
4002
B00D
F00F
4002
B00D
4002
B00D
F00F
4002
B00D
4812
35AC
3FFC
0A50
05A0
ENDCHAR
STARTCHAR 01DC
ENCODING 476
SWIDTH 680 0
DWIDTH 17 0
BBX 14 31 2 0
BITMAP
B000
4800
3400
3E00
0A00
0580
0000
35A0
3DE0
0840
35A0
0000
B02C
F03C
4010
B02C
4010
B02C
F03C
4010
B02C
4010
B02C
F03C
4010
B02C
4010
B5AC
FFFC
4A50
35A0
ENDCHAR
STARTCHAR 0218
ENCODING 536
SWIDTH 680 0
DWIDTH 17 0
BBX 14 27 2 -8
BITMAP
35A0
7FF0
4A50
B5AC
4010
B02C
F02C
4000
B5A0
4A50
35AC
35BC
0010
B02C
4010
B5AC
FFFC
4A50
35A0
0000
0580
0780
0200
0580
0200
0400
0400
ENDCHAR
STARTCHAR 0219
ENCODING 537
SWIDTH 680 0
DWIDTH 17 0
BBX 14 27 2 -8
BITMAP
35A0
7FF0
4A50
B5AC
4010
B02C
F02C
4000
B5A0
4A50
35AC
35BC
0010
B02C
4010
B5AC
FFFC
4A50
35A0
0000
0580
0780
0200
0580
0200
0400
0400
ENDCHAR
STARTCHAR 021A
ENCODING 538
SWIDTH 680 0
DWIDTH 17 0
BBX 14 27 2 -8
BITMAP
B5AC
FFFC
4A50
B5AC
0200
0580
0780
0200
0580
0200
0580
0780
0200
0580
0200
0580
0780
0200
0580
0000
0580
0780
0200
0580
0200
0400
0400
ENDCHAR
STARTCHAR 021B
ENCODING 539
SWIDTH 680 0
DWIDTH 17 0
BBX 14 27 2 -8
BITMAP
B5AC
FFFC
4A50
B5AC
0200
0580
0780
0200
0580
0200
0580
0780
0200
0580
0200
0580
0780
0200
0580
0000
0580
0780
0200
0580
0200
0400
0400
ENDCHAR
STARTCHAR 02BC
ENCODING 700
SWIDTH 200 0
DWIDTH 5 0
BBX 3 7 1 12
BITMAP
A0
E0
40
A0
40
80
80
ENDCHAR
STARTCHAR 02C6
ENCODING 710
SWIDTH 400 0
DWIDTH 10 0
BBX 8 6 1 20
BITMAP
24
5A
A5
E7
42
A5
ENDCHAR
STARTCHAR 02C7
ENCODING 711
SWIDTH 400 0
DWIDTH 10 0
BBX 8 6 1 20
BITMAP
A5
42
A5
FF
5A
24
ENDCHAR
STARTCHAR 02D8
ENCODING 728
SWIDTH 480 0
DWIDTH 12 0
BBX 11 6 1 20
BITMAP
A120
40C0
A520
FFE0
5AC0
2500
ENDCHAR
STARTCHAR 02D9
ENCODING 729
SWIDTH 200 0
DWIDTH 5 0
BBX 3 4 1 20
BITMAP
A0
E0
40
A0
ENDCHAR
STARTCHAR 02DA
ENCODING 730
SWIDTH 480 0
DWIDTH 12 0
BBX 11 11 1 20
BITMAP
2500
5AC0
A520
E5E0
40C0
A120
40C0
A520
FFE0
5AC0
2500
ENDCHAR
STARTCHAR 02DB
ENCODING 731
SWIDTH 240 0
DWIDTH 6 0
BBX 6 5 2 -5
BITMAP
40
B4
FC
48
34
ENDCHAR
STARTCHAR 02DC
ENCODING 732
SWIDTH 600 0
DWIDTH 15 0
BBX 13 6 1 20
BITMAP
2428
5A10
A528
E7F8
42D0
A120
ENDCHAR
STARTCHAR 02DD
ENCODING 733
SWIDTH 640 0
DWIDTH 16 0
BBX 16 6 1 20
BITMAP
0509
1A16
2428
7CF8
58D0
A120
ENDCHAR
STARTCHAR 0300
ENCODING 768
SWIDTH 0 0
DWIDTH 0 0
BBX 9 6 -11 20
BITMAP
D000
2800
1600
1F00
0900
0680
ENDCHAR
STARTCHAR 0301
ENCODING 769
SWIDTH 0 0
DWIDTH 0 0
BBX 9 6 -8 20
BITMAP
0580
0A00
3400
7C00
4800
B000
ENDCHAR
STARTCHAR 0302
ENCODING 770
SWIDTH 0 0
DWIDTH 0 0
BBX 8 6 -9 20
BITMAP
24
5A
A5
E7
42
A5
ENDCHAR
STARTCHAR 0303
ENCODING 771
SWIDTH 0 0
DWIDTH 0 0
BBX 13 6 -14 20
BITMAP
2428
5A10
A528
E7F8
42D0
A120
ENDCHAR
STARTCHAR 0304
ENCODING 772
SWIDTH 0 0
DWIDTH 0 0
BBX 8 4 -9 20
BITMAP
A5
FF
5A
A5
ENDCHAR
STARTCHAR 0306
ENCODING 774
SWIDTH 0 0
DWIDTH 0 0
BBX 11 6 -12 20
BITMAP
90A0
6040
94A0
FFE0
6B40
1480
ENDCHAR
STARTCHAR 0307
ENCODING 775
SWIDTH 0 0
DWIDTH 0 0
BBX 3 4 -4 20
BITMAP
A0
E0
40
A0
ENDCHAR
STARTCHAR 0308
ENCODING 776
SWIDTH 0 0
DWIDTH 0 0
BBX 8 4 -9 20
BITMAP
A5
E7
42
A5
ENDCHAR
STARTCHAR 0309
ENCODING 777
SWIDTH 0 0
DWIDTH 0 0
BBX 8 9 -9 20
BITMAP
A4
FE
5A
A5
02
25
3F
1A
24
ENDCHAR
STARTCHAR 030A
ENCODING 778
SWIDTH 0 0
DWIDTH 0 0
BBX 11 11 -12 20
BITMAP
1480
6B40
94A0
F4E0
6040
90A0
6040
94A0
FFE0
6B40
1480
ENDCHAR
STARTCHAR 030B
ENCODING 779
SWIDTH 0 0
DWIDTH 0 0
BBX 17 6 -16 20
BITMAP
068580
090A00
163400
3E7C00
284800
D0B000
ENDCHAR
STARTCHAR 030C
ENCODING 780
SWIDTH 0 0
DWIDTH 0 0
BBX 8 6 -9 20
BITMAP
A5
42
A5
FF
5A
24
ENDCHAR
STARTCHAR 031B
ENCODING 795
SWIDTH 0 0
DWIDTH 0 0
BBX 8 6 -9 15
BITMAP
05
02
A5
FF
5A
A4
ENDCHAR
STARTCHAR 0323
ENCODING 803
SWIDTH 0 0
DWIDTH 0 0
BBX 3 4 -4 -5
BITMAP
A0
E0
40
A0
ENDCHAR
STARTCHAR 0326
ENCODING 806
SWIDTH 0 0
DWIDTH 0 0
BBX 3 7 -4 -8
BITMAP
A0
E0
40
A0
40
80
80
ENDCHAR
STARTCHAR 0327
ENCODING 807
SWIDTH 0 0
DWIDTH 0 0
BBX 6 5 -7 -5
BITMAP
08
94
FC
68
90
ENDCHAR
STARTCHAR 0328
ENCODING 808
SWIDTH 0 0
DWIDTH 0 0
BBX 6 5 -4 -5
BITMAP
40
A4
FC
58
24
ENDCHAR
STARTCHAR 0335
ENCODING 821
SWIDTH 0 0
DWIDTH 0 0
BBX 9 4 -11 7
BITMAP
D680
2900
D680
D680
ENDCHAR
STARTCHAR 0336
ENCODING 822
SWIDTH 0 0
DWIDTH 0 0
BBX 21 4 -22 12
BITMAP
94A528
6B5AD0
94A528
94A528
ENDCHAR
STARTCHAR 0337
ENCODING 823
SWIDTH 0 0
DWIDTH 0 0
BBX 9 4 -11 7
BITMAP
D680
2900
D680
D680
ENDCHAR
STARTCHAR 0338
ENCODING 824
SWIDTH 0 0
DWIDTH 0 0
BBX 8 19 -9 0
BITMAP
05
07
02
05
1A
04
1E
1A
24
18
24
7C
58
20
58
A0
E0
40
A0
ENDCHAR
STARTCHAR 0401
ENCODING 1025
SWIDTH 680 0
DWIDTH 17 0
BBX 14 24 2 0
BITMAP
35A0
3DE0
0840
35A0
0000
05AC
0FFC
0A50
35AC
4800
B000
F000
4000
B5A0
4A40
B5A0
F5A0
4000
B000
4800
35AC
3FFC
0A50
05AC
ENDCHAR
STARTCHAR 0410
ENCODING 1040
SWIDTH 680 0
DWIDTH 17 0
BBX 14 19 2 0
BITMAP
0580
0FC0
0A40
35A0
4850
B02C
F03C
4010
B02C
4010
B5AC
FFFC
4A50
B5AC
4010
B02C
F03C
4010
B02C
ENDCHAR
STARTCHAR 0411
ENCODING 1041
SWIDTH 680 0
DWIDTH 17 0
BBX 14 19 2 0
BITMAP
B5AC
FFFC
4A50
B5AC
4000
B000
F000
4000
B5A0
4A50
B5AC
F5BC
4010
B02C
4010
B5AC
FFFC
4A50
35A0
ENDCHAR
STARTCHAR 0412
ENCODING 1042
SWIDTH 680 0
DWIDTH 17 0
BBX 14 19 2 0
BITMAP
B5A0
FFF0
4A50
B5AC
4010
B02C
F07C
4050
B5A0
4A50
B5AC
F5BC
4010
B02C
4010
B5AC
FFFC
4A50
B5A0
ENDCHAR
STARTCHAR 0413
ENCODING 1043
SWIDTH 680 0
DWIDTH 17 0
BBX 14 19 2 0
BITMAP
35AC
7FFC
4A50
B5AC
4000
B000
F000
4000
B000
4000
B000
F000
4000
B000
4000
B000
F000
4000
B000
ENDCHAR
STARTCHAR 0414
ENCODING 1044
SWIDTH 800 0
DWIDTH 20 0
BBX 18 22 1 -3
BITMAP
052900
1FFF00
1AD600
252900
180600
240900
3C0F00
180600
240900
180600
240900
3C0F00
180600
240900
180600
252900
7FFF80
5AD680
A52940
400080
A00140
A00140
ENDCHAR
STARTCHAR 0415
ENCODING 1045
SWIDTH 680 0
DWIDTH 17 0
BBX 14 19 2 0
BITMAP
05AC
0FFC
0A50
35AC
4800
B000
F000
4000
B5A0
4A40
B5A0
F5A0
4000
B000
4800
35AC
3FFC
0A50
05AC
ENDCHAR
STARTCHAR 0416
ENCODING 1046
SWIDTH 1080 0
DWIDTH 27 0
BBX 24 19 2 0
BITMAP
B02C0B
F03C0F
401004
B02C0B
481014
342C68
3E3CF8
0A1090
05AD60
025280
05AD60
0FBDF0
0A1090
342C68
481014
B02C0B
F03C0F
401004
B02C0B
ENDCHAR
STARTCHAR 0417
ENCODING 1047
SWIDTH 800 0
DWIDTH 20 0
BBX 16 19 2 0
BITMAP
05A0
0FF0
0A50
35AC
4812
B00D
B01F
0012
05AC
0250
05AC
05BE
0012
B00D
4812
35AC
3FFC
0A50
05A0
ENDCHAR
STARTCHAR 0418
ENCODING 1048
SWIDTH 800 0
DWIDTH 20 0
BBX 16 19 2 0
BITMAP
B00D
F00F
4002
B00D
4002
B00D
F01F
4012
B02D
4052
B1AD
F3EF
4242
B58D
4A02
B40D
FC0F
4802
B00D
ENDCHAR
STARTCHAR 0419
ENCODING 1049
SWIDTH 800 0
DWIDTH 20 0
BBX 16 26 2 0
BITMAP
342C
0810
35AC
3FFC
0A50
05A0
0000
B00D
F00F
4002
B00D
4002
B00D
F01F
4012
B02D
4052
B1AD
F3EF
4242
B58D
4A02
B40D
FC0F
4802
B00D
ENDCHAR
STARTCHAR 041A
ENCODING 1050
SWIDTH 680 0
DWIDTH 17 0
BBX 14 19 2 0
BITMAP
B02C
F03C
4010
B02C
4050
B1A0
F3E0
4240
B580
4A00
B580
F7C0
4240
B1A0
4050
B02C
F03C
4010
B02C
ENDCHAR
STARTCHAR 041B
ENCODING 1051
SWIDTH 800 0
DWIDTH 20 0
BBX 16 19 2 0
BITMAP
05AC
0FFE
0A52
35AD
0802
340D
3C0F
0802
340D
0802
340D
3C0F
0802
340D
0802
B40D
FC0F
4802
B00D
ENDCHAR
STARTCHAR 041C
ENCODING 1052
SWIDTH 1000 0
DWIDTH 25 0
BBX 21 19 2 0
BITMAP
B00068
F800F8
480090
B40168
4A0290
B58D68
F7DF78
425210
B1AC68
405010
B02068
F02078
400010
B00068
400010
B00068
F00078
400010
B00068
ENDCHAR
STARTCHAR 041D
ENCODING 1053
SWIDTH 800 0
DWIDTH 20 0
BBX 16 19 2 0
BITMAP
B00D
F00F
4002
B00D
4002
B00D
F00F
4002
B5AD
4A52
B5AD
F5AF
4002
B00D
4002
B00D
F00F
4002
B00D
ENDCHAR
STARTCHAR 041E
ENCODING 1054
SWIDTH 800 0
DWIDTH 20 0
BBX 16 19 2 0
BITMAP
05A0
0FF0
0A50
35AC
4812
B00D
F00F
4002
B00D
4002
B00D
F00F
4002
B00D
4812
35AC
3FFC
0A50
05A0
ENDCHAR
STARTCHAR 041F
ENCODING 1055
SWIDTH 800 0
DWIDTH 20 0
BBX 16 19 2 0
BITMAP
35AC
7FFE
4A52
B5AD
4002
B00D
F00F
4002
B00D
4002
B00D
F00F
4002
B00D
4002
B00D
F00F
4002
B00D
ENDCHAR
STARTCHAR 0420
ENCODING 1056
SWIDTH 680 0
DWIDTH 17 0
BBX 14 19 2 0
BITMAP
B580
FFC0
4A40
B5A0
4050
B02C
F03C
4010
B02C
4010
B02C
F07C
4050
B5A0
4A40
B580
F580
4000
B000
ENDCHAR
STARTCHAR 0421
ENCODING 1057
SWIDTH 800 0
DWIDTH 20 0
BBX 16 19 2 0
BITMAP
05A0
0FF0
0A50
35AC
4812
B00D
F00F
4002
B00D
4000
B000
F000
4000
B00D
4812
35AC
3FFC
0A50
05A0
ENDCHAR
STARTCHAR 0422
ENCODING 1058
SWIDTH 680 0
DWIDTH 17 0
BBX 14 19 2 0
BITMAP
B5AC
FFFC
4A50
B5AC
0200
0580
0780
0200
0580
0200
0580
0780
0200
0580
0200
0580
0780
0200
0580
ENDCHAR
STARTCHAR 0423
ENCODING 1059
SWIDTH 680 0
DWIDTH 17 0
BBX 14 19 2 0
BITMAP
B02C
F03C
4010
B02C
4010
B02C
F83C
4810
35AC
0A50
05AC
05BC
0010
002C
0010
B5AC
FFFC
4A50
B5A0
ENDCHAR
STARTCHAR 0424
ENCODING 1060
SWIDTH 880 0
DWIDTH 22 0
BBX 19 24 2 -3
BITMAP
01A000
004000
05AC00
0FFE00
0A5200
35AD00
484280
B1A160
F1E1E0
404080
B1A160
404080
B1A160
F1E1E0
404080
B1A160
484280
35AD00
3FFF00
0A5200
05AC00
004000
01A000
01A000
ENDCHAR
STARTCHAR 0425
ENCODING 1061
SWIDTH 800 0
DWIDTH 20 0
BBX 16 19 2 0
BITMAP
B00D
F00F
4002
B00D
4002
B00D
F81F
4812
35AC
0A50
35AC
7DBE
4812
B00D
4002
B00D
F00F
4002
B00D
ENDCHAR
STARTCHAR 0426
ENCODING 1062
SWIDTH 840 0
DWIDTH 21 0
BBX 19 22 2 -3
BITMAP
B00D00
F00F00
400200
B00D00
400200
B00D00
F00F00
400200
B00D00
400200
B00D00
F00F00
400200
B00D00
400200
B5AD00
FFFF80
4A5280
35AD60
000080
000160
000160
ENDCHAR
STARTCHAR 0427
ENCODING 1063
SWIDTH 680 0
DWIDTH 17 0
BBX 14 19 2 0
BITMAP
B02C
F03C
4010
B02C
4010
B02C
F83C
4810
35AC
0A50
05AC
05BC
0010
002C
0010
002C
003C
0010
002C
ENDCHAR
STARTCHAR 0428
ENCODING 1064
SWIDTH 1080 0
DWIDTH 27 0
BBX 24 19 2 0
BITMAP
B02C0B
F03C0F
401004
B02C0B
401004
B02C0B
F03C0F
401004
B02C0B
401004
B02C0B
F03C0F
401004
B02C0B
401004
B5AD6B
FFFFFF
4A5294
35AD68
ENDCHAR
STARTCHAR 0429
ENCODING 1065
SWIDTH 1120 0
DWIDTH 28 0
BBX 26 22 2 -3
BITMAP
B02C0B00
F03C0F00
40100400
B02C0B00
40100400
B02C0B00
F03C0F00
40100400
B02C0B00
40100400
B02C0B00
F03C0F00
40100400
B02C0B00
40100400
B5AD6B00
FFFFFF80
4A529480
35AD6B40
00000080
00000340
00000340
ENDCHAR
STARTCHAR 042A
ENCODING 1066
SWIDTH 800 0
DWIDTH 20 0
BBX 16 19 2 0
BITMAP
B400
FC00
4800
B400
0800
3400
3C00
0800
35AC
0A52
35AD
3DAF
0802
340D
0802
35AD
3FFF
0A52
05AC
ENDCHAR
STARTCHAR 042B
ENCODING 1067
SWIDTH 920 0
DWIDTH 23 0
BBX 20 19 2 0
BITMAP
B00090
F000F0
400060
B00090
400060
B00090
F000F0
400060
B5A090
4A5060
B5AC90
F5BCF0
401060
B02C90
401060
B5AC90
FFFCF0
4A5060
35A090
ENDCHAR
STARTCHAR 042C
ENCODING 1068
SWIDTH 680 0
DWIDTH 17 0
BBX 14 19 2 0
BITMAP
B000
F000
4000
B000
4000
B000
F000
4000
B5A0
4A50
B5AC
F5BC
4010
B02C
4010
B5AC
FFFC
4A50
35A0
ENDCHAR
STARTCHAR 042D
ENCODING 1069
SWIDTH 800 0
DWIDTH 20 0
BBX 16 19 2 0
BITMAP
05A0
0FF0
0A50
35AC
4812
B00D
B00F
0002
05AD
0252
05AD
05AF
0002
B00D
4812
35AC
3FFC
0A50
05A0
ENDCHAR
STARTCHAR 042E
ENCODING 1070
SWIDTH 1080 0
DWIDTH 27 0
BBX 24 19 2 0
BITMAP
B00D60
F01FF0
401290
B02D68
405014
B1A00B
F1E00F
404004
B5A00B
4A4004
B5A00B
F5E00F
404004
B1A00B
405014
B02D68
F03FF8
401290
B00D60
ENDCHAR
STARTCHAR 042F
ENCODING 1071
SWIDTH 680 0
DWIDTH 17 0
BBX 14 19 2 0
BITMAP
05AC
0FFC
0A50
35AC
4810
B02C
F03C
4010
B02C
4010
B02C
F83C
4810
35AC
0A50
35AC
7DBC
4810
B02C
ENDCHAR
STARTCHAR 0430
ENCODING 1072
SWIDTH 680 0
DWIDTH 17 0
BBX 14 19 2 0
BITMAP
35A0
7FF0
4A50
B5AC
4010
B02C
F03C
4010
B02C
4010
B5AC
FFFC
4A50
B5AC
4010
B02C
F03C
4010
B02C
ENDCHAR
STARTCHAR 0431
ENCODING 1073
SWIDTH 680 0
DWIDTH 17 0
BBX 14 19 2 0
BITMAP
B5AC
FFFC
4A50
B5AC
4000
B000
F000
4000
B5A0
4A50
B5AC
F5BC
4010
B02C
4010
B5AC
FFFC
4A50
35A0
ENDCHAR
STARTCHAR 0432
ENCODING 1074
SWIDTH 680 0
DWIDTH 17 0
BBX 14 19 2 0
BITMAP
B5A0
FFF0
4A50
B5AC
4010
B02C
F07C
4050
B5A0
4A40
B5A0
F5F0
4050
B02C
4010
B5AC
FFFC
4A50
B5A0
ENDCHAR
STARTCHAR 0433
ENCODING 1075
SWIDTH 600 0
DWIDTH 15 0
BBX 11 19 2 0
BITMAP
35A0
7FE0
4A40
B5A0
4000
B000
F000
4000
B000
4000
B000
F000
4000
B000
4000
B000
F000
4000
B000
ENDCHAR
STARTCHAR 0434
ENCODING 1076
SWIDTH 800 0
DWIDTH 20 0
BBX 18 22 1 -3
BITMAP
052900
1FFF00
1AD600
252900
180600
240900
3C0F00
180600
240900
180600
240900
3C0F00
180600
240900
180600
252900
7FFF80
5AD680
A52940
400080
A00140
A00140
ENDCHAR
STARTCHAR 0435
ENCODING 1077
SWIDTH 680 0
DWIDTH 17 0
BBX 14 19 2 0
BITMAP
35AC
7FFC
4A50
B5AC
4000
B000
F000
4000
B5A0
4A40
B5A0
F5A0
4000
B000
4000
B5AC
FFFC
4A50
35AC
ENDCHAR
STARTCHAR 0436
ENCODING 1078
SWIDTH 1080 0
DWIDTH 27 0
BBX 24 19 2 0
BITMAP
B02C0B
F03C0F
401004
B02C0B
401004
B02C0B
F83C1F
481014
35AD68
0A5290
35AD68
7DBD7C
481014
B02C0B
401004
B02C0B
F03C0F
401004
B02C0B
ENDCHAR
STARTCHAR 0437
ENCODING 1079
SWIDTH 680 0
DWIDTH 17 0
BBX 14 19 2 0
BITMAP
35A0
7FF0
4A50
B5AC
4010
B02C
B07C
0050
05A0
0240
05A0
05F0
0050
B02C
4010
B5AC
FFFC
4A50
35A0
ENDCHAR
STARTCHAR 0438
ENCODING 1080
SWIDTH 680 0
DWIDTH 17 0
BBX 14 19 2 0
BITMAP
B02C
F03C
4010
B02C
4010
B02C
F03C
4010
B02C
4050
B1AC
F3FC
4250
B5AC
4A10
B42C
FC3C
4810
B02C
ENDCHAR
STARTCHAR 0439
ENCODING 1081
SWIDTH 680 0
DWIDTH 17 0
BBX 14 26 2 0
BITMAP
4850
3020
4A50
7FF0
35A0
0A40
0000
B02C
F03C
4010
B02C
4010
B02C
F03C
4010
B02C
4050
B1AC
F3FC
4250
B5AC
4A10
B42C
FC3C
4810
B02C
ENDCHAR
STARTCHAR 043A
ENCODING 1082
SWIDTH 680 0
DWIDTH 17 0
BBX 14 19 2 0
BITMAP
B02C
F03C
4010
B02C
4010
B02C
F07C
4050
B5A0
4A40
B5A0
F5F0
4050
B02C
4010
B02C
F03C
4010
B02C
ENDCHAR
STARTCHAR 043B
ENCODING 1083
SWIDTH 800 0
DWIDTH 20 0
BBX 16 19 2 0
BITMAP
05AC
0FFE
0A52
35AD
0802
340D
3C0F
0802
340D
0802
340D
3C0F
0802
340D
0802
B40D
FC0F
4802
B00D
ENDCHAR
STARTCHAR 043C
ENCODING 1084
SWIDTH 880 0
DWIDTH 22 0
BBX 19 19 2 0
BITMAP
B00160
F803E0
480280
B40D60
4A1280
B5AD60
F7FDE0
425080
B1A160
404080
B00160
F001E0
400080
B00160
400080
B00160
F001E0
400080
B00160
ENDCHAR
STARTCHAR 043D
ENCODING 1085
SWIDTH 680 0
DWIDTH 17 0
BBX 14 19 2 0
BITMAP
B02C
F03C
4010
B02C
4010
B02C
F03C
4010
B5AC
4A50
B5AC
F5BC
4010
B02C
4010
B02C
F03C
4010
B02C
ENDCHAR
STARTCHAR 043E
ENCODING 1086
SWIDTH 680 0
DWIDTH 17 0
BBX 14 19 2 0
BITMAP
35A0
7FF0
4A50
B5AC
4010
B02C
F03C
4010
B02C
4010
B02C
F03C
4010
B02C
4010
B5AC
FFFC
4A50
35A0
ENDCHAR
STARTCHAR 043F
ENCODING 1087
SWIDTH 680 0
DWIDTH 17 0
BBX 14 19 2 0
BITMAP
35A0
7FF0
4A50
B5AC
4010
B02C
F03C
4010
B02C
4010
B02C
F03C
4010
B02C
4010
B02C
F03C
4010
B02C
ENDCHAR
STARTCHAR 0440
ENCODING 1088
SWIDTH 680 0
DWIDTH 17 0
BBX 14 19 2 0
BITMAP
B5A0
FFF0
4A50
B5AC
4010
B02C
F03C
4010
B02C
4010
B5AC
FFFC
4A50
B5A0
4000
B000
F000
4000
B000
ENDCHAR
STARTCHAR 0441
ENCODING 1089
SWIDTH 680 0
DWIDTH 17 0
BBX 14 19 2 0
BITMAP
35A0
7FF0
4A50
B5AC
4010
B02C
F03C
4010
B02C
4000
B000
F000
4000
B02C
4010
B5AC
FFFC
4A50
35A0
ENDCHAR
STARTCHAR 0442
ENCODING 1090
SWIDTH 680 0
DWIDTH 17 0
BBX 14 19 2 0
BITMAP
B5AC
FFFC
4A50
B5AC
0200
0580
0780
0200
0580
0200
0580
0780
0200
0580
0200
0580
0780
0200
0580
ENDCHAR
STARTCHAR 0443
ENCODING 1091
SWIDTH 680 0
DWIDTH 17 0
BBX 14 19 2 0
BITMAP
B02C
F03C
4010
B02C
4010
B02C
F03C
4010
B5AC
4A50
35AC
35BC
0010
002C
0010
B5AC
FFFC
4A50
B5A0
ENDCHAR
STARTCHAR 0444
ENCODING 1092
SWIDTH 880 0
DWIDTH 22 0
BBX 19 24 2 -3
BITMAP
01A000
004000
35AD00
7FFF80
4A5280
B5AD60
404080
B1A160
F1E1E0
404080
B1A160
404080
B1A160
F1E1E0
404080
B1A160
404080
B5AD60
FFFFE0
4A5280
35AD00
004000
01A000
01A000
ENDCHAR
STARTCHAR 0445
ENCODING 1093
SWIDTH 680 0
DWIDTH 17 0
BBX 14 19 2 0
BITMAP
B02C
F03C
4010
B02C
4010
B02C
F87C
4850
35A0
0A40
35A0
7DF0
4850
B02C
4010
B02C
F03C
4010
B02C
ENDCHAR
STARTCHAR 0446
ENCODING 1094
SWIDTH 720 0
DWIDTH 18 0
BBX 16 22 2 -3
BITMAP
B02C
F03C
4010
B02C
4010
B02C
F03C
4010
B02C
4010
B02C
F03C
4010
B02C
4010
B5AC
FFFE
4A52
35AD
0002
000D
000D
ENDCHAR
STARTCHAR 0447
ENCODING 1095
SWIDTH 680 0
DWIDTH 17 0
BBX 14 19 2 0
BITMAP
B02C
F03C
4010
B02C
4010
B02C
F03C
4010
B5AC
4A50
35AC
35BC
0010
002C
0010
002C
003C
0010
002C
ENDCHAR
STARTCHAR 0448
ENCODING 1096
SWIDTH 880 0
DWIDTH 22 0
BBX 19 19 2 0
BITMAP
B1A160
F1E1E0
404080
B1A160
404080
B1A160
F1E1E0
404080
B1A160
404080
B1A160
F1E1E0
404080
B1A160
404080
B5AD60
FFFFE0
4A5280
35AD00
ENDCHAR
STARTCHAR 0449
ENCODING 1097
SWIDTH 920 0
DWIDTH 23 0
BBX 21 22 2 -3
BITMAP
B1A160
F1E1E0
404080
B1A160
404080
B1A160
F1E1E0
404080
B1A160
404080
B1A160
F1E1E0
404080
B1A160
404080
B5AD60
FFFFF0
4A5290
35AD68
000010
000068
000068
ENDCHAR
STARTCHAR 044A
ENCODING 1098
SWIDTH 800 0
DWIDTH 20 0
BBX 16 19 2 0
BITMAP
B400
FC00
4800
B400
0800
3400
3C00
0800
35AC
0A52
35AD
3DAF
0802
340D
0802
35AD
3FFF
0A52
05AC
ENDCHAR
STARTCHAR 044B
ENCODING 1099
SWIDTH 920 0
DWIDTH 23 0
BBX 20 19 2 0
BITMAP
B00090
F000F0
400060
B00090
400060
B00090
F000F0
400060
B5A090
4A5060
B5AC90
F5BCF0
401060
B02C90
401060
B5AC90
FFFCF0
4A5060
35A090
ENDCHAR
STARTCHAR 044C
ENCODING 1100
SWIDTH 680 0
DWIDTH 17 0
BBX 14 19 2 0
BITMAP
B000
F000
4000
B000
4000
B000
F000
4000
B5A0
4A50
B5AC
F5BC
4010
B02C
4010
B5AC
FFFC
4A50
35A0
ENDCHAR
STARTCHAR 044D
ENCODING 1101
SWIDTH 800 0
DWIDTH 20 0
BBX 16 19 2 0
BITMAP
35AC
7FFE
4A52
B5AD
4002
B00D
B00F
0002
05AD
0252
05AD
05AF
0002
B00D
4002
B5AD
FFFF
4A52
35AC
ENDCHAR
STARTCHAR 044E
ENCODING 1102
SWIDTH 1000 0
DWIDTH 25 0
BBX 21 19 2 0
BITMAP
B02D60
F07FF0
405290
B1AD68
404010
B1A068
F1E078
404010
B5A068
4A4010
B5A068
F5E078
404010
B1A068
404010
B1AD68
F1FFF8
405290
B02D60
ENDCHAR
STARTCHAR 044F
ENCODING 1103
SWIDTH 680 0
DWIDTH 17 0
BBX 14 19 2 0
BITMAP
35AC
7FFC
4A50
B5AC
4010
B02C
F03C
4010
B02C
4010
B5AC
FFFC
4A50
35AC
4810
B02C
F03C
4010
B02C
ENDCHAR
STARTCHAR 0451
ENCODING 1105
SWIDTH 680 0
DWIDTH 17 0
BBX 14 24 2 0
BITMAP
35A0
3DE0
0840
35A0
0000
35AC
7FFC
4A50
B5AC
4000
B000
F000
4000
B5A0
4A40
B5A0
F5A0
4000
B000
4000
B5AC
FFFC
4A50
35AC
ENDCHAR
STARTCHAR 1E80
ENCODING 7808
SWIDTH 1080 0
DWIDTH 27 0
BBX 24 26 2 0
BITMAP
058000
024000
01A000
01F000
005000
002C00
000000
B02C0B
F03C0F
401004
B02C0B
401004
B02C0B
F03C0F
401004
B02C0B
401004
B02C0B
F03C0F
401004
B02C0B
485214
35AD68
3FEFF8
0A4290
058160
ENDCHAR
STARTCHAR 1E81
ENCODING 7809
SWIDTH 1080 0
DWIDTH 27 0
BBX 24 26 2 0
BITMAP
058000
024000
01A000
01F000
005000
002C00
000000
B02C0B
F03C0F
401004
B02C0B
401004
B02C0B
F03C0F
401004
B02C0B
401004
B02C0B
F03C0F
401004
B02C0B
405204
B5AD6B
FFEFFF
4A4294
358168
ENDCHAR
STARTCHAR 1E82
ENCODING 7810
SWIDTH 1080 0
DWIDTH 27 0
BBX 24 26 2 0
BITMAP
000280
000D00
001200
003E00
002C00
005000
000000
B02C0B
F03C0F
401004
B02C0B
401004
B02C0B
F03C0F
401004
B02C0B
401004
B02C0B
F03C0F
401004
B02C0B
485214
35AD68
3FEFF8
0A4290
058160
ENDCHAR
STARTCHAR 1E83
ENCODING 7811
SWIDTH 1080 0
DWIDTH 27 0
BBX 24 26 2 0
BITMAP
000280
000D00
001200
003E00
002C00
005000
000000
B02C0B
F03C0F
401004
B02C0B
401004
B02C0B
F03C0F
401004
B02C0B
401004
B02C0B
F03C0F
401004
B02C0B
405204
B5AD6B
FFEFFF
4A4294
358168
ENDCHAR
STARTCHAR 1E84
ENCODING 7812
SWIDTH 1080 0
DWIDTH 27 0
BBX 24 24 2 0
BITMAP
01AD00
01EF00
004200
01AD00
000000
B02C0B
F03C0F
401004
B02C0B
401004
B02C0B
F03C0F
401004
B02C0B
401004
B02C0B
F03C0F
401004
B02C0B
485214
35AD68
3FEFF8
0A4290
058160
ENDCHAR
STARTCHAR 1E85
ENCODING 7813
SWIDTH 1080 0
DWIDTH 27 0
BBX 24 24 2 0
BITMAP
01AD00
01EF00
004200
01AD00
000000
B02C0B
F03C0F
401004
B02C0B
401004
B02C0B
F03C0F
401004
B02C0B
401004
B02C0B
F03C0F
401004
B02C0B
405204
B5AD6B
FFEFFF
4A4294
358168
ENDCHAR
STARTCHAR 1E9E
ENCODING 7838
SWIDTH 680 0
DWIDTH 17 0
BBX 14 19 2 0
BITMAP
35A0
7FF0
4A50
B5AC
4010
B02C
F07C
4050
B5A0
4250
B5AC
F5BC
4010
B02C
4010
B5AC
F7FC
4250
B5A0
ENDCHAR
STARTCHAR 1EA0
ENCODING 7840
SWIDTH 680 0
DWIDTH 17 0
BBX 14 24 2 -5
BITMAP
0580
0FC0
0A40
35A0
4850
B02C
F03C
4010
B02C
4010
B5AC
FFFC
4A50
B5AC
4010
B02C
F03C
4010
B02C
0000
0580
0780
0200
0580
ENDCHAR
STARTCHAR 1EA1
ENCODING 7841
SWIDTH 680 0
DWIDTH 17 0
BBX 14 24 2 -5
BITMAP
35A0
7FF0
4A50
B5AC
4010
B02C
F03C
4010
B02C
4010
B5AC
FFFC
4A50
B5AC
4010
B02C
F03C
4010
B02C
0000
0580
0780
0200
0580
ENDCHAR
STARTCHAR 1EA2
ENCODING 7842
SWIDTH 680 0
DWIDTH 17 0
BBX 14 29 2 0
BITMAP
3580
3FC0
0A40
35A0
0040
05A0
07E0
0240
0580
0000
0580
0FC0
0A40
35A0
4850
B02C
F03C
4010
B02C
4010
B5AC
FFFC
4A50
B5AC
4010
B02C
F03C
4010
B02C
ENDCHAR
STARTCHAR 1EA3
ENCODING 7843
SWIDTH 680 0
DWIDTH 17 0
BBX 14 29 2 0
BITMAP
3580
3FC0
0A40
35A0
0040
05A0
07E0
0240
0580
0000
35A0
7FF0
4A50
B5AC
4010
B02C
F03C
4010
B02C
4010
B5AC
FFFC
4A50
B5AC
4010
B02C
F03C
4010
B02C
ENDCHAR
STARTCHAR 1EA4
ENCODING 7844
SWIDTH 680 0
DWIDTH 17 0
BBX 14 34 2 0
BITMAP
0050
01F0
01A0
0240
0580
0A00
0A00
0000
0580
0A40
35A0
3DE0
0840
35A0
0000
0580
0FC0
0A40
35A0
4850
B02C
F03C
4010
B02C
4010
B5AC
FFFC
4A50
B5AC
4010
B02C
F03C
4010
B02C
ENDCHAR
STARTCHAR 1EA5
ENCODING 7845
SWIDTH 680 0
DWIDTH 17 0
BBX 14 34 2 0
BITMAP
0050
01F0
01A0
0240
0580
0A00
0A00
0000
0580
0A40
35A0
3DE0
0840
35A0
0000
35A0
7FF0
4A50
B5AC
4010
B02C
F03C
4010
B02C
4010
B5AC
FFFC
4A50
B5AC
4010
B02C
F03C
4010
B02C
ENDCHAR
STARTCHAR 1EA6
ENCODING 7846
SWIDTH 680 0
DWIDTH 17 0
BBX 14 34 2 0
BITMAP
B000
F800
4800
3400
0A00
0580
0580
0000
0580
0A40
35A0
3DE0
0840
35A0
0000
0580
0FC0
0A40
35A0
4850
B02C
F03C
4010
B02C
4010
B5AC
FFFC
4A50
B5AC
4010
B02C
F03C
4010
B02C
ENDCHAR
STARTCHAR 1EA7
ENCODING 7847
SWIDTH 680 0
DWIDTH 17 0
BBX 14 34 2 0
BITMAP
B000
F800
4800
3400
0A00
0580
0580
0000
0580
0A40
35A0
3DE0
0840
35A0
0000
35A0
7FF0
4A50
B5AC
4010
B02C
F03C
4010
B02C
4010
B5AC
FFFC
4A50
B5AC
4010
B02C
F03C
4010
B02C
ENDCHAR
STARTCHAR 1EA8
ENCODING 7848
SWIDTH 680 0
DWIDTH 17 0
BBX 14 36 2 0
BITMAP
3580
0A40
35A0
35E0
0040
05A0
0240
0580
0580
0000
0580
0A40
35A0
3DE0
0840
35A0
0000
0580
0FC0
0A40
35A0
4850
B02C
F03C
4010
B02C
4010
B5AC
FFFC
4A50
B5AC
4010
B02C
F03C
4010
B02C
ENDCHAR
STARTCHAR 1EA9
ENCODING 7849
SWIDTH 680 0
DWIDTH 17 0
BBX 14 36 2 0
BITMAP
3580
0A40
35A0
35E0
0040
05A0
0240
0580
0580
0000
0580
0A40
35A0
3DE0
0840
35A0
0000
35A0
7FF0
4A50
B5AC
4010
B02C
F03C
4010
B02C
4010
B5AC
FFFC
4A50
B5AC
4010
B02C
F03C
4010
B02C
ENDCHAR
STARTCHAR 1EAA
ENCODING 7850
SWIDTH 680 0
DWIDTH 17 0
BBX 14 34 2 0
BITMAP
342C
7E3C
4A10
B5AC
4250
B1A0
B1A0
0000
0580
0A40
35A0
3DE0
0840
35A0
0000
0580
0FC0
0A40
35A0
4850
B02C
F03C
4010
B02C
4010
B5AC
FFFC
4A50
B5AC
4010
B02C
F03C
4010
B02C
ENDCHAR
STARTCHAR 1EAB
ENCODING 7851
SWIDTH 680 0
DWIDTH 17 0
BBX 14 34 2 0
BITMAP
342C
7E3C
4A10
B5AC
4250
B1A0
B1A0
0000
0580
0A40
35A0
3DE0
0840
35A0
0000
35A0
7FF0
4A50
B5AC
4010
B02C
F03C
4010
B02C
4010
B5AC
FFFC
4A50
B5AC
4010
B02C
F03C
4010
B02C
ENDCHAR
STARTCHAR 1EAC
ENCODING 7852
SWIDTH 680 0
DWIDTH 17 0
BBX 14 31 2 -5
BITMAP
0580
0A40
35A0
3DE0
0840
35A0
0000
0580
0FC0
0A40
35A0
4850
B02C
F03C
4010
B02C
4010
B5AC
FFFC
4A50
B5AC
4010
B02C
F03C
4010
B02C
0000
0580
0780
0200
0580
ENDCHAR
STARTCHAR 1EAD
ENCODING 7853
SWIDTH 680 0
DWIDTH 17 0
BBX 14 31 2 -5
BITMAP
0580
0A40
35A0
3DE0
0840
35A0
0000
35A0
7FF0
4A50
B5AC
4010
B02C
F03C
4010
B02C
4010
B5AC
FFFC
4A50
B5AC
4010
B02C
F03C
4010
B02C
0000
0580
0780
0200
0580
ENDCHAR
STARTCHAR 1EAE
ENCODING 7854
SWIDTH 680 0
DWIDTH 17 0
BBX 14 34 2 0
BITMAP
0050
01F0
01A0
0240
0580
0A00
0A00
0000
4850
3020
4A50
7FF0
35A0
0A40
0000
0580
0FC0
0A40
35A0
4850
B02C
F03C
4010
B02C
4010
B5AC
FFFC
4A50
B5AC
4010
B02C
F03C
4010
B02C
ENDCHAR
STARTCHAR 1EAF
ENCODING 7855
SWIDTH 680 0
DWIDTH 17 0
BBX 14 34 2 0
BITMAP
0050
01F0
01A0
0240
0580
0A00
0A00
0000
4850
3020
4A50
7FF0
35A0
0A40
0000
35A0
7FF0
4A50
B5AC
4010
B02C
F03C
4010
B02C
4010
B5AC
FFFC
4A50
B5AC
4010
B02C
F03C
4010
B02C
ENDCHAR
STARTCHAR 1EB0
ENCODING 7856
SWIDTH 680 0
DWIDTH 17 0
BBX 14 34 2 0
BITMAP
A000
F800
5800
2400
1A00
0500
0500
0000
4850
3020
4A50
7FF0
35A0
0A40
0000
0580
0FC0
0A40
35A0
4850
B02C
F03C
4010
B02C
4010
B5AC
FFFC
4A50
B5AC
4010
B02C
F03C
4010
B02C
ENDCHAR
STARTCHAR 1EB1
ENCODING 7857
SWIDTH 680 0
DWIDTH 17 0
BBX 14 34 2 0
BITMAP
A000
F800
5800
2400
1A00
0500
0500
0000
4850
3020
4A50
7FF0
35A0
0A40
0000
35A0
7FF0
4A50
B5AC
4010
B02C
F03C
4010
B02C
4010
B5AC
FFFC
4A50
B5AC
4010
B02C
F03C
4010
B02C
ENDCHAR
STARTCHAR 1EB2
ENCODING 7858
SWIDTH 680 0
DWIDTH 17 0
BBX 14 36 2 0
BITMAP
3580
0A40
35A0
35E0
0040
05A0
0240
0580
0580
0000
4850
3020
4A50
7FF0
35A0
0A40
0000
0580
0FC0
0A40
35A0
4850
B02C
F03C
4010
B02C
4010
B5AC
FFFC
4A50
B5AC
4010
B02C
F03C
4010
B02C
ENDCHAR
STARTCHAR 1EB3
ENCODING 7859
SWIDTH 680 0
DWIDTH 17 0
BBX 14 36 2 0
BITMAP
3580
0A40
35A0
35E0
0040
05A0
0240
0580
0580
0000
4850
3020
4A50
7FF0
35A0
0A40
0000
35A0
7FF0
4A50
B5AC
4010
B02C
F03C
4010
B02C
4010
B5AC
FFFC
4A50
B5AC
4010
B02C
F03C
4010
B02C
ENDCHAR
STARTCHAR 1EB4
ENCODING 7860
SWIDTH 680 0
DWIDTH 17 0
BBX 14 34 2 0
BITMAP
342C
7E3C
4A10
B5AC
4250
B1A0
B1A0
0000
4850
3020
4A50
7FF0
35A0
0A40
0000
0580
0FC0
0A40
35A0
4850
B02C
F03C
4010
B02C
4010
B5AC
FFFC
4A50
B5AC
4010
B02C
F03C
4010
B02C
ENDCHAR
STARTCHAR 1EB5
ENCODING 7861
SWIDTH 680 0
DWIDTH 17 0
BBX 14 34 2 0
BITMAP
342C
7E3C
4A10
B5AC
4250
B1A0
B1A0
0000
4850
3020
4A50
7FF0
35A0
0A40
0000
35A0
7FF0
4A50
B5AC
4010
B02C
F03C
4010
B02C
4010
B5AC
FFFC
4A50
B5AC
4010
B02C
F03C
4010
B02C
ENDCHAR
STARTCHAR 1EB6
ENCODING 7862
SWIDTH 680 0
DWIDTH 17 0
BBX 14 31 2 -5
BITMAP
4850
3020
4A50
7FF0
35A0
0A40
0000
0580
0FC0
0A40
35A0
4850
B02C
F03C
4010
B02C
4010
B5AC
FFFC
4A50
B5AC
4010
B02C
F03C
4010
B02C
0000
0580
0780
0200
0580
ENDCHAR
STARTCHAR 1EB7
ENCODING 7863
SWIDTH 680 0
DWIDTH 17 0
BBX 14 31 2 -5
BITMAP
4850
3020
4A50
7FF0
35A0
0A40
0000
35A0
7FF0
4A50
B5AC
4010
B02C
F03C
4010
B02C
4010
B5AC
FFFC
4A50
B5AC
4010
B02C
F03C
4010
B02C
0000
0580
0780
0200
0580
ENDCHAR
STARTCHAR 1EB8
ENCODING 7864
SWIDTH 680 0
DWIDTH 17 0
BBX 14 24 2 -5
BITMAP
05AC
0FFC
0A50
35AC
4800
B000
F000
4000
B5A0
4A40
B5A0
F5A0
4000
B000
4800
35AC
3FFC
0A50
05AC
0000
0580
0780
0200
0580
ENDCHAR
STARTCHAR 1EB9
ENCODING 7865
SWIDTH 680 0
DWIDTH 17 0
BBX 14 24 2 -5
BITMAP
35AC
7FFC
4A50
B5AC
4000
B000
F000
4000
B5A0
4A40
B5A0
F5A0
4000
B000
4000
B5AC
FFFC
4A50
35AC
0000
0580
0780
0200
0580
ENDCHAR
STARTCHAR 1EBA
ENCODING 7866
SWIDTH 680 0
DWIDTH 17 0
BBX 14 29 2 0
BITMAP
3580
3FC0
0A40
35A0
0040
05A0
07E0
0240
0580
0000
05AC
0FFC
0A50
35AC
4800
B000
F000
4000
B5A0
4A40
B5A0
F5A0
4000
B000
4800
35AC
3FFC
0A50
05AC
ENDCHAR
STARTCHAR 1EBB
ENCODING 7867
SWIDTH 680 0
DWIDTH 17 0
BBX 14 29 2 0
BITMAP
3580
3FC0
0A40
35A0
0040
05A0
07E0
0240
0580
0000
35AC
7FFC
4A50
B5AC
4000
B000
F000
4000
B5A0
4A40
B5A0
F5A0
4000
B000
4000
B5AC
FFFC
4A50
35AC
ENDCHAR
STARTCHAR 1EBC
ENCODING 7868
SWIDTH 680 0
DWIDTH 17 0
BBX 14 26 2 0
BITMAP
342C
4A10
B5AC
F7FC
4250
B1A0
0000
05AC
0FFC
0A50
35AC
4800
B000
F000
4000
B5A0
4A40
B5A0
F5A0
4000
B000
4800
35AC
3FFC
0A50
05AC
ENDCHAR
STARTCHAR 1EBD
ENCODING 7869
SWIDTH 680 0
DWIDTH 17 0
BBX 14 26 2 0
BITMAP
342C
4A10
B5AC
F7FC
4250
B1A0
0000
35AC
7FFC
4A50
B5AC
4000
B000
F000
4000
B5A0
4A40
B5A0
F5A0
4000
B000
4000
B5AC
FFFC
4A50
35AC
ENDCHAR
STARTCHAR 1EBE
ENCODING 7870
SWIDTH 680 0
DWIDTH 17 0
BBX 14 34 2 0
BITMAP
0050
01F0
01A0
0240
0580
0A00
0A00
0000
0580
0A40
35A0
3DE0
0840
35A0
0000
05AC
0FFC
0A50
35AC
4800
B000
F000
4000
B5A0
4A40
B5A0
F5A0
4000
B000
4800
35AC
3FFC
0A50
05AC
ENDCHAR
STARTCHAR 1EBF
ENCODING 7871
SWIDTH 680 0
DWIDTH 17 0
BBX 14 34 2 0
BITMAP
0050
01F0
01A0
0240
0580
0A00
0A00
0000
0580
0A40
35A0
3DE0
0840
35A0
0000
35AC
7FFC
4A50
B5AC
4000
B000
F000
4000
B5A0
4A40
B5A0
F5A0
4000
B000
4000
B5AC
FFFC
4A50
35AC
ENDCHAR
STARTCHAR 1EC0
ENCODING 7872
SWIDTH 680 0
DWIDTH 17 0
BBX 14 34 2 0
BITMAP
B000
F800
4800
3400
0A00
0580
0580
0000
0580
0A40
35A0
3DE0
0840
35A0
0000
05AC
0FFC
0A50
35AC
4800
B000
F000
4000
B5A0
4A40
B5A0
F5A0
4000
B000
4800
35AC
3FFC
0A50
05AC
ENDCHAR
STARTCHAR 1EC1
ENCODING 7873
SWIDTH 680 0
DWIDTH 17 0
BBX 14 34 2 0
BITMAP
B000
F800
4800
3400
0A00
0580
0580
0000
0580
0A40
35A0
3DE0
0840
35A0
0000
35AC
7FFC
4A50
B5AC
4000
B000
F000
4000
B5A0
4A40
B5A0
F5A0
4000
B000
4000
B5AC
FFFC
4A50
35AC
ENDCHAR
STARTCHAR 1EC2
ENCODING 7874
SWIDTH 680 0
DWIDTH 17 0
BBX 14 36 2 0
BITMAP
3580
0A40
35A0
35E0
0040
05A0
0240
0580
0580
0000
0580
0A40
35A0
3DE0
0840
35A0
0000
05AC
0FFC
0A50
35AC
4800
B000
F000
4000
B5A0
4A40
B5A0
F5A0
4000
B000
4800
35AC
3FFC
0A50
05AC
ENDCHAR
STARTCHAR 1EC3
ENCODING 7875
SWIDTH 680 0
DWIDTH 17 0
BBX 14 36 2 0
BITMAP
3580
0A40
35A0
35E0
0040
05A0
0240
0580
0580
0000
0580
0A40
35A0
3DE0
0840
35A0
0000
35AC
7FFC
4A50
B5AC
4000
B000
F000
4000
B5A0
4A40
B5A0
F5A0
4000
B000
4000
B5AC
FFFC
4A50
35AC
ENDCHAR
STARTCHAR 1EC4
ENCODING 7876
SWIDTH 680 0
DWIDTH 17 0
BBX 14 34 2 0
BITMAP
342C
7E3C
4A10
B5AC
4250
B1A0
B1A0
0000
0580
0A40
35A0
3DE0
0840
35A0
0000
05AC
0FFC
0A50
35AC
4800
B000
F000
4000
B5A0
4A40
B5A0
F5A0
4000
B000
4800
35AC
3FFC
0A50
05AC
ENDCHAR
STARTCHAR 1EC5
ENCODING 7877
SWIDTH 680 0
DWIDTH 17 0
BBX 14 34 2 0
BITMAP
342C
7E3C
4A10
B5AC
4250
B1A0
B1A0
0000
0580
0A40
35A0
3DE0
0840
35A0
0000
35AC
7FFC
4A50
B5AC
4000
B000
F000
4000
B5A0
4A40
B5A0
F5A0
4000
B000
4000
B5AC
FFFC
4A50
35AC
ENDCHAR
STARTCHAR 1EC6
ENCODING 7878
SWIDTH 680 0
DWIDTH 17 0
BBX 14 31 2 -5
BITMAP
0580
0A40
35A0
3DE0
0840
35A0
0000
05AC
0FFC
0A50
35AC
4800
B000
F000
4000
B5A0
4A40
B5A0
F5A0
4000
B000
4800
35AC
3FFC
0A50
05AC
0000
0580
0780
0200
0580
ENDCHAR
STARTCHAR 1EC7
ENCODING 7879
SWIDTH 680 0
DWIDTH 17 0
BBX 14 31 2 -5
BITMAP
0580
0A40
35A0
3DE0
0840
35A0
0000
35AC
7FFC
4A50
B5AC
4000
B000
F000
4000
B5A0
4A40
B5A0
F5A0
4000
B000
4000
B5AC
FFFC
4A50
35AC
0000
0580
0780
0200
0580
ENDCHAR
STARTCHAR 1EC8
ENCODING 7880
SWIDTH 480 0
DWIDTH 12 0
BBX 9 29 2 0
BITMAP
B400
FE00
4A00
B580
0200
3580
3F80
0A00
3400
0000
B580
FF80
4A00
B580
0800
3400
3C00
0800
3400
0800
3400
3C00
0800
3400
0800
B580
FF80
4A00
B580
ENDCHAR
STARTCHAR 1EC9
ENCODING 7881
SWIDTH 280 0
DWIDTH 7 0
BBX 9 29 -1 0
BITMAP
D600
FF00
2900
D680
0100
1680
1F80
0900
1600
0000
1600
1E00
0800
1600
0800
1600
1E00
0800
1600
0800
1600
1E00
0800
1600
0800
1600
1E00
0800
1600
ENDCHAR
STARTCHAR 1ECA
ENCODING 7882
SWIDTH 480 0
DWIDTH 12 0
BBX 9 24 2 -5
BITMAP
B580
FF80
4A00
B580
0800
3400
3C00
0800
3400
0800
3400
3C00
0800
3400
0800
B580
FF80
4A00
B580
0000
3400
3C00
0800
3400
ENDCHAR
STARTCHAR 1ECB
ENCODING 7883
SWIDTH 280 0
DWIDTH 7 0
BBX 4 24 2 -5
BITMAP
B0
F0
40
B0
40
B0
F0
40
B0
40
B0
F0
40
B0
40
B0
F0
40
B0
00
B0
F0
40
B0
ENDCHAR
STARTCHAR 1ECC
ENCODING 7884
SWIDTH 800 0
DWIDTH 20 0
BBX 16 24 2 -5
BITMAP
05A0
0FF0
0A50
35AC
4812
B00D
F00F
4002
B00D
4002
B00D
F00F
4002
B00D
4812
35AC
3FFC
0A50
05A0
0000
0240
03C0
0180
0240
ENDCHAR
STARTCHAR 1ECD
ENCODING 7885
SWIDTH 680 0
DWIDTH 17 0
BBX 14 24 2 -5
BITMAP
35A0
7FF0
4A50
B5AC
4010
B02C
F03C
4010
B02C
4010
B02C
F03C
4010
B02C
4010
B5AC
FFFC
4A50
35A0
0000
0580
0780
0200
0580
ENDCHAR
STARTCHAR 1ECE
ENCODING 7886
SWIDTH 800 0
DWIDTH 20 0
BBX 16 29 2 0
BITMAP
0A40
0FE0
05A0
0A50
0020
0250
03F0
01A0
0240
0000
05A0
0FF0
0A50
35AC
4812
B00D
F00F
4002
B00D
4002
B00D
F00F
4002
B00D
4812
35AC
3FFC
0A50
05A0
ENDCHAR
STARTCHAR 1ECF
ENCODING 7887
SWIDTH 680 0
DWIDTH 17 0
BBX 14 29 2 0
BITMAP
3580
3FC0
0A40
35A0
0040
05A0
07E0
0240
0580
0000
35A0
7FF0
4A50
B5AC
4010
B02C
F03C
4010
B02C
4010
B02C
F03C
4010
B02C
4010
B5AC
FFFC
4A50
35A0
ENDCHAR
STARTCHAR 1ED0
ENCODING 7888
SWIDTH 800 0
DWIDTH 20 0
BBX 16 34 2 0
BITMAP
002C
007C
0050
01A0
0240
0580
0580
0000
0240
05A0
0A50
0E70
0420
0A50
0000
05A0
0FF0
0A50
35AC
4812
B00D
F00F
4002
B00D
4002
B00D
F00F
4002
B00D
4812
35AC
3FFC
0A50
05A0
ENDCHAR
STARTCHAR 1ED1
ENCODING 7889
SWIDTH 680 0
DWIDTH 17 0
BBX 14 34 2 0
BITMAP
0050
01F0
01A0
0240
0580
0A00
0A00
0000
0580
0A40
35A0
3DE0
0840
35A0
0000
35A0
7FF0
4A50
B5AC
4010
B02C
F03C
4010
B02C
4010
B02C
F03C
4010
B02C
4010
B5AC
FFFC
4A50
35A0
ENDCHAR
STARTCHAR 1ED2
ENCODING 7890
SWIDTH 800 0
DWIDTH 20 0
BBX 16 34 2 0
BITMAP
4800
7C00
3400
0A00
0580
0240
0240
0000
0240
05A0
0A50
0E70
0420
0A50
0000
05A0
0FF0
0A50
35AC
4812
B00D
F00F
4002
B00D
4002
B00D
F00F
4002
B00D
4812
35AC
3FFC
0A50
05A0
ENDCHAR
STARTCHAR 1ED3
ENCODING 7891
SWIDTH 680 0
DWIDTH 17 0
BBX 14 34 2 0
BITMAP
B000
F800
4800
3400
0A00
0580
0580
0000
0580
0A40
35A0
3DE0
0840
35A0
0000
35A0
7FF0
4A50
B5AC
4010
B02C
F03C
4010
B02C
4010
B02C
F03C
4010
B02C
4010
B5AC
FFFC
4A50
35A0
ENDCHAR
STARTCHAR 1ED4
ENCODING 7892
SWIDTH 800 0
DWIDTH 20 0
BBX 16 36 2 0
BITMAP
0A40
05A0
0A50
0A70
0020
0250
01A0
0240
0240
0000
0240
05A0
0A50
0E70
0420
0A50
0000
05A0
0FF0
0A50
35AC
4812
B00D
F00F
4002
B00D
4002
B00D
F00F
4002
B00D
4812
35AC
3FFC
0A50
05A0
ENDCHAR
STARTCHAR 1ED5
ENCODING 7893
SWIDTH 680 0
DWIDTH 17 0
BBX 14 36 2 0
BITMAP
3580
0A40
35A0
35E0
0040
05A0
0240
0580
0580
0000
0580
0A40
35A0
3DE0
0840
35A0
0000
35A0
7FF0
4A50
B5AC
4010
B02C
F03C
4010
B02C
4010
B02C
F03C
4010
B02C
4010
B5AC
FFFC
4A50
35A0
ENDCHAR
STARTCHAR 1ED6
ENCODING 7894
SWIDTH 800 0
DWIDTH 20 0
BBX 16 34 2 0
BITMAP
0A12
3F9E
358C
4A52
31AC
4850
4850
0000
0240
05A0
0A50
0E70
0420
0A50
0000
05A0
0FF0
0A50
35AC
4812
B00D
F00F
4002
B00D
4002
B00D
F00F
4002
B00D
4812
35AC
3FFC
0A50
05A0
ENDCHAR
STARTCHAR 1ED7
ENCODING 7895
SWIDTH 680 0
DWIDTH 17 0
BBX 14 34 2 0
BITMAP
342C
7E3C
4A10
B5AC
4250
B1A0
B1A0
0000
0580
0A40
35A0
3DE0
0840
35A0
0000
35A0
7FF0
4A50
B5AC
4010
B02C
F03C
4010
B02C
4010
B02C
F03C
4010
B02C
4010
B5AC
FFFC
4A50
35A0
ENDCHAR
STARTCHAR 1ED8
ENCODING 7896
SWIDTH 800 0
DWIDTH 20 0
BBX 16 31 2 -5
BITMAP
0240
05A0
0A50
0E70
0420
0A50
0000
05A0
0FF0
0A50
35AC
4812
B00D
F00F
4002
B00D
4002
B00D
F00F
4002
B00D
4812
35AC
3FFC
0A50
05A0
0000
0240
03C0
0180
0240
ENDCHAR
STARTCHAR 1ED9
ENCODING 7897
SWIDTH 680 0
DWIDTH 17 0
BBX 14 31 2 -5
BITMAP
0580
0A40
35A0
3DE0
0840
35A0
0000
35A0
7FF0
4A50
B5AC
4010
B02C
F03C
4010
B02C
4010
B02C
F03C
4010
B02C
4010
B5AC
FFFC
4A50
35A0
0000
0580
0780
0200
0580
ENDCHAR
STARTCHAR 1EDA
ENCODING 7898
SWIDTH 920 0
DWIDTH 23 0
BBX 21 26 2 0
BITMAP
002C00
005000
01A000
03E000
024000
058068
000010
35AD68
7FFFF8
4A5290
B5AD60
400200
B00D00
F00F00
400200
B00D00
400200
B00D00
F00F00
400200
B00D00
400200
B5AD00
FFFF00
4A5200
35AC00
ENDCHAR
STARTCHAR 1EDB
ENCODING 7899
SWIDTH 840 0
DWIDTH 21 0
BBX 19 26 2 0
BITMAP
005000
01A000
024000
07C000
058000
0A0160
000080
35AD60
7FFFE0
4A5280
B5AD00
401000
B02C00
F03C00
401000
B02C00
401000
B02C00
F03C00
401000
B02C00
401000
B5AC00
FFFC00
4A5000
35A000
ENDCHAR
STARTCHAR 1EDC
ENCODING 7900
SWIDTH 920 0
DWIDTH 23 0
BBX 21 26 2 0
BITMAP
480000
340000
0A0000
0F8000
058000
024068
000010
35AD68
7FFFF8
4A5290
B5AD60
400200
B00D00
F00F00
400200
B00D00
400200
B00D00
F00F00
400200
B00D00
400200
B5AD00
FFFF00
4A5200
35AC00
ENDCHAR
STARTCHAR 1EDD
ENCODING 7901
SWIDTH 840 0
DWIDTH 21 0
BBX 19 26 2 0
BITMAP
B00000
480000
340000
3E0000
0A0000
058160
000080
35AD60
7FFFE0
4A5280
B5AD00
401000
B02C00
F03C00
401000
B02C00
401000
B02C00
F03C00
401000
B02C00
401000
B5AC00
FFFC00
4A5000
35A000
ENDCHAR
STARTCHAR 1EDE
ENCODING 7902
SWIDTH 920 0
DWIDTH 23 0
BBX 21 29 2 0
BITMAP
0A4000
0FE000
05A000
0A5000
002000
025000
03F000
01A000
024068
000010
35AD68
7FFFF8
4A5290
B5AD60
400200
B00D00
F00F00
400200
B00D00
400200
B00D00
F00F00
400200
B00D00
400200
B5AD00
FFFF00
4A5200
35AC00
ENDCHAR
STARTCHAR 1EDF
ENCODING 7903
SWIDTH 840 0
DWIDTH 21 0
BBX 19 29 2 0
BITMAP
358000
3FC000
0A4000
35A000
004000
05A000
07E000
024000
058160
000080
35AD60
7FFFE0
4A5280
B5AD00
401000
B02C00
F03C00
401000
B02C00
401000
B02C00
F03C00
401000
B02C00
401000
B5AC00
FFFC00
4A5000
35A000
ENDCHAR
STARTCHAR 1EE0
ENCODING 7904
SWIDTH 920 0
DWIDTH 23 0
BBX 21 26 2 0
BITMAP
0A1200
358C00
4A5200
7BFE00
31AC00
485068
000010
35AD68
7FFFF8
4A5290
B5AD60
400200
B00D00
F00F00
400200
B00D00
400200
B00D00
F00F00
400200
B00D00
400200
B5AD00
FFFF00
4A5200
35AC00
ENDCHAR
STARTCHAR 1EE1
ENCODING 7905
SWIDTH 840 0
DWIDTH 21 0
BBX 19 26 2 0
BITMAP
342C00
4A1000
B5AC00
F7FC00
425000
B1A160
000080
35AD60
7FFFE0
4A5280
B5AD00
401000
B02C00
F03C00
401000
B02C00
401000
B02C00
F03C00
401000
B02C00
401000
B5AC00
FFFC00
4A5000
35A000
ENDCHAR
STARTCHAR 1EE2
ENCODING 7906
SWIDTH 920 0
DWIDTH 23 0
BBX 21 26 2 -5
BITMAP
000068
000010
35AD68
7FFFF8
4A5290
B5AD60
400200
B00D00
F00F00
400200
B00D00
400200
B00D00
F00F00
400200
B00D00
400200
B5AD00
FFFF00
4A5200
35AC00
000000
024000
03C000
018000
024000
ENDCHAR
STARTCHAR 1EE3
ENCODING 7907
SWIDTH 840 0
DWIDTH 21 0
BBX 19 26 2 -5
BITMAP
000160
000080
35AD60
7FFFE0
4A5280
B5AD00
401000
B02C00
F03C00
401000
B02C00
401000
B02C00
F03C00
401000
B02C00
401000
B5AC00
FFFC00
4A5000
35A000
000000
058000
078000
020000
058000
ENDCHAR
STARTCHAR 1EE4
ENCODING 7908
SWIDTH 800 0
DWIDTH 20 0
BBX 16 24 2 -5
BITMAP
B00D
F00F
4002
B00D
4002
B00D
F00F
4002
B00D
4002
B00D
F00F
4002
B00D
4812
35AC
3FFC
0A50
05A0
0000
0240
03C0
0180
0240
ENDCHAR
STARTCHAR 1EE5
ENCODING 7909
SWIDTH 680 0
DWIDTH 17 0
BBX 14 24 2 -5
BITMAP
B02C
F03C
4010
B02C
4010
B02C
F03C
4010
B02C
4010
B02C
F03C
4010
B02C
4010
B5AC
FFFC
4A50
35A0
0000
0580
0780
0200
0580
ENDCHAR
STARTCHAR 1EE6
ENCODING 7910
SWIDTH 800 0
DWIDTH 20 0
BBX 16 29 2 0
BITMAP
0A40
0FE0
05A0
0A50
0020
0250
03F0
01A0
0240
0000
B00D
F00F
4002
B00D
4002
B00D
F00F
4002
B00D
4002
B00D
F00F
4002
B00D
4812
35AC
3FFC
0A50
05A0
ENDCHAR
STARTCHAR 1EE7
ENCODING 7911
SWIDTH 680 0
DWIDTH 17 0
BBX 14 29 2 0
BITMAP
3580
3FC0
0A40
35A0
0040
05A0
07E0
0240
0580
0000
B02C
F03C
4010
B02C
4010
B02C
F03C
4010
B02C
4010
B02C
F03C
4010
B02C
4010
B5AC
FFFC
4A50
35A0
ENDCHAR
STARTCHAR 1EE8
ENCODING 7912
SWIDTH 920 0
DWIDTH 23 0
BBX 21 26 2 0
BITMAP
002C00
005000
01A000
03E000
024000
058068
000010
B00D68
F00FF8
400290
B00D60
400200
B00D00
F00F00
400200
B00D00
400200
B00D00
F00F00
400200
B00D00
481200
35AC00
3FFC00
0A5000
05A000
ENDCHAR
STARTCHAR 1EE9
ENCODING 7913
SWIDTH 840 0
DWIDTH 21 0
BBX 19 26 2 0
BITMAP
005000
01A000
024000
07C000
058000
0A0160
000080
B02D60
F03FE0
401280
B02D00
401000
B02C00
F03C00
401000
B02C00
401000
B02C00
F03C00
401000
B02C00
401000
B5AC00
FFFC00
4A5000
35A000
ENDCHAR
STARTCHAR 1EEA
ENCODING 7914
SWIDTH 920 0
DWIDTH 23 0
BBX 21 26 2 0
BITMAP
480000
340000
0A0000
0F8000
058000
024068
000010
B00D68
F00FF8
400290
B00D60
400200
B00D00
F00F00
400200
B00D00
400200
B00D00
F00F00
400200
B00D00
481200
35AC00
3FFC00
0A5000
05A000
ENDCHAR
STARTCHAR 1EEB
ENCODING 7915
SWIDTH 840 0
DWIDTH 21 0
BBX 19 26 2 0
BITMAP
B00000
480000
340000
3E0000
0A0000
058160
000080
B02D60
F03FE0
401280
B02D00
401000
B02C00
F03C00
401000
B02C00
401000
B02C00
F03C00
401000
B02C00
401000
B5AC00
FFFC00
4A5000
35A000
ENDCHAR
STARTCHAR 1EEC
ENCODING 7916
SWIDTH 920 0
DWIDTH 23 0
BBX 21 29 2 0
BITMAP
0A4000
0FE000
05A000
0A5000
002000
025000
03F000
01A000
024068
000010
B00D68
F00FF8
400290
B00D60
400200
B00D00
F00F00
400200
B00D00
400200
B00D00
F00F00
400200
B00D00
481200
35AC00
3FFC00
0A5000
05A000
ENDCHAR
STARTCHAR 1EED
ENCODING 7917
SWIDTH 840 0
DWIDTH 21 0
BBX 19 29 2 0
BITMAP
358000
3FC000
0A4000
35A000
004000
05A000
07E000
024000
058160
000080
B02D60
F03FE0
401280
B02D00
401000
B02C00
F03C00
401000
B02C00
401000
B02C00
F03C00
401000
B02C00
401000
B5AC00
FFFC00
4A5000
35A000
ENDCHAR
STARTCHAR 1EEE
ENCODING 7918
SWIDTH 920 0
DWIDTH 23 0
BBX 21 26 2 0
BITMAP
0A1200
358C00
4A5200
7BFE00
31AC00
485068
000010
B00D68
F00FF8
400290
B00D60
400200
B00D00
F00F00
400200
B00D00
400200
B00D00
F00F00
400200
B00D00
481200
35AC00
3FFC00
0A5000
05A000
ENDCHAR
STARTCHAR 1EEF
ENCODING 7919
SWIDTH 840 0
DWIDTH 21 0
BBX 19 26 2 0
BITMAP
342C00
4A1000
B5AC00
F7FC00
425000
B1A160
000080
B02D60
F03FE0
401280
B02D00
401000
B02C00
F03C00
401000
B02C00
401000
B02C00
F03C00
401000
B02C00
401000
B5AC00
FFFC00
4A5000
35A000
ENDCHAR
STARTCHAR 1EF0
ENCODING 7920
SWIDTH 920 0
DWIDTH 23 0
BBX 21 26 2 -5
BITMAP
000068
000010
B00D68
F00FF8
400290
B00D60
400200
B00D00
F00F00
400200
B00D00
400200
B00D00
F00F00
400200
B00D00
481200
35AC00
3FFC00
0A5000
05A000
000000
024000
03C000
018000
024000
ENDCHAR
STARTCHAR 1EF1
ENCODING 7921
SWIDTH 840 0
DWIDTH 21 0
BBX 19 26 2 -5
BITMAP
000160
000080
B02D60
F03FE0
401280
B02D00
401000
B02C00
F03C00
401000
B02C00
401000
B02C00
F03C00
401000
B02C00
401000
B5AC00
FFFC00
4A5000
35A000
000000
058000
078000
020000
058000
ENDCHAR
STARTCHAR 1EF2
ENCODING 7922
SWIDTH 680 0
DWIDTH 17 0
BBX 14 26 2 0
BITMAP
B000
4800
3400
3E00
0A00
0580
0000
B02C
F03C
4010
B02C
4010
B02C
F03C
4010
B02C
4850
35A0
3FE0
0A40
0580
0200
0580
0780
0200
0580
ENDCHAR
STARTCHAR 1EF3
ENCODING 7923
SWIDTH 680 0
DWIDTH 17 0
BBX 14 26 2 0
BITMAP
B000
4800
3400
3E00
0A00
0580
0000
B02C
F03C
4010
B02C
4010
B02C
F03C
4010
B02C
4010
B5AC
FFFC
4A50
35A0
0200
0580
0780
0200
0580
ENDCHAR
STARTCHAR 1EF4
ENCODING 7924
SWIDTH 680 0
DWIDTH 17 0
BBX 14 24 2 -5
BITMAP
B02C
F03C
4010
B02C
4010
B02C
F03C
4010
B02C
4850
35A0
3FE0
0A40
0580
0200
0580
0780
0200
0580
0000
0580
0780
0200
0580
ENDCHAR
STARTCHAR 1EF5
ENCODING 7925
SWIDTH 680 0
DWIDTH 17 0
BBX 14 24 2 -5
BITMAP
B02C
F03C
4010
B02C
4010
B02C
F03C
4010
B02C
4010
B5AC
FFFC
4A50
35A0
0200
0580
0780
0200
0580
0000
0580
0780
0200
0580
ENDCHAR
STARTCHAR 1EF6
ENCODING 7926
SWIDTH 680 0
DWIDTH 17 0
BBX 14 29 2 0
BITMAP
3580
3FC0
0A40
35A0
0040
05A0
07E0
0240
0580
0000
B02C
F03C
4010
B02C
4010
B02C
F03C
4010
B02C
4850
35A0
3FE0
0A40
0580
0200
0580
0780
0200
0580
ENDCHAR
STARTCHAR 1EF7
ENCODING 7927
SWIDTH 680 0
DWIDTH 17 0
BBX 14 29 2 0
BITMAP
3580
3FC0
0A40
35A0
0040
05A0
07E0
0240
0580
0000
B02C
F03C
4010
B02C
4010
B02C
F03C
4010
B02C
4010
B5AC
FFFC
4A50
35A0
0200
0580
0780
0200
0580
ENDCHAR
STARTCHAR 1EF8
ENCODING 7928
SWIDTH 680 0
DWIDTH 17 0
BBX 14 26 2 0
BITMAP
342C
4A10
B5AC
F7FC
4250
B1A0
0000
B02C
F03C
4010
B02C
4010
B02C
F03C
4010
B02C
4850
35A0
3FE0
0A40
0580
0200
0580
0780
0200
0580
ENDCHAR
STARTCHAR 1EF9
ENCODING 7929
SWIDTH 680 0
DWIDTH 17 0
BBX 14 26 2 0
BITMAP
342C
4A10
B5AC
F7FC
4250
B1A0
0000
B02C
F03C
4010
B02C
4010
B02C
F03C
4010
B02C
4010
B5AC
FFFC
4A50
35A0
0200
0580
0780
0200
0580
ENDCHAR
STARTCHAR 2013
ENCODING 8211
SWIDTH 680 0
DWIDTH 17 0
BBX 16 4 1 7
BITMAP
A529
5AD6
A529
A529
ENDCHAR
STARTCHAR 2014
ENCODING 8212
SWIDTH 1000 0
DWIDTH 25 0
BBX 23 4 1 7
BITMAP
A5294A
5AD6B4
A5294A
A5294A
ENDCHAR
STARTCHAR 2018
ENCODING 8216
SWIDTH 200 0
DWIDTH 5 0
BBX 3 6 1 15
BITMAP
20
40
A0
E0
40
A0
ENDCHAR
STARTCHAR 2019
ENCODING 8217
SWIDTH 200 0
DWIDTH 5 0
BBX 3 6 1 15
BITMAP
A0
40
A0
E0
40
80
ENDCHAR
STARTCHAR 201A
ENCODING 8218
SWIDTH 200 0
DWIDTH 5 0
BBX 3 7 1 -3
BITMAP
A0
E0
40
A0
40
80
80
ENDCHAR
STARTCHAR 201C
ENCODING 8220
SWIDTH 440 0
DWIDTH 11 0
BBX 10 6 1 15
BITMAP
20C0
4100
A2C0
E3C0
4100
A2C0
ENDCHAR
STARTCHAR 201D
ENCODING 8221
SWIDTH 440 0
DWIDTH 11 0
BBX 10 6 1 15
BITMAP
A2C0
4100
A2C0
E3C0
4100
8200
ENDCHAR
STARTCHAR 201E
ENCODING 8222
SWIDTH 440 0
DWIDTH 11 0
BBX 10 7 1 -3
BITMAP
A2C0
E3C0
4100
A2C0
4100
8200
8200
ENDCHAR
STARTCHAR 2020
ENCODING 8224
SWIDTH 480 0
DWIDTH 12 0
BBX 9 19 2 0
BITMAP
3400
3C00
0800
B580
4A00
B580
BD80
0800
3400
0800
3400
3C00
0800
3400
0800
3400
3C00
0800
3400
ENDCHAR
STARTCHAR 2021
ENCODING 8225
SWIDTH 480 0
DWIDTH 12 0
BBX 9 19 2 0
BITMAP
3400
3C00
0800
B580
4A00
B580
BD80
0800
3400
0800
B580
FF80
4A00
B580
0800
3400
3C00
0800
3400
ENDCHAR
STARTCHAR 2022
ENCODING 8226
SWIDTH 400 0
DWIDTH 10 0
BBX 8 9 1 5
BITMAP
24
7E
5A
A5
5A
A5
FF
5A
24
ENDCHAR
STARTCHAR 2026
ENCODING 8230
SWIDTH 600 0
DWIDTH 15 0
BBX 13 4 1 0
BITMAP
A528
E738
4210
A528
ENDCHAR
STARTCHAR 2030
ENCODING 8240
SWIDTH 1800 0
DWIDTH 45 0
BBX 41 19 2 0
BITMAP
358160000000
7FC1E0000000
4A4080000000
B5A160000000
404280000000
B1A100000000
F1E380000000
404280000000
B5AD0B40D600
4A4214A12900
358D6B5AD680
359F7B7BD780
001210210100
000C685AC680
001210210100
002C6B5AD680
003C7FFBFF80
001014A12900
002C0B40D600
ENDCHAR
STARTCHAR 2039
ENCODING 8249
SWIDTH 520 0
DWIDTH 13 0
BBX 10 14 1 2
BITMAP
02C0
0500
1A00
3E00
2400
5800
A000
5800
7C00
2400
1A00
0500
02C0
02C0
ENDCHAR
STARTCHAR 203A
ENCODING 8250
SWIDTH 520 0
DWIDTH 13 0
BBX 10 14 3 2
BITMAP
9000
6800
1400
1F00
0B00
0480
0340
0480
0F80
0B00
1400
6800
9000
9000
ENDCHAR
STARTCHAR 2044
ENCODING 8260
SWIDTH 400 0
DWIDTH 10 0
BBX 8 19 1 0
BITMAP
05
07
02
05
1A
04
1E
1A
24
18
24
7C
58
20
58
A0
E0
40
A0
ENDCHAR
STARTCHAR 20AC
ENCODING 8364
SWIDTH 800 0
DWIDTH 20 0
BBX 16 27 2 -3
BITMAP
01AD
03FF
0252
05AD
0A00
3400
3C00
0800
B5AC
4A50
B5AC
BDAC
0800
3400
0800
B5AC
FFFC
4A50
B5AC
0800
3400
3E00
0A00
05AD
0252
01AD
01AD
ENDCHAR
STARTCHAR 2212
ENCODING 8722
SWIDTH 680 0
DWIDTH 17 0
BBX 14 4 2 7
BITMAP
B5AC
4A50
B5AC
B5AC
ENDCHAR
STARTCHAR E000
ENCODING 57344
SWIDTH 680 0
DWIDTH 17 0
BBX 14 19 2 0
BITMAP
B5AC
FFFC
4A50
B5AC
4010
B02C
F03C
4010
B02C
4010
B5AC
FFFC
4A50
B5AC
4010
B02C
F03C
4010
B02C
ENDCHAR
STARTCHAR E017
ENCODING 57367
SWIDTH 1080 0
DWIDTH 27 0
BBX 24 19 2 0
BITMAP
B5AD6B
FFFFFF
4A5294
B5AD6B
401000
B02C00
F03C00
401000
B02D68
401290
B5AD68
FFFD68
4A5000
B5AC00
401000
B02D6B
F03FFF
401294
B02D6B
ENDCHAR
STARTCHAR E018
ENCODING 57368
SWIDTH 680 0
DWIDTH 17 0
BBX 14 19 2 0
BITMAP
B5AC
FFFC
4A50
B5AC
4010
B02C
F07C
4050
B5A0
4A40
B5A0
F5F0
4050
B02C
4010
B5AC
FFFC
4A50
B5AC
ENDCHAR
STARTCHAR E019
ENCODING 57369
SWIDTH 800 0
DWIDTH 20 0
BBX 16 19 2 0
BITMAP
B5AD
FFFF
4A52
B5AD
4002
B00D
F00F
4002
B00D
4000
B000
F000
4000
B00D
4002
B5AD
FFFF
4A52
B5AD
ENDCHAR
STARTCHAR E01E
ENCODING 57374
SWIDTH 800 0
DWIDTH 20 0
BBX 16 19 2 0
BITMAP
B5AC
FFFE
4A52
B5AD
4002
B00D
F00F
4002
B00D
4002
B00D
F00F
4002
B00D
4002
B5AD
FFFF
4A52
B5AC
ENDCHAR
STARTCHAR E01F
ENCODING 57375
SWIDTH 840 0
DWIDTH 21 0
BBX 18 19 1 0
BITMAP
252900
3FFF80
1AD680
252940
180080
240140
3C01C0
180080
A50140
5A0080
A50140
BD01C0
180080
240140
180080
252940
3FFFC0
1AD680
252900
ENDCHAR
STARTCHAR E021
ENCODING 57377
SWIDTH 840 0
DWIDTH 21 0
BBX 18 19 1 0
BITMAP
252900
3FFF80
1AD680
252940
180080
240140
3C01C0
180080
A50140
5A0080
A50140
BD01C0
180080
240140
180080
252940
3FFFC0
1AD680
252900
ENDCHAR
STARTCHAR E022
ENCODING 57378
SWIDTH 680 0
DWIDTH 17 0
BBX 14 19 2 0
BITMAP
B5AC
FFFC
4A50
B5AC
4000
B000
F000
4000
B5A0
4A40
B5A0
F5A0
4000
B000
4000
B5AC
FFFC
4A50
B5AC
ENDCHAR
STARTCHAR E033
ENCODING 57395
SWIDTH 680 0
DWIDTH 17 0
BBX 14 19 2 0
BITMAP
B5AC
FFFC
4A50
B5AC
4000
B000
F000
4000
B5A0
4A40
B5A0
F5A0
4000
B000
4000
B000
F000
4000
B000
ENDCHAR
STARTCHAR E034
ENCODING 57396
SWIDTH 800 0
DWIDTH 20 0
BBX 16 19 2 0
BITMAP
B5AD
FFFF
4A52
B5AD
4000
B000
F000
4000
B1AD
4052
B1AD
F1AF
4002
B00D
4002
B5AD
FFFF
4A52
B5AD
ENDCHAR
STARTCHAR E038
ENCODING 57400
SWIDTH 600 0
DWIDTH 15 0
BBX 11 19 2 0
BITMAP
B5A0
FFE0
4A40
B5A0
0040
01A0
01E0
0040
01A0
0040
B1A0
F1E0
4040
B1A0
4040
B5A0
FFE0
4A40
B580
ENDCHAR
STARTCHAR E039
ENCODING 57401
SWIDTH 680 0
DWIDTH 17 0
BBX 14 19 2 0
BITMAP
B02C
F03C
4010
B02C
4050
B1A0
F3E0
4240
B5AC
4A50
B5AC
F5BC
4010
B02C
4010
B02C
F03C
4010
B02C
ENDCHAR
STARTCHAR E03B
ENCODING 57403
SWIDTH 680 0
DWIDTH 17 0
BBX 14 19 2 0
BITMAP
B000
F000
4000
B000
4000
B000
F000
4000
B000
4000
B000
F000
4000
B000
4000
B5AC
FFFC
4A50
B5AC
ENDCHAR
STARTCHAR E040
ENCODING 57408
SWIDTH 1080 0
DWIDTH 27 0
BBX 24 19 2 0
BITMAP
B5AD6B
FFFFFF
4A5294
B5AD6B
401004
B02C0B
F03C0F
401004
B02C0B
401004
B02C0B
F03C0F
401004
B02C0B
401004
B02C0B
F03C0F
401004
B02C0B
ENDCHAR
STARTCHAR E041
ENCODING 57409
SWIDTH 800 0
DWIDTH 20 0
BBX 16 19 2 0
BITMAP
B5AD
FFFF
4A52
B5AD
4002
B00D
F00F
4002
B00D
4002
B00D
F00F
4002
B00D
4002
B00D
F00F
4002
B00D
ENDCHAR
STARTCHAR E045
ENCODING 57413
SWIDTH 800 0
DWIDTH 20 0
BBX 16 24 2 -5
BITMAP
B5AD
FFFF
4A52
B5AD
4002
B00D
F00F
4002
B00D
4002
B00D
F00F
4002
B00D
4002
B00D
F00F
4002
B00D
0002
002D
003F
0012
002C
ENDCHAR
STARTCHAR E047
ENCODING 57415
SWIDTH 800 0
DWIDTH 20 0
BBX 16 19 2 0
BITMAP
B5AD
FFFF
4A52
B5AD
4002
B00D
F00F
4002
B00D
4002
B00D
F00F
4002
B00D
4002
B5AD
FFFF
4A52
B5AD
ENDCHAR
STARTCHAR E054
ENCODING 57428
SWIDTH 920 0
DWIDTH 23 0
BBX 21 21 2 0
BITMAP
000068
000010
B5AD68
FFFFF8
4A5290
B5AD60
400200
B00D00
F00F00
400200
B00D00
400200
B00D00
F00F00
400200
B00D00
400200
B5AD00
FFFF00
4A5200
B5AD00
ENDCHAR
STARTCHAR E05E
ENCODING 57438
SWIDTH 1200 0
DWIDTH 30 0
BBX 26 19 2 0
BITMAP
B5AD6B40
FFFFFFC0
4A529480
B5AD6B40
40020000
B00D0000
F00F0000
40020000
B00D6B00
40029400
B00D6B00
F00F6B00
40020000
B00D0000
40020000
B5AD6B40
FFFFFFC0
4A529480
B5AD6B40
ENDCHAR
STARTCHAR E05F
ENCODING 57439
SWIDTH 680 0
DWIDTH 17 0
BBX 14 19 2 0
BITMAP
B5AC
FFFC
4A50
B5AC
4010
B02C
F03C
4010
B02C
4010
B02C
F03C
4010
B5AC
4A50
B5AC
F5AC
4000
B000
ENDCHAR
STARTCHAR E060
ENCODING 57440
SWIDTH 680 0
DWIDTH 17 0
BBX 14 19 2 0
BITMAP
B000
F000
4000
B5AC
4A50
B5AC
F5BC
4010
B02C
4010
B02C
F03C
4010
B5AC
4A50
B5AC
F5AC
4000
B000
ENDCHAR
STARTCHAR E061
ENCODING 57441
SWIDTH 800 0
DWIDTH 20 0
BBX 16 22 2 -3
BITMAP
B5AD
FFFF
4A52
B5AD
4002
B00D
F00F
4002
B00D
4002
B00D
F00F
4002
B1AD
4042
B5AD
FFFF
4A52
B5AD
0040
01A0
01A0
ENDCHAR
STARTCHAR E062
ENCODING 57442
SWIDTH 680 0
DWIDTH 17 0
BBX 14 19 2 0
BITMAP
B5AC
FFFC
4A50
B5AC
4010
B02C
F03C
4010
B02C
4010
B02C
F03C
4010
B5AC
4A50
B5A0
F5F0
4050
B02C
ENDCHAR
STARTCHAR E066
ENCODING 57446
SWIDTH 680 0
DWIDTH 17 0
BBX 14 19 2 0
BITMAP
B5AC
FFFC
4A50
B5AC
4010
B02C
F02C
4000
B5A0
4A50
35AC
35BC
0010
B02C
4010
B5AC
FFFC
4A50
B5AC
ENDCHAR
STARTCHAR E06C
ENCODING 57452
SWIDTH 800 0
DWIDTH 20 0
BBX 16 19 2 0
BITMAP
B00D
F00F
4002
B00D
4002
B00D
F00F
4002
B00D
4002
B00D
F00F
4002
B00D
4002
B5AD
FFFF
4A52
B5AD
ENDCHAR
STARTCHAR E078
ENCODING 57464
SWIDTH 920 0
DWIDTH 23 0
BBX 21 21 2 0
BITMAP
000068
000010
B00D68
F00FF8
400290
B00D60
400200
B00D00
F00F00
400200
B00D00
400200
B00D00
F00F00
400200
B00D00
400200
B5AD00
FFFF00
4A5200
B5AD00
ENDCHAR
STARTCHAR E083
ENCODING 57475
SWIDTH 1080 0
DWIDTH 27 0
BBX 24 19 2 0
BITMAP
B02C0B
F03C0F
401004
B02C0B
401004
B02C0B
F03C0F
401004
B02C0B
401004
B02C0B
F03C0F
401004
B02C0B
401004
B5AD6B
FFFFFF
4A5294
B5AD6B
ENDCHAR
STARTCHAR E088
ENCODING 57480
SWIDTH 800 0
DWIDTH 20 0
BBX 16 19 2 0
BITMAP
B00D
F00F
4002
B00D
4002
B00D
F81F
4812
35AC
0A50
35AC
7DBE
4812
B00D
4002
B00D
F00F
4002
B00D
ENDCHAR
STARTCHAR E089
ENCODING 57481
SWIDTH 680 0
DWIDTH 17 0
BBX 14 19 2 0
BITMAP
B02C
F03C
4010
B02C
4010
B02C
F03C
4010
B02C
4010
B5AC
FFFC
4A50
B5AC
0200
0580
0780
0200
0580
ENDCHAR
STARTCHAR E091
ENCODING 57489
SWIDTH 680 0
DWIDTH 17 0
BBX 14 19 2 0
BITMAP
B5AC
FFFC
4A50
B5AC
0010
002C
003C
0010
B5AC
4A50
B5AC
F5AC
4000
B000
4000
B5AC
FFFC
4A50
B5AC
ENDCHAR
STARTCHAR E095
ENCODING 57493
SWIDTH 800 0
DWIDTH 20 0
BBX 16 19 2 0
BITMAP
35AC
7FFE
4A52
B5AD
4002
B00D
B00F
0002
35AD
4A52
B5AD
F5AF
4002
B00D
4002
B5AD
FFFF
4A52
35AC
ENDCHAR
STARTCHAR E0AC
ENCODING 57516
SWIDTH 1280 0
DWIDTH 32 0
BBX 29 19 2 0
BITMAP
35AD6B40
7FFFFFE0
4A5294A0
B5AD6B58
40020020
B00D0058
B00F0078
00020020
35AD6B58
4A5294A0
B5AD6B58
F5AF6B58
40020000
B00D0000
40020000
B5AD6B58
FFFFFFF8
4A5294A0
35AD6B58
ENDCHAR
STARTCHAR E0AD
ENCODING 57517
SWIDTH 680 0
DWIDTH 17 0
BBX 14 19 2 0
BITMAP
05AC
0FFC
0A50
35AC
4800
B000
F000
4000
B000
4000
B000
F000
4000
B000
4800
35AC
3FFC
0A50
05AC
ENDCHAR
STARTCHAR E0B2
ENCODING 57522
SWIDTH 800 0
DWIDTH 20 0
BBX 16 19 2 0
BITMAP
05A0
0FF0
0A50
35AC
4812
B00D
F00F
4002
B5AD
4A52
B5AD
F5AD
4000
B000
4800
35AD
3FFF
0A52
05AD
ENDCHAR
STARTCHAR E0C3
ENCODING 57539
SWIDTH 600 0
DWIDTH 15 0
BBX 11 19 2 0
BITMAP
01A0
01E0
0040
01A0
0040
01A0
01E0
0040
01A0
0040
01A0
01E0
0040
01A0
0240
B580
FF80
4A00
B400
ENDCHAR
STARTCHAR E0C4
ENCODING 57540
SWIDTH 1280 0
DWIDTH 32 0
BBX 29 19 2 0
BITMAP
05A06B00
0FF0FF80
0A509480
35AD6B40
481280A0
B00D0058
F00F0078
40020020
B00D0058
40020020
B00D0058
F00F0078
40020020
B00D0058
40020020
B00D0058
F00F0078
40020020
B00D0058
ENDCHAR
STARTCHAR E0C5
ENCODING 57541
SWIDTH 800 0
DWIDTH 20 0
BBX 16 19 2 0
BITMAP
05A0
0FF0
0A50
35AC
4812
B00D
F00F
4002
B00D
4002
B00D
F00F
4002
B00D
4002
B00D
F00F
4002
B00D
ENDCHAR
STARTCHAR E0C9
ENCODING 57545
SWIDTH 800 0
DWIDTH 20 0
BBX 16 24 2 -5
BITMAP
05A0
0FF0
0A50
35AC
4812
B00D
F00F
4002
B00D
4002
B00D
F00F
4002
B00D
4002
B00D
F00F
4002
B00D
0002
002D
003F
0012
002C
ENDCHAR
STARTCHAR E0CB
ENCODING 57547
SWIDTH 1280 0
DWIDTH 32 0
BBX 29 19 2 0
BITMAP
05A06B00
0FF0FF80
0A509480
35AD6B40
481280A0
B00D0058
F00F0078
40020020
B00D6B58
400294A0
B00D6B58
F00F6B58
40020000
B00D0000
48128000
35AD6B58
3FFDFFF8
0A5094A0
05A06B58
ENDCHAR
STARTCHAR E0CC
ENCODING 57548
SWIDTH 600 0
DWIDTH 15 0
BBX 11 19 2 0
BITMAP
05A0
0FE0
0A40
35A0
4800
B000
F000
4000
B000
4000
B000
F000
4000
B000
4000
B000
F000
4000
B000
ENDCHAR
STARTCHAR E0D0
ENCODING 57552
SWIDTH 680 0
DWIDTH 17 0
BBX 14 19 2 0
BITMAP
35AC
7FFC
4A50
B5AC
4000
B000
F000
4000
B5A0
4A50
35AC
35BC
0010
002C
0010
B5AC
FFFC
4A50
B5A0
ENDCHAR
STARTCHAR E0D5
ENCODING 57557
SWIDTH 1280 0
DWIDTH 32 0
BBX 29 19 2 0
BITMAP
B00D0058
F00F0078
40020020
B00D0058
40020020
B00D0058
F00F0078
40020020
B00D0058
40020020
B00D0058
F00F0078
40020020
B00D0058
481280A0
35AD6B40
3FFDFFC0
0A509480
05A06B00
ENDCHAR
STARTCHAR E0DA
ENCODING 57562
SWIDTH 680 0
DWIDTH 17 0
BBX 14 19 2 0
BITMAP
B02C
F03C
4010
B02C
4010
B02C
F83C
4810
35AC
0A50
05AC
05BC
0010
002C
0010
B5AC
FFFC
4A50
B5A0
ENDCHAR
STARTCHAR E0E2
ENCODING 57570
SWIDTH 680 0
DWIDTH 17 0
BBX 14 19 2 0
BITMAP
01AC
03FC
0250
05AC
0A10
342C
7C3C
4810
B02C
4010
B5AC
FFFC
4A50
B5AC
4010
B02C
F03C
4010
B02C
ENDCHAR
STARTCHAR E0FA
ENCODING 57594
SWIDTH 680 0
DWIDTH 17 0
BBX 14 19 2 0
BITMAP
B5AC
FFFC
4A50
B5AC
4010
B02C
F07C
4050
B5AC
4A50
B5AC
F5BC
4010
B02C
4050
B5A0
FFE0
4A40
B580
ENDCHAR
STARTCHAR E0FB
ENCODING 57595
SWIDTH 680 0
DWIDTH 17 0
BBX 14 19 2 0
BITMAP
01AC
03FC
0250
05AC
0A00
3400
7C00
4800
B000
4000
B000
F000
4000
B000
4000
B5AC
FFFC
4A50
B5AC
ENDCHAR
STARTCHAR E100
ENCODING 57600
SWIDTH 800 0
DWIDTH 20 0
BBX 16 19 2 0
BITMAP
B580
FFC0
4A40
B5A0
4050
B02C
F03E
4012
B00D
4002
B00D
F00F
4002
B00D
4002
B5AD
FFFF
4A52
B5AD
ENDCHAR
STARTCHAR E101
ENCODING 57601
SWIDTH 840 0
DWIDTH 21 0
BBX 18 19 1 0
BITMAP
252000
3FF000
1AD000
252800
181600
240900
3C0F80
180680
A50140
5A0080
A50140
BD01C0
180080
240140
180080
252940
3FFFC0
1AD680
252940
ENDCHAR
STARTCHAR E103
ENCODING 57603
SWIDTH 840 0
DWIDTH 21 0
BBX 18 19 1 0
BITMAP
252000
3FF000
1AD000
252800
181600
240900
3C0F80
180680
A50140
5A0080
A50140
BD01C0
180080
240140
180080
252940
3FFFC0
1AD680
252940
ENDCHAR
STARTCHAR E104
ENCODING 57604
SWIDTH 680 0
DWIDTH 17 0
BBX 14 19 2 0
BITMAP
B5AC
FFFC
4A50
B5AC
4000
B000
F000
4000
B5A0
4A40
B5A0
F5A0
4000
B000
4800
35AC
3FFC
0A50
05AC
ENDCHAR
STARTCHAR E115
ENCODING 57621
SWIDTH 800 0
DWIDTH 20 0
BBX 16 19 2 0
BITMAP
05AD
0FFF
0A52
35AD
4800
B000
F000
4000
B1AD
4052
B1AD
F1AF
4002
B00D
4002
B5AD
FFFF
4A52
B5AD
ENDCHAR
STARTCHAR E119
ENCODING 57625
SWIDTH 680 0
DWIDTH 17 0
BBX 14 19 2 0
BITMAP
B000
F000
4000
B000
4000
B000
F000
4000
B000
4000
B000
F000
4000
B000
4800
35AC
3FFC
0A50
05AC
ENDCHAR
STARTCHAR E11E
ENCODING 57630
SWIDTH 1080 0
DWIDTH 27 0
BBX 24 19 2 0
BITMAP
B42D00
FE3F80
4A1280
B5AD60
425090
B1AC68
F1FC7C
405014
B02C0B
401004
B02C0B
F03C0F
401004
B02C0B
401004
B02C0B
F03C0F
401004
B02C0B
ENDCHAR
STARTCHAR E11F
ENCODING 57631
SWIDTH 680 0
DWIDTH 17 0
BBX 14 19 2 0
BITMAP
B400
FE00
4A00
B580
4240
B1A0
F1F0
4050
B02C
4010
B02C
F03C
4010
B02C
4010
B02C
F03C
4010
B02C
ENDCHAR
STARTCHAR E123
ENCODING 57635
SWIDTH 680 0
DWIDTH 17 0
BBX 14 24 2 -5
BITMAP
B400
FE00
4A00
B580
4240
B1A0
F1F0
4050
B02C
4010
B02C
F03C
4010
B02C
4010
B02C
F03C
4010
B02C
0010
01AC
01FC
0050
01A0
ENDCHAR
STARTCHAR E125
ENCODING 57637
SWIDTH 800 0
DWIDTH 20 0
BBX 16 19 2 0
BITMAP
B5A0
FFF0
4A50
B5AC
4012
B00D
F00F
4002
B00D
4002
B00D
F00F
4002
B00D
4802
35AD
3FFF
0A52
05AD
ENDCHAR
STARTCHAR E136
ENCODING 57654
SWIDTH 680 0
DWIDTH 17 0
BBX 14 19 2 0
BITMAP
B5AC
FFFC
4A50
B5AC
4010
B02C
F03C
4010
B02C
4010
B02C
F07C
4050
B5A0
4A40
B580
F580
4000
B000
ENDCHAR
STARTCHAR E137
ENCODING 57655
SWIDTH 680 0
DWIDTH 17 0
BBX 14 19 2 0
BITMAP
B000
F000
4000
B5AC
4A50
B5AC
F5BC
4010
B02C
4010
B02C
F07C
4050
B5A0
4A40
B580
F580
4000
B000
ENDCHAR
STARTCHAR E138
ENCODING 57656
SWIDTH 800 0
DWIDTH 20 0
BBX 16 22 2 -3
BITMAP
B5A0
FFF0
4A50
B5AC
4012
B00D
F00F
4002
B00D
4002
B00D
F00F
4002
B1AD
4842
35AD
3FFF
0A52
05AD
0040
01A0
01A0
ENDCHAR
STARTCHAR E139
ENCODING 57657
SWIDTH 680 0
DWIDTH 17 0
BBX 14 19 2 0
BITMAP
B5AC
FFFC
4A50
B5AC
4010
B02C
F03C
4010
B02C
4010
B02C
F07C
4050
B5A0
4A40
B5A0
F5F0
4050
B02C
ENDCHAR
STARTCHAR E13D
ENCODING 57661
SWIDTH 680 0
DWIDTH 17 0
BBX 14 19 2 0
BITMAP
05AC
0FFC
0A50
35AC
4800
B000
F000
4000
B5AC
4A50
B5AC
B5BC
0010
002C
0050
B5A0
FFE0
4A40
B580
ENDCHAR
STARTCHAR E141
ENCODING 57665
SWIDTH 680 0
DWIDTH 17 0
BBX 14 19 2 0
BITMAP
B02C
F03C
4010
B02C
4010
B02C
F03C
4010
B02C
4010
B02C
F07C
4050
B1A0
4240
B580
FF80
4A00
B400
ENDCHAR
STARTCHAR E142
ENCODING 57666
SWIDTH 1080 0
DWIDTH 27 0
BBX 24 19 2 0
BITMAP
B02C0B
F03C0F
401004
B02C0B
401004
B02C0B
F03C0F
401004
B02C0B
401004
B02C0B
F07C1F
405014
B1AC68
425090
B5AD60
FFBFE0
4A1280
B42D00
ENDCHAR
STARTCHAR E147
ENCODING 57671
SWIDTH 280 0
DWIDTH 7 0
BBX 4 24 2 0
BITMAP
B0
F0
40
B0
00
B0
F0
40
B0
40
B0
F0
40
B0
40
B0
F0
40
B0
40
B0
F0
40
B0
ENDCHAR
STARTCHAR E148
ENCODING 57672
SWIDTH 680 0
DWIDTH 17 0
BBX 14 19 2 0
BITMAP
B5AC
FFFC
4A50
B5AC
0010
002C
003C
0010
B5AC
4A50
B5AC
F5BC
4010
B02C
4010
B5AC
FFFC
4A50
B5AC
ENDCHAR
STARTCHAR E15F
ENCODING 57695
SWIDTH 1080 0
DWIDTH 27 0
BBX 24 19 2 0
BITMAP
B5AD6B
FFFFFF
4A5294
B5AD6B
001004
002C0B
003C0F
001004
B5AD6B
4A5294
B5AD6B
F5BD6B
401000
B02C00
401000
B5AD6B
FFFFFF
4A5294
B5AD6B
ENDCHAR
STARTCHAR E160
ENCODING 57696
SWIDTH 680 0
DWIDTH 17 0
BBX 14 19 2 0
BITMAP
B5AC
FFFC
4A50
B5AC
4010
B02C
F07C
4050
B5A0
4A40
B5A0
F5F0
4050
B02C
4010
B5AC
FFFC
4A50
B5AC
ENDCHAR
STARTCHAR E161
ENCODING 57697
SWIDTH 680 0
DWIDTH 17 0
BBX 14 19 2 0
BITMAP
B5AC
FFFC
4A50
B5AC
4010
B02C
F03C
4010
B02C
4000
B000
F000
4000
B02C
4010
B5AC
FFFC
4A50
B5AC
ENDCHAR
STARTCHAR E166
ENCODING 57702
SWIDTH 680 0
DWIDTH 17 0
BBX 14 19 2 0
BITMAP
B5AC
FFFC
4A50
B5AC
4010
B02C
F03C
4010
B5AC
4A50
B5AC
F5AC
4000
B000
4000
B5AC
FFFC
4A50
B5AC
ENDCHAR
STARTCHAR E177
ENCODING 57719
SWIDTH 680 0
DWIDTH 17 0
BBX 14 19 2 0
BITMAP
B5AC
FFFC
4A50
B5AC
4000
B000
F000
4000
B5A0
4A40
B5A0
F5A0
4000
B000
4000
B000
F000
4000
B000
ENDCHAR
STARTCHAR E178
ENCODING 57720
SWIDTH 680 0
DWIDTH 17 0
BBX 14 19 2 0
BITMAP
B5AC
FFFC
4A50
B5AC
4000
B000
F000
4000
B1AC
4050
B1AC
F1BC
4010
B02C
4010
B5AC
FFFC
4A50
B5AC
ENDCHAR
STARTCHAR E17C
ENCODING 57724
SWIDTH 480 0
DWIDTH 12 0
BBX 9 19 2 0
BITMAP
0580
0780
0200
0580
0200
0580
0780
0200
0580
0200
0580
0780
0200
0580
0200
B580
FF80
4A00
B580
ENDCHAR
STARTCHAR E17D
ENCODING 57725
SWIDTH 680 0
DWIDTH 17 0
BBX 14 19 2 0
BITMAP
B02C
F03C
4010
B02C
4050
B1A0
F3E0
4240
B5AC
4A50
B5AC
F5BC
4010
B02C
4010
B02C
F03C
4010
B02C
ENDCHAR
STARTCHAR E17F
ENCODING 57727
SWIDTH 600 0
DWIDTH 15 0
BBX 11 19 2 0
BITMAP
B000
F000
4000
B000
4000
B000
F000
4000
B000
4000
B000
F000
4000
B000
4000
B5A0
FFE0
4A40
B5A0
ENDCHAR
STARTCHAR E184
ENCODING 57732
SWIDTH 880 0
DWIDTH 22 0
BBX 19 19 2 0
BITMAP
B5AD60
FFFFE0
4A5280
B5AD60
404080
B1A160
F1E1E0
404080
B1A160
404080
B1A160
F1E1E0
404080
B1A160
404080
B1A160
F1E1E0
404080
B1A160
ENDCHAR
STARTCHAR E185
ENCODING 57733
SWIDTH 680 0
DWIDTH 17 0
BBX 14 19 2 0
BITMAP
B5AC
FFFC
4A50
B5AC
4010
B02C
F03C
4010
B02C
4010
B02C
F03C
4010
B02C
4010
B02C
F03C
4010
B02C
ENDCHAR
STARTCHAR E189
ENCODING 57737
SWIDTH 680 0
DWIDTH 17 0
BBX 14 24 2 -5
BITMAP
B5AC
FFFC
4A50
B5AC
4010
B02C
F03C
4010
B02C
4010
B02C
F03C
4010
B02C
4010
B02C
F03C
4010
B02C
0010
01AC
01FC
0050
01A0
ENDCHAR
STARTCHAR E18B
ENCODING 57739
SWIDTH 680 0
DWIDTH 17 0
BBX 14 19 2 0
BITMAP
B5AC
FFFC
4A50
B5AC
4010
B02C
F03C
4010
B02C
4010
B02C
F03C
4010
B02C
4010
B5AC
FFFC
4A50
B5AC
ENDCHAR
STARTCHAR E198
ENCODING 57752
SWIDTH 840 0
DWIDTH 21 0
BBX 19 21 2 0
BITMAP
000160
000080
B5AD60
FFFFE0
4A5280
B5AD00
401000
B02C00
F03C00
401000
B02C00
401000
B02C00
F03C00
401000
B02C00
401000
B5AC00
FFFC00
4A5000
B5AC00
ENDCHAR
STARTCHAR E1A2
ENCODING 57762
SWIDTH 1080 0
DWIDTH 27 0
BBX 24 19 2 0
BITMAP
B5AD6B
FFFFFF
4A5294
B5AD6B
401004
B02C0B
F03C0F
401004
B02D6B
401294
B02D6B
F03D6B
401000
B02C00
401000
B5AD6B
FFFFFF
4A5294
B5AD6B
ENDCHAR
STARTCHAR E1A3
ENCODING 57763
SWIDTH 680 0
DWIDTH 17 0
BBX 14 19 2 0
BITMAP
B5AC
FFFC
4A50
B5AC
4010
B02C
F03C
4010
B02C
4010
B5AC
FFFC
4A50
B5AC
4000
B000
F000
4000
B000
ENDCHAR
STARTCHAR E1A4
ENCODING 57764
SWIDTH 680 0
DWIDTH 17 0
BBX 14 19 2 0
BITMAP
B000
F000
4000
B5AC
4A50
B5AC
F5BC
4010
B02C
4010
B02C
F03C
4010
B5AC
4A50
B5AC
F5AC
4000
B000
ENDCHAR
STARTCHAR E1A5
ENCODING 57765
SWIDTH 680 0
DWIDTH 17 0
BBX 14 22 2 -3
BITMAP
B5AC
FFFC
4A50
B5AC
4010
B02C
F03C
4010
B02C
4010
B02C
F03C
4010
B5AC
4210
B5AC
FFFC
4A50
B5AC
0200
0580
0580
ENDCHAR
STARTCHAR E1A6
ENCODING 57766
SWIDTH 680 0
DWIDTH 17 0
BBX 14 19 2 0
BITMAP
B5AC
FFFC
4A50
B5AC
4010
B02C
F03C
4010
B02C
4010
B5AC
FFFC
4A50
B5A0
4050
B02C
F03C
4010
B02C
ENDCHAR
STARTCHAR E1AA
ENCODING 57770
SWIDTH 680 0
DWIDTH 17 0
BBX 14 19 2 0
BITMAP
B5AC
FFFC
4A50
B5AC
4000
B000
F000
4000
B5AC
4A50
B5AC
B5BC
0010
002C
0010
B5AC
FFFC
4A50
B5AC
ENDCHAR
STARTCHAR E1B0
ENCODING 57776
SWIDTH 680 0
DWIDTH 17 0
BBX 14 19 2 0
BITMAP
B02C
F03C
4010
B02C
4010
B02C
F03C
4010
B02C
4010
B02C
F03C
4010
B02C
4010
B5AC
FFFC
4A50
B5AC
ENDCHAR
STARTCHAR E1BC
ENCODING 57788
SWIDTH 840 0
DWIDTH 21 0
BBX 19 21 2 0
BITMAP
000160
000080
B02D60
F03FE0
401280
B02D00
401000
B02C00
F03C00
401000
B02C00
401000
B02C00
F03C00
401000
B02C00
401000
B5AC00
FFFC00
4A5000
B5AC00
ENDCHAR
STARTCHAR E1C7
ENCODING 57799
SWIDTH 880 0
DWIDTH 22 0
BBX 19 19 2 0
BITMAP
B1A160
F1E1E0
404080
B1A160
404080
B1A160
F1E1E0
404080
B1A160
404080
B1A160
F1E1E0
404080
B1A160
404080
B5AD60
FFFFE0
4A5280
B5AD60
ENDCHAR
STARTCHAR E1CC
ENCODING 57804
SWIDTH 680 0
DWIDTH 17 0
BBX 14 19 2 0
BITMAP
B02C
F03C
4010
B02C
4010
B02C
F03C
4010
B5AC
4A50
B5AC
B5BC
0010
002C
0010
B5AC
FFFC
4A50
B5AC
ENDCHAR
STARTCHAR E1D4
ENCODING 57812
SWIDTH 680 0
DWIDTH 17 0
BBX 14 19 2 0
BITMAP
B5AC
FFFC
4A50
B5AC
0010
002C
003C
0010
B5AC
4A50
B5AC
F5AC
4000
B000
4000
B5AC
FFFC
4A50
B5AC
ENDCHAR
STARTCHAR E1D8
ENCODING 57816
SWIDTH 680 0
DWIDTH 17 0
BBX 14 19 2 0
BITMAP
B5A0
FFF0
4A50
B5AC
0010
002C
003C
0010
35AC
4A50
B5AC
F5BC
4010
B02C
4010
B5AC
FFFC
4A50
35A0
ENDCHAR
STARTCHAR E1EF
ENCODING 57839
SWIDTH 1080 0
DWIDTH 27 0
BBX 24 19 2 0
BITMAP
B5AD68
FFFFFC
4A5294
B5AD6B
001004
002C0B
003C0F
001004
35AD6B
4A5294
B5AD6B
F5BD6B
401000
B02C00
401000
B5AD6B
FFFFFF
4A5294
35AD6B
ENDCHAR
STARTCHAR E1F0
ENCODING 57840
SWIDTH 680 0
DWIDTH 17 0
BBX 14 19 2 0
BITMAP
35AC
7FFC
4A50
B5AC
4000
B000
F000
4000
B000
4000
B000
F000
4000
B000
4000
B5AC
FFFC
4A50
35AC
ENDCHAR
STARTCHAR E1F5
ENCODING 57845
SWIDTH 680 0
DWIDTH 17 0
BBX 14 19 2 0
BITMAP
35A0
7FF0
4A50
B5AC
4010
B02C
F03C
4010
B5AC
4A50
B5AC
F5AC
4000
B000
4000
B5AC
FFFC
4A50
35AC
ENDCHAR
STARTCHAR E206
ENCODING 57862
SWIDTH 680 0
DWIDTH 17 0
BBX 14 19 2 0
BITMAP
35A0
7FF0
4A50
B5AC
4010
B02C
F02C
4000
B580
4A00
B580
F580
4000
B000
4000
B000
F000
4000
B000
ENDCHAR
STARTCHAR E207
ENCODING 57863
SWIDTH 680 0
DWIDTH 17 0
BBX 14 19 2 0
BITMAP
35AC
7FFC
4A50
B5AC
4010
B02C
F03C
4010
B5AC
4A50
35AC
35BC
0010
002C
0010
B5AC
FFFC
4A50
B5A0
ENDCHAR
STARTCHAR E20B
ENCODING 57867
SWIDTH 600 0
DWIDTH 15 0
BBX 11 19 2 0
BITMAP
01A0
01E0
0040
01A0
0040
01A0
01E0
0040
01A0
0040
01A0
01E0
0040
B1A0
4040
B5A0
FFE0
4A40
3580
ENDCHAR
STARTCHAR E20C
ENCODING 57868
SWIDTH 1080 0
DWIDTH 27 0
BBX 24 19 2 0
BITMAP
35AD68
7FFFFC
4A5294
B5AD6B
401004
B02C0B
F03C0F
401004
B02C0B
401004
B02C0B
F03C0F
401004
B02C0B
401004
B02C0B
F03C0F
401004
B02C0B
ENDCHAR
STARTCHAR E20D
ENCODING 57869
SWIDTH 680 0
DWIDTH 17 0
BBX 14 19 2 0
BITMAP
35A0
7FF0
4A50
B5AC
4010
B02C
F03C
4010
B02C
4010
B02C
F03C
4010
B02C
4010
B02C
F03C
4010
B02C
ENDCHAR
STARTCHAR E211
ENCODING 57873
SWIDTH 680 0
DWIDTH 17 0
BBX 14 24 2 -5
BITMAP
35A0
7FF0
4A50
B5AC
4010
B02C
F03C
4010
B02C
4010
B02C
F03C
4010
B02C
4010
B02C
F03C
4010
B02C
0010
01AC
01FC
0050
01A0
ENDCHAR
STARTCHAR E213
ENCODING 57875
SWIDTH 1080 0
DWIDTH 27 0
BBX 24 19 2 0
BITMAP
35AD68
7FFFFC
4A5294
B5AD6B
401004
B02C0B
F03C0F
401004
B02D6B
401294
B02D6B
F03D6B
401000
B02C00
401000
B5AD6B
FFFFFF
4A5294
35AD6B
ENDCHAR
STARTCHAR E214
ENCODING 57876
SWIDTH 600 0
DWIDTH 15 0
BBX 11 19 2 0
BITMAP
35A0
7FE0
4A40
B5A0
4000
B000
F000
4000
B000
4000
B000
F000
4000
B000
4000
B000
F000
4000
B000
ENDCHAR
STARTCHAR E218
ENCODING 57880
SWIDTH 680 0
DWIDTH 17 0
BBX 14 19 2 0
BITMAP
35AC
7FFC
4A50
B5AC
4000
B000
F000
4000
B5A0
4A50
35AC
35BC
0010
002C
0010
B5AC
FFFC
4A50
B5A0
ENDCHAR
STARTCHAR E21D
ENCODING 57885
SWIDTH 1080 0
DWIDTH 27 0
BBX 24 19 2 0
BITMAP
B02C0B
F03C0F
401004
B02C0B
401004
B02C0B
F03C0F
401004
B02C0B
401004
B02C0B
F03C0F
401004
B02C0B
401004
B5AD6B
FFFFFF
4A5294
35AD68
ENDCHAR
STARTCHAR E222
ENCODING 57890
SWIDTH 680 0
DWIDTH 17 0
BBX 14 19 2 0
BITMAP
B02C
F03C
4010
B02C
4010
B02C
F03C
4010
B5AC
4A50
35AC
35BC
0010
002C
0010
B5AC
FFFC
4A50
B5A0
ENDCHAR
STARTCHAR E22A
ENCODING 57898
SWIDTH 680 0
DWIDTH 17 0
BBX 14 19 2 0
BITMAP
B400
FE00
4A00
B580
4240
B1A0
F1F0
4050
B02C
4010
B5AC
FFFC
4A50
B5AC
4010
B02C
F03C
4010
B02C
ENDCHAR
STARTCHAR E242
ENCODING 57922
SWIDTH 680 0
DWIDTH 17 0
BBX 14 19 2 0
BITMAP
B5AC
FFFC
4A50
B5AC
4010
B02C
F07C
4050
B5AC
4A50
B5AC
F5BC
4010
B02C
4050
B5A0
FFE0
4A40
B580
ENDCHAR
STARTCHAR E243
ENCODING 57923
SWIDTH 680 0
DWIDTH 17 0
BBX 14 19 2 0
BITMAP
B5AC
FFFC
4A50
B5AC
4000
B000
F000
4000
B000
4000
B000
F800
4800
3400
0A00
05AC
07FC
0250
01AC
ENDCHAR
STARTCHAR E248
ENCODING 57928
SWIDTH 800 0
DWIDTH 20 0
BBX 16 19 2 0
BITMAP
B5AD
FFFF
4A52
B5AD
4002
B00D
F00F
4002
B00D
4002
B00D
F01F
4012
B02C
4050
B5A0
FFE0
4A40
B580
ENDCHAR
STARTCHAR E249
ENCODING 57929
SWIDTH 840 0
DWIDTH 21 0
BBX 18 19 1 0
BITMAP
252940
3FFFC0
1AD680
252940
180080
240140
3C01C0
180080
A50140
5A0080
A50140
BD07C0
180680
240900
181600
252800
3FF800
1AD000
252000
ENDCHAR
STARTCHAR E24B
ENCODING 57931
SWIDTH 840 0
DWIDTH 21 0
BBX 18 19 1 0
BITMAP
252940
3FFFC0
1AD680
252940
180080
240140
3C01C0
180080
A50140
5A0080
A50140
BD07C0
180680
240900
181600
252800
3FF800
1AD000
252000
ENDCHAR
STARTCHAR E24C
ENCODING 57932
SWIDTH 680 0
DWIDTH 17 0
BBX 14 19 2 0
BITMAP
05AC
0FFC
0A50
35AC
4800
B000
F000
4000
B5A0
4A40
B5A0
F5A0
4000
B000
4000
B5AC
FFFC
4A50
B5AC
ENDCHAR
STARTCHAR E25D
ENCODING 57949
SWIDTH 800 0
DWIDTH 20 0
BBX 16 19 2 0
BITMAP
B5AD
FFFF
4A52
B5AD
4000
B000
F000
4000
B1AD
4052
B1AD
F1AF
4002
B00D
4802
35AD
3FFF
0A52
05AD
ENDCHAR
STARTCHAR E261
ENCODING 57953
SWIDTH 600 0
DWIDTH 15 0
BBX 11 19 2 0
BITMAP
B5A0
FFE0
4A40
B5A0
0040
01A0
01E0
0040
01A0
0040
01A0
01E0
0040
B1A0
4240
B580
FF80
4A00
B400
ENDCHAR
STARTCHAR E262
ENCODING 57954
SWIDTH 600 0
DWIDTH 15 0
BBX 11 19 2 0
BITMAP
B000
F000
4000
B000
4000
B000
F000
4000
B000
4000
B000
F000
4000
B000
4800
35A0
3FE0
0A40
05A0
ENDCHAR
STARTCHAR E267
ENCODING 57959
SWIDTH 1080 0
DWIDTH 27 0
BBX 24 19 2 0
BITMAP
01AC6B
03FCFF
025094
05AD6B
0A1284
342D0B
7C3F0F
481204
B02C0B
401004
B02C0B
F03C0F
401004
B02C0B
401004
B02C0B
F03C0F
401004
B02C0B
ENDCHAR
STARTCHAR E268
ENCODING 57960
SWIDTH 680 0
DWIDTH 17 0
BBX 14 19 2 0
BITMAP
01AC
03FC
0250
05AC
0A10
342C
7C3C
4810
B02C
4010
B02C
F03C
4010
B02C
4010
B02C
F03C
4010
B02C
ENDCHAR
STARTCHAR E26C
ENCODING 57964
SWIDTH 680 0
DWIDTH 17 0
BBX 14 24 2 -5
BITMAP
01AC
03FC
0250
05AC
0A10
342C
7C3C
4810
B02C
4010
B02C
F03C
4010
B02C
4010
B02C
F03C
4010
B02C
0010
01AC
01FC
0050
01A0
ENDCHAR
STARTCHAR E26E
ENCODING 57966
SWIDTH 800 0
DWIDTH 20 0
BBX 16 19 2 0
BITMAP
05AD
0FFF
0A52
35AD
4802
B00D
F00F
4002
B00D
4002
B00D
F00F
4002
B00D
4012
B5AC
FFFC
4A50
B5A0
ENDCHAR
STARTCHAR E27F
ENCODING 57983
SWIDTH 680 0
DWIDTH 17 0
BBX 14 19 2 0
BITMAP
B5AC
FFFC
4A50
B5AC
4010
B02C
F03C
4010
B02C
4050
B5A0
FFE0
4A40
B580
4000
B000
F000
4000
B000
ENDCHAR
STARTCHAR E280
ENCODING 57984
SWIDTH 680 0
DWIDTH 17 0
BBX 14 19 2 0
BITMAP
B000
F000
4000
B5AC
4A50
B5AC
F5BC
4010
B02C
4010
B02C
F07C
4050
B5A0
4A40
B580
F580
4000
B000
ENDCHAR
STARTCHAR E281
ENCODING 57985
SWIDTH 800 0
DWIDTH 20 0
BBX 16 22 2 -3
BITMAP
05AD
0FFF
0A52
35AD
4802
B00D
F00F
4002
B00D
4002
B00D
F00F
4002
B58D
4212
B5AC
FFFC
4A50
B5A0
0200
0580
0580
ENDCHAR
STARTCHAR E282
ENCODING 57986
SWIDTH 680 0
DWIDTH 17 0
BBX 14 19 2 0
BITMAP
B5AC
FFFC
4A50
B5AC
4010
B02C
F03C
4010
B02C
4050
B5A0
FFE0
4A40
B5A0
4050
B02C
F03C
4010
B02C
ENDCHAR
STARTCHAR E286
ENCODING 57990
SWIDTH 680 0
DWIDTH 17 0
BBX 14 19 2 0
BITMAP
05AC
0FFC
0A50
35AC
4800
B000
F000
4000
B5AC
4A50
B5AC
B5BC
0010
002C
0050
B5A0
FFE0
4A40
B580
ENDCHAR
STARTCHAR E28A
ENCODING 57994
SWIDTH 680 0
DWIDTH 17 0
BBX 14 19 2 0
BITMAP
B02C
F03C
4010
B02C
4010
B02C
F03C
4010
B02C
4010
B02C
F83C
4810
342C
0A10
05AC
07FC
0250
01AC
ENDCHAR
STARTCHAR E28B
ENCODING 57995
SWIDTH 1080 0
DWIDTH 27 0
BBX 24 19 2 0
BITMAP
B02C0B
F03C0F
401004
B02C0B
401004
B02C0B
F03C0F
401004
B02C0B
401004
B02C0B
F83E0F
481204
342D0B
0A1284
05AD6B
07FDFF
025094
01AC6B
ENDCHAR
STARTCHAR E290
ENCODING 58000
SWIDTH 680 0
DWIDTH 17 0
BBX 14 19 2 0
BITMAP
B02C
F03C
4010
B02C
4010
B02C
F03C
4010
B02C
4810
35AC
3FFC
0A50
05AC
0010
002C
003C
0010
002C
ENDCHAR
STARTCHAR E298
ENCODING 58008
SWIDTH 680 0
DWIDTH 17 0
BBX 14 19 2 0
BITMAP
B5AC
FFFC
4A50
B5AC
0050
01A0
03E0
0240
0580
0A00
3400
7C00
4800
B000
4000
B5AC
FFFC
4A50
B5AC
ENDCHAR
STARTCHAR E29C
ENCODING 58012
SWIDTH 800 0
DWIDTH 20 0
BBX 16 19 2 0
BITMAP
B5A0
FFF0
4A50
B5AC
4012
B000
F000
4000
B1AD
4052
B1AD
F1AF
4002
B00D
4012
B5AC
FFFC
4A50
B5A0
ENDCHAR
STARTCHAR E29D
ENCODING 58013
SWIDTH 680 0
DWIDTH 17 0
BBX 14 19 2 0
BITMAP
B5AC
FFFC
4A50
B5AC
4010
B02C
F03C
4010
B02C
4010
B5AC
FFFC
4A50
B5AC
4010
B02C
F03C
4010
B02C
ENDCHAR
STARTCHAR E29E
ENCODING 58014
SWIDTH 680 0
DWIDTH 17 0
BBX 14 19 2 0
BITMAP
B5AC
FFFC
4A50
B5AC
4000
B000
F000
4000
B5A0
4A50
B5AC
F5BC
4010
B02C
4010
B5AC
FFFC
4A50
B5A0
ENDCHAR
STARTCHAR E29F
ENCODING 58015
SWIDTH 680 0
DWIDTH 17 0
BBX 14 19 2 0
BITMAP
B5AC
FFFC
4A50
B5AC
4010
B02C
F07C
4050
B5A0
4A40
B5A0
F5F0
4050
B02C
4010
B5AC
FFFC
4A50
B5AC
ENDCHAR
STARTCHAR E2A0
ENCODING 58016
SWIDTH 680 0
DWIDTH 17 0
BBX 14 19 2 0
BITMAP
B5AC
FFFC
4A50
B5AC
4000
B000
F000
4000
B000
4000
B000
F000
4000
B000
4000
B000
F000
4000
B000
ENDCHAR
STARTCHAR E2A2
ENCODING 58018
SWIDTH 680 0
DWIDTH 17 0
BBX 14 19 2 0
BITMAP
B5AC
FFFC
4A50
B5AC
4000
B000
F000
4000
B5A0
4A40
B5A0
F5A0
4000
B000
4000
B5AC
FFFC
4A50
B5AC
ENDCHAR
STARTCHAR E2A4
ENCODING 58020
SWIDTH 1080 0
DWIDTH 27 0
BBX 24 19 2 0
BITMAP
B02C0B
F03C0F
401004
B02C0B
481014
342C68
3E3CF8
0A1090
B5AD6B
4A5294
B5AD6B
F5BD6F
401004
B02C0B
401004
B02C0B
F03C0F
401004
B02C0B
ENDCHAR
STARTCHAR E2A5
ENCODING 58021
SWIDTH 800 0
DWIDTH 20 0
BBX 16 19 2 0
BITMAP
B5AD
FFFF
4A52
B5AD
4002
B00D
B01F
0012
05AC
0250
05AC
05BE
0012
B00D
4002
B5AD
FFFF
4A52
B5AD
ENDCHAR
STARTCHAR E2A6
ENCODING 58022
SWIDTH 680 0
DWIDTH 17 0
BBX 14 19 2 0
BITMAP
B02C
F03C
4010
B02C
4050
B1A0
F3E0
4240
B5AC
4A50
B5AC
F5BC
4010
B02C
4010
B02C
F03C
4010
B02C
ENDCHAR
STARTCHAR E2A8
ENCODING 58024
SWIDTH 1080 0
DWIDTH 27 0
BBX 24 19 2 0
BITMAP
B5AD6B
FFFFFF
4A5294
B5AD6B
401004
B02C0B
F03C0F
401004
B02C0B
401004
B02C0B
F03C0F
401004
B02C0B
401004
B02C0B
F03C0F
401004
B02C0B
ENDCHAR
STARTCHAR E2A9
ENCODING 58025
SWIDTH 800 0
DWIDTH 20 0
BBX 16 19 2 0
BITMAP
B5AD
FFFF
4A52
B5AD
4002
B00D
F00F
4002
B00D
4002
B00D
F00F
4002
B00D
4002
B5AD
FFFF
4A52
B5AD
ENDCHAR
STARTCHAR E2AA
ENCODING 58026
SWIDTH 800 0
DWIDTH 20 0
BBX 16 19 2 0
BITMAP
B5AD
FFFF
4A52
B5AD
4002
B00D
F00F
4002
B00D
4002
B00D
F00F
4002
B00D
4002
B00D
F00F
4002
B00D
ENDCHAR
STARTCHAR E2AB
ENCODING 58027
SWIDTH 680 0
DWIDTH 17 0
BBX 14 19 2 0
BITMAP
B5AC
FFFC
4A50
B5AC
4010
B02C
F03C
4010
B02C
4010
B02C
F03C
4010
B5AC
4A50
B5AC
F5AC
4000
B000
ENDCHAR
STARTCHAR E2AC
ENCODING 58028
SWIDTH 800 0
DWIDTH 20 0
BBX 16 19 2 0
BITMAP
B5AD
FFFF
4A52
B5AD
4002
B00D
F00F
4002
B00D
4000
B000
F000
4000
B00D
4002
B5AD
FFFF
4A52
B5AD
ENDCHAR
STARTCHAR E2AD
ENCODING 58029
SWIDTH 680 0
DWIDTH 17 0
BBX 14 19 2 0
BITMAP
B02C
F03C
4010
B02C
4010
B02C
F03C
4010
B5AC
4A50
B5AC
B5BC
0010
002C
0010
B5AC
FFFC
4A50
B5AC
ENDCHAR
STARTCHAR E2AE
ENCODING 58030
SWIDTH 880 0
DWIDTH 22 0
BBX 19 24 2 -3
BITMAP
01A000
004000
B5AD60
FFFFE0
4A5280
B5AD60
404080
B1A160
F1E1E0
404080
B1A160
404080
B1A160
F1E1E0
404080
B1A160
404080
B5AD60
FFFFE0
4A5280
B5AD60
004000
01A000
01A000
ENDCHAR
STARTCHAR E2AF
ENCODING 58031
SWIDTH 800 0
DWIDTH 20 0
BBX 16 19 2 0
BITMAP
B00D
F00F
4002
B00D
4002
B00D
F81F
4812
35AC
0A50
35AC
7DBE
4812
B00D
4002
B00D
F00F
4002
B00D
ENDCHAR
STARTCHAR E2B0
ENCODING 58032
SWIDTH 680 0
DWIDTH 17 0
BBX 14 19 2 0
BITMAP
B02C
F03C
4010
B02C
4010
B02C
F03C
4010
B5AC
4A50
B5AC
B5BC
0010
002C
0010
002C
003C
0010
002C
ENDCHAR
STARTCHAR E2B1
ENCODING 58033
SWIDTH 840 0
DWIDTH 21 0
BBX 19 22 2 -3
BITMAP
B00D00
F00F00
400200
B00D00
400200
B00D00
F00F00
400200
B00D00
400200
B00D00
F00F00
400200
B00D00
400200
B5AD00
FFFF80
4A5280
B5AD60
000080
000160
000160
ENDCHAR
STARTCHAR E2B2
ENCODING 58034
SWIDTH 1080 0
DWIDTH 27 0
BBX 24 19 2 0
BITMAP
B02C0B
F03C0F
401004
B02C0B
401004
B02C0B
F03C0F
401004
B02C0B
401004
B02C0B
F03C0F
401004
B02C0B
401004
B5AD6B
FFFFFF
4A5294
B5AD6B
ENDCHAR
STARTCHAR E2B3
ENCODING 58035
SWIDTH 1120 0
DWIDTH 28 0
BBX 26 22 2 -3
BITMAP
B02C0B00
F03C0F00
40100400
B02C0B00
40100400
B02C0B00
F03C0F00
40100400
B02C0B00
40100400
B02C0B00
F03C0F00
40100400
B02C0B00
40100400
B5AD6B00
FFFFFF80
4A529480
B5AD6B40
00000080
00000340
00000340
ENDCHAR
STARTCHAR E2B4
ENCODING 58036
SWIDTH 680 0
DWIDTH 17 0
BBX 14 19 2 0
BITMAP
B000
F000
4000
B000
4000
B000
F000
4000
B5AC
4A50
B5AC
F5BC
4010
B02C
4010
B5AC
FFFC
4A50
B5AC
ENDCHAR
STARTCHAR E2B5
ENCODING 58037
SWIDTH 800 0
DWIDTH 20 0
BBX 16 19 2 0
BITMAP
B400
FC00
4800
B400
0800
3400
3C00
0800
35AD
0A52
35AD
3DAF
0802
340D
0802
35AD
3FFF
0A52
35AD
ENDCHAR
STARTCHAR E2B6
ENCODING 58038
SWIDTH 920 0
DWIDTH 23 0
BBX 20 19 2 0
BITMAP
B00090
F000F0
400060
B00090
400060
B00090
F000F0
400060
B5AC90
4A5060
B5AC90
F5BCF0
401060
B02C90
401060
B5AC90
FFFCF0
4A5060
B5AC90
ENDCHAR
STARTCHAR E2B7
ENCODING 58039
SWIDTH 800 0
DWIDTH 20 0
BBX 16 19 2 0
BITMAP
B5AD
FFFF
4A52
B5AD
4002
B00D
B00F
0002
05AD
0252
05AD
05AF
0002
B00D
4002
B5AD
FFFF
4A52
B5AD
ENDCHAR
STARTCHAR E2B8
ENCODING 58040
SWIDTH 1080 0
DWIDTH 27 0
BBX 24 19 2 0
BITMAP
B1AD6B
F1FFFF
405294
B1AD6B
404004
B1A00B
F1E00F
404004
B5A00B
4A4004
B5A00B
F5E00F
404004
B1A00B
404004
B1AD6B
F1FFFF
405294
B1AD6B
ENDCHAR
STARTCHAR E2B9
ENCODING 58041
SWIDTH 680 0
DWIDTH 17 0
BBX 14 19 2 0
BITMAP
B5AC
FFFC
4A50
B5AC
4010
B02C
F03C
4010
B02C
4010
B02C
F03C
4010
B5AC
4A50
35AC
7DBC
4810
B02C
ENDCHAR
STARTCHAR E2BE
ENCODING 58046
SWIDTH 680 0
DWIDTH 17 0
BBX 14 19 2 0
BITMAP
01AC
03FC
0250
05AC
0A10
342C
7C3C
4810
B02C
4010
B5AC
FFFC
4A50
B5AC
4010
B02C
F03C
4010
B02C
ENDCHAR
STARTCHAR E2BF
ENCODING 58047
SWIDTH 680 0
DWIDTH 17 0
BBX 14 19 2 0
BITMAP
B5AC
FFFC
4A50
B5AC
4000
B000
F000
4000
B5AC
4A50
B5AC
F5BC
4010
B02C
4050
B5A0
FFE0
4A40
B580
ENDCHAR
STARTCHAR E2C0
ENCODING 58048
SWIDTH 680 0
DWIDTH 17 0
BBX 14 19 2 0
BITMAP
B5AC
FFFC
4A50
B5AC
4010
B02C
F07C
4050
B5AC
4A50
B5AC
F5BC
4010
B02C
4050
B5A0
FFE0
4A40
B580
ENDCHAR
STARTCHAR E2C1
ENCODING 58049
SWIDTH 680 0
DWIDTH 17 0
BBX 14 19 2 0
BITMAP
05AC
0FFC
0A50
35AC
4800
B000
F000
4000
B000
4000
B000
F000
4000
B000
4000
B000
F000
4000
B000
ENDCHAR
STARTCHAR E2C2
ENCODING 58050
SWIDTH 680 0
DWIDTH 17 0
BBX 14 19 2 0
BITMAP
B5AC
FFFC
4A50
B5AC
4000
B000
F000
4000
B5A0
4A40
B5A0
F5A0
4000
B000
4800
35AC
3FFC
0A50
05AC
ENDCHAR
STARTCHAR E2C5
ENCODING 58053
SWIDTH 800 0
DWIDTH 20 0
BBX 16 19 2 0
BITMAP
35AD
3FFF
0A52
35AD
0802
340D
3C0F
0802
340D
0802
340D
3C0F
0802
340D
0802
B40D
FC0F
4802
B00D
ENDCHAR
STARTCHAR E2C6
ENCODING 58054
SWIDTH 1080 0
DWIDTH 27 0
BBX 24 19 2 0
BITMAP
B42D00
FE3F80
4A1280
B5AD60
425090
B1AC68
F1FC7C
405014
B02C0B
401004
B02C0B
F03C0F
401004
B02C0B
401004
B02C0B
F03C0F
401004
B02C0B
ENDCHAR
STARTCHAR E2C7
ENCODING 58055
SWIDTH 800 0
DWIDTH 20 0
BBX 16 19 2 0
BITMAP
B5A0
FFF0
4A50
B5AC
4012
B00D
F00F
4002
B00D
4002
B00D
F00F
4002
B00D
4802
35AD
3FFF
0A52
05AD
ENDCHAR
STARTCHAR E2C8
ENCODING 58056
SWIDTH 680 0
DWIDTH 17 0
BBX 14 19 2 0
BITMAP
B5AC
FFFC
4A50
B5AC
4010
B02C
F03C
4010
B02C
4010
B02C
F07C
4050
B5A0
4A40
B580
F580
4000
B000
ENDCHAR
STARTCHAR E2C9
ENCODING 58057
SWIDTH 680 0
DWIDTH 17 0
BBX 14 19 2 0
BITMAP
01AC
03FC
0250
05AC
0A00
3400
7C00
4800
B000
4000
B000
F000
4000
B000
4000
B5AC
FFFC
4A50
B5AC
ENDCHAR
STARTCHAR E2CA
ENCODING 58058
SWIDTH 880 0
DWIDTH 22 0
BBX 19 24 2 -3
BITMAP
01A000
004000
B5AC00
FFFE00
4A5200
B5AD00
404280
B1A160
F1E1E0
404080
B1A160
404080
B1A160
F1E1E0
404080
B1A160
484080
35AD60
3FFFE0
0A5280
05AD60
004000
01A000
01A000
ENDCHAR
STARTCHAR E2CB
ENCODING 58059
SWIDTH 680 0
DWIDTH 17 0
BBX 14 19 2 0
BITMAP
B000
F000
4000
B000
4000
B000
F000
4000
B5AC
4A50
B5AC
F5BC
4010
B02C
4050
B5A0
FFE0
4A40
B580
ENDCHAR
STARTCHAR E2CC
ENCODING 58060
SWIDTH 800 0
DWIDTH 20 0
BBX 16 19 2 0
BITMAP
B400
FC00
4800
B400
0800
3400
3C00
0800
35AD
0A52
35AD
3DAF
0802
340D
0812
35AC
3FFC
0A50
35A0
ENDCHAR
STARTCHAR E2CD
ENCODING 58061
SWIDTH 920 0
DWIDTH 23 0
BBX 20 19 2 0
BITMAP
B00090
F000F0
400060
B00090
400060
B00090
F000F0
400060
B5AC90
4A5060
B5AC90
F5BCF0
401060
B02C90
405060
B5A090
FFE0F0
4A4060
B58090
ENDCHAR
STARTCHAR E2CF
ENCODING 58063
SWIDTH 1080 0
DWIDTH 27 0
BBX 24 19 2 0
BITMAP
B1AD60
F1FFF0
405290
B1AD68
404014
B1A00B
F1E00F
404004
B5A00B
4A4004
B5A00B
F5E00F
404004
B1A00B
405004
B02D6B
F03FFF
401294
B00D6B
ENDCHAR
STARTCHAR E2D0
ENCODING 58064
SWIDTH 680 0
DWIDTH 17 0
BBX 14 19 2 0
BITMAP
B5AC
FFFC
4A50
B5AC
4010
B02C
F03C
4010
B02C
4010
B02C
F83C
4810
35AC
0A50
35AC
7DBC
4810
B02C
ENDCHAR
STARTCHAR E2D1
ENCODING 58065
SWIDTH 680 0
DWIDTH 17 0
BBX 14 19 2 0
BITMAP
B5AC
FFFC
4A50
B5AC
0010
002C
003C
0010
B5AC
4A50
B5AC
F5BC
4010
B02C
4010
B5AC
FFFC
4A50
B5AC
ENDCHAR
STARTCHAR E2D2
ENCODING 58066
SWIDTH 680 0
DWIDTH 17 0
BBX 14 19 2 0
BITMAP
B5AC
FFFC
4A50
B5AC
4000
B000
F000
4000
B5A0
4A50
B5AC
F5BC
4010
B02C
4010
B5AC
FFFC
4A50
B5A0
ENDCHAR
STARTCHAR E2D3
ENCODING 58067
SWIDTH 680 0
DWIDTH 17 0
BBX 14 19 2 0
BITMAP
B5AC
FFFC
4A50
B5AC
4010
B02C
F07C
4050
B5A0
4A40
B5A0
F5F0
4050
B02C
4010
B5AC
FFFC
4A50
B5AC
ENDCHAR
STARTCHAR E2D4
ENCODING 58068
SWIDTH 600 0
DWIDTH 15 0
BBX 11 19 2 0
BITMAP
B5A0
FFE0
4A40
B5A0
4000
B000
F000
4000
B000
4000
B000
F000
4000
B000
4000
B000
F000
4000
B000
ENDCHAR
STARTCHAR E2D6
ENCODING 58070
SWIDTH 680 0
DWIDTH 17 0
BBX 14 19 2 0
BITMAP
B5AC
FFFC
4A50
B5AC
4010
B02C
F03C
4010
B5AC
4A50
B5AC
F5AC
4000
B000
4000
B5AC
FFFC
4A50
B5AC
ENDCHAR
STARTCHAR E2D8
ENCODING 58072
SWIDTH 1080 0
DWIDTH 27 0
BBX 24 19 2 0
BITMAP
B02C0B
F03C0F
401004
B02C0B
481014
342C68
3E3CF8
0A1090
B5AD6B
4A5294
B5AD6B
F5BD6F
401004
B02C0B
401004
B02C0B
F03C0F
401004
B02C0B
ENDCHAR
STARTCHAR E2D9
ENCODING 58073
SWIDTH 680 0
DWIDTH 17 0
BBX 14 19 2 0
BITMAP
B5AC
FFFC
4A50
B5AC
4010
B02C
B07C
0050
05A0
0240
05A0
05F0
0050
B02C
4010
B5AC
FFFC
4A50
B5AC
ENDCHAR
STARTCHAR E2DA
ENCODING 58074
SWIDTH 680 0
DWIDTH 17 0
BBX 14 19 2 0
BITMAP
B02C
F03C
4010
B02C
4050
B1A0
F3E0
4240
B5AC
4A50
B5AC
F5BC
4010
B02C
4010
B02C
F03C
4010
B02C
ENDCHAR
STARTCHAR E2DC
ENCODING 58076
SWIDTH 880 0
DWIDTH 22 0
BBX 19 19 2 0
BITMAP
B5AD60
FFFFE0
4A5280
B5AD60
404080
B1A160
F1E1E0
404080
B1A160
404080
B1A160
F1E1E0
404080
B1A160
404080
B1A160
F1E1E0
404080
B1A160
ENDCHAR
STARTCHAR E2DD
ENCODING 58077
SWIDTH 680 0
DWIDTH 17 0
BBX 14 19 2 0
BITMAP
B5AC
FFFC
4A50
B5AC
4010
B02C
F03C
4010
B02C
4010
B02C
F03C
4010
B02C
4010
B5AC
FFFC
4A50
B5AC
ENDCHAR
STARTCHAR E2DE
ENCODING 58078
SWIDTH 680 0
DWIDTH 17 0
BBX 14 19 2 0
BITMAP
B5AC
FFFC
4A50
B5AC
4010
B02C
F03C
4010
B02C
4010
B02C
F03C
4010
B02C
4010
B02C
F03C
4010
B02C
ENDCHAR
STARTCHAR E2DF
ENCODING 58079
SWIDTH 680 0
DWIDTH 17 0
BBX 14 19 2 0
BITMAP
B5AC
FFFC
4A50
B5AC
4010
B02C
F03C
4010
B02C
4010
B5AC
FFFC
4A50
B5AC
4000
B000
F000
4000
B000
ENDCHAR
STARTCHAR E2E0
ENCODING 58080
SWIDTH 680 0
DWIDTH 17 0
BBX 14 19 2 0
BITMAP
B5AC
FFFC
4A50
B5AC
4010
B02C
F03C
4010
B02C
4000
B000
F000
4000
B02C
4010
B5AC
FFFC
4A50
B5AC
ENDCHAR
STARTCHAR E2E1
ENCODING 58081
SWIDTH 680 0
DWIDTH 17 0
BBX 14 19 2 0
BITMAP
B02C
F03C
4010
B02C
4010
B02C
F03C
4010
B5AC
4A50
B5AC
B5BC
0010
002C
0010
B5AC
FFFC
4A50
B5AC
ENDCHAR
STARTCHAR E2E2
ENCODING 58082
SWIDTH 880 0
DWIDTH 22 0
BBX 19 24 2 -3
BITMAP
01A000
004000
B5AD60
FFFFE0
4A5280
B5AD60
404080
B1A160
F1E1E0
404080
B1A160
404080
B1A160
F1E1E0
404080
B1A160
404080
B5AD60
FFFFE0
4A5280
B5AD60
004000
01A000
01A000
ENDCHAR
STARTCHAR E2E3
ENCODING 58083
SWIDTH 680 0
DWIDTH 17 0
BBX 14 19 2 0
BITMAP
B02C
F03C
4010
B02C
4010
B02C
F03C
4010
B5AC
4A50
B5AC
B5BC
0010
002C
0010
002C
003C
0010
002C
ENDCHAR
STARTCHAR E2E4
ENCODING 58084
SWIDTH 720 0
DWIDTH 18 0
BBX 16 22 2 -3
BITMAP
B02C
F03C
4010
B02C
4010
B02C
F03C
4010
B02C
4010
B02C
F03C
4010
B02C
4010
B5AC
FFFE
4A52
B5AD
0002
000D
000D
ENDCHAR
STARTCHAR E2E5
ENCODING 58085
SWIDTH 880 0
DWIDTH 22 0
BBX 19 19 2 0
BITMAP
B1A160
F1E1E0
404080
B1A160
404080
B1A160
F1E1E0
404080
B1A160
404080
B1A160
F1E1E0
404080
B1A160
404080
B5AD60
FFFFE0
4A5280
B5AD60
ENDCHAR
STARTCHAR E2E6
ENCODING 58086
SWIDTH 920 0
DWIDTH 23 0
BBX 21 22 2 -3
BITMAP
B1A160
F1E1E0
404080
B1A160
404080
B1A160
F1E1E0
404080
B1A160
404080
B1A160
F1E1E0
404080
B1A160
404080
B5AD60
FFFFF0
4A5290
B5AD68
000010
000068
000068
ENDCHAR
STARTCHAR E2E7
ENCODING 58087
SWIDTH 680 0
DWIDTH 17 0
BBX 14 19 2 0
BITMAP
B000
F000
4000
B000
4000
B000
F000
4000
B5AC
4A50
B5AC
F5BC
4010
B02C
4010
B5AC
FFFC
4A50
B5AC
ENDCHAR
STARTCHAR E2E8
ENCODING 58088
SWIDTH 800 0
DWIDTH 20 0
BBX 16 19 2 0
BITMAP
B400
FC00
4800
B400
0800
3400
3C00
0800
35AD
0A52
35AD
3DAF
0802
340D
0802
35AD
3FFF
0A52
35AD
ENDCHAR
STARTCHAR E2E9
ENCODING 58089
SWIDTH 920 0
DWIDTH 23 0
BBX 20 19 2 0
BITMAP
B00090
F000F0
400060
B00090
400060
B00090
F000F0
400060
B5AC90
4A5060
B5AC90
F5BCF0
401060
B02C90
401060
B5AC90
FFFCF0
4A5060
B5AC90
ENDCHAR
STARTCHAR E2EA
ENCODING 58090
SWIDTH 800 0
DWIDTH 20 0
BBX 16 19 2 0
BITMAP
B5AD
FFFF
4A52
B5AD
4002
B00D
B00F
0002
05AD
0252
05AD
05AF
0002
B00D
4002
B5AD
FFFF
4A52
B5AD
ENDCHAR
STARTCHAR E2EB
ENCODING 58091
SWIDTH 1000 0
DWIDTH 25 0
BBX 21 19 2 0
BITMAP
B1AD68
F1FFF8
405290
B1AD68
404010
B1A068
F1E078
404010
B5A068
4A4010
B5A068
F5E078
404010
B1A068
404010
B1AD68
F1FFF8
405290
B1AD68
ENDCHAR
STARTCHAR E2EC
ENCODING 58092
SWIDTH 680 0
DWIDTH 17 0
BBX 14 19 2 0
BITMAP
B5AC
FFFC
4A50
B5AC
4010
B02C
F03C
4010
B02C
4010
B5AC
FFFC
4A50
35AC
4810
B02C
F03C
4010
B02C
ENDCHAR
STARTCHAR E2F1
ENCODING 58097
SWIDTH 680 0
DWIDTH 17 0
BBX 14 19 2 0
BITMAP
B400
FE00
4A00
B580
4240
B1A0
F1F0
4050
B02C
4010
B5AC
FFFC
4A50
B5AC
4010
B02C
F03C
4010
B02C
ENDCHAR
STARTCHAR E2F2
ENCODING 58098
SWIDTH 680 0
DWIDTH 17 0
BBX 14 19 2 0
BITMAP
B5AC
FFFC
4A50
B5AC
4000
B000
F000
4000
B580
4A40
B5A0
F5F0
4050
B02C
4010
B5AC
FFFC
4A50
B5AC
ENDCHAR
STARTCHAR E2F3
ENCODING 58099
SWIDTH 680 0
DWIDTH 17 0
BBX 14 19 2 0
BITMAP
B5AC
FFFC
4A50
B5AC
4010
B02C
F07C
4050
B5AC
4A50
B5AC
F5BC
4010
B02C
4050
B5A0
FFE0
4A40
B580
ENDCHAR
STARTCHAR E2F4
ENCODING 58100
SWIDTH 600 0
DWIDTH 15 0
BBX 11 19 2 0
BITMAP
05A0
0FE0
0A40
35A0
4800
B000
F000
4000
B000
4000
B000
F000
4000
B000
4000
B000
F000
4000
B000
ENDCHAR
STARTCHAR E2F5
ENCODING 58101
SWIDTH 680 0
DWIDTH 17 0
BBX 14 19 2 0
BITMAP
05AC
0FFC
0A50
35AC
4800
B000
F000
4000
B5A0
4A40
B5A0
F5A0
4000
B000
4000
B5AC
FFFC
4A50
B5AC
ENDCHAR
STARTCHAR E2F8
ENCODING 58104
SWIDTH 800 0
DWIDTH 20 0
BBX 16 19 2 0
BITMAP
35AD
3FFF
0A52
35AD
0802
340D
3C0F
0802
340D
0802
340D
3C0F
0802
340D
0802
B40D
FC0F
4802
B00D
ENDCHAR
STARTCHAR E2F9
ENCODING 58105
SWIDTH 1080 0
DWIDTH 27 0
BBX 24 19 2 0
BITMAP
01AC6B
03FCFF
025094
05AD6B
0A1284
342D0B
7C3F0F
481204
B02C0B
401004
B02C0B
F03C0F
401004
B02C0B
401004
B02C0B
F03C0F
401004
B02C0B
ENDCHAR
STARTCHAR E2FA
ENCODING 58106
SWIDTH 800 0
DWIDTH 20 0
BBX 16 19 2 0
BITMAP
05AD
0FFF
0A52
35AD
4802
B00D
F00F
4002
B00D
4002
B00D
F00F
4002
B00D
4012
B5AC
FFFC
4A50
B5A0
ENDCHAR
STARTCHAR E2FB
ENCODING 58107
SWIDTH 680 0
DWIDTH 17 0
BBX 14 19 2 0
BITMAP
B5AC
FFFC
4A50
B5AC
4010
B02C
F03C
4010
B02C
4050
B5A0
FFE0
4A40
B580
4000
B000
F000
4000
B000
ENDCHAR
STARTCHAR E2FC
ENCODING 58108
SWIDTH 680 0
DWIDTH 17 0
BBX 14 19 2 0
BITMAP
B5AC
FFFC
4A50
B5AC
4000
B000
F000
4000
B000
4000
B000
F800
4800
3400
0A00
05AC
07FC
0250
01AC
ENDCHAR
STARTCHAR E2FD
ENCODING 58109
SWIDTH 880 0
DWIDTH 22 0
BBX 19 24 2 -3
BITMAP
01A000
004000
05AD60
0FFFE0
0A5280
35AD60
484080
B1A160
F1E1E0
404080
B1A160
404080
B1A160
F1E1E0
404080
B1A160
404280
B5AD00
FFFF00
4A5200
B5AC00
004000
01A000
01A000
ENDCHAR
STARTCHAR E2FE
ENCODING 58110
SWIDTH 680 0
DWIDTH 17 0
BBX 14 19 2 0
BITMAP
B000
F000
4000
B000
4000
B000
F000
4000
B580
4A40
B5A0
F5F0
4050
B02C
4010
B5AC
FFFC
4A50
B5AC
ENDCHAR
STARTCHAR E2FF
ENCODING 58111
SWIDTH 800 0
DWIDTH 20 0
BBX 16 19 2 0
BITMAP
B400
FC00
4800
B400
0800
3400
3C00
0800
35A0
0A50
35AC
3DBE
0812
340D
0802
35AD
3FFF
0A52
35AD
ENDCHAR
STARTCHAR E300
ENCODING 58112
SWIDTH 920 0
DWIDTH 23 0
BBX 20 19 2 0
BITMAP
B00090
F000F0
400060
B00090
400060
B00090
F000F0
400060
B58090
4A4060
B5A090
F5F0F0
405060
B02C90
401060
B5AC90
FFFCF0
4A5060
B5AC90
ENDCHAR
STARTCHAR E302
ENCODING 58114
SWIDTH 1080 0
DWIDTH 27 0
BBX 24 19 2 0
BITMAP
B00D6B
F01FFF
401294
B02D6B
405004
B1A00B
F1E00F
404004
B5A00B
4A4004
B5A00B
F5E00F
404004
B1A00B
404014
B1AD68
F1FFF8
405290
B1AD60
ENDCHAR
STARTCHAR E303
ENCODING 58115
SWIDTH 680 0
DWIDTH 17 0
BBX 14 19 2 0
BITMAP
B5AC
FFFC
4A50
B5AC
4010
B02C
F03C
4010
B02C
4810
35AC
3FFC
0A50
35AC
4810
B02C
F03C
4010
B02C
ENDCHAR
STARTCHAR E304
ENCODING 58116
SWIDTH 680 0
DWIDTH 17 0
BBX 14 19 2 0
BITMAP
35AC
7FFC
4A50
B5AC
4010
B02C
F03C
4010
B02C
4010
B02C
F03C
4010
B02C
4010
B5AC
FFFC
4A50
B5A0
ENDCHAR
STARTCHAR E305
ENCODING 58117
SWIDTH 680 0
DWIDTH 17 0
BBX 14 19 2 0
BITMAP
B5AC
FFFC
4A50
B5AC
4010
B02C
B03C
0010
35AC
4A50
B5A0
F5A0
4000
B000
4000
B5AC
FFFC
4A50
B5AC
ENDCHAR
STARTCHAR E306
ENCODING 58118
SWIDTH 680 0
DWIDTH 17 0
BBX 14 19 2 0
BITMAP
B5AC
FFFC
4A50
B5AC
4010
B02C
B03C
0010
05AC
0250
05AC
05BC
0010
B02C
4010
B5AC
FFFC
4A50
B5AC
ENDCHAR
STARTCHAR E307
ENCODING 58119
SWIDTH 680 0
DWIDTH 17 0
BBX 14 19 2 0
BITMAP
B02C
F03C
4010
B02C
4010
B02C
F03C
4010
B02C
4010
B5AC
FFFC
4A50
B5AC
0010
002C
003C
0010
002C
ENDCHAR
STARTCHAR E308
ENCODING 58120
SWIDTH 680 0
DWIDTH 17 0
BBX 14 19 2 0
BITMAP
B5AC
FFFC
4A50
B5AC
4000
B000
F000
4000
B5AC
4A50
B5AC
F5BC
4010
B02C
4010
B5AC
FFFC
4A50
B5AC
ENDCHAR
STARTCHAR E309
ENCODING 58121
SWIDTH 680 0
DWIDTH 17 0
BBX 14 19 2 0
BITMAP
B5AC
FFFC
4A50
B5AC
0010
002C
003C
0010
35AC
0A50
35AC
35BC
0010
002C
0010
002C
003C
0010
002C
ENDCHAR
STARTCHAR E30A
ENCODING 58122
SWIDTH 680 0
DWIDTH 17 0
BBX 14 19 2 0
BITMAP
B5AC
FFFC
4A50
B5AC
4010
B02C
F03C
4010
B5AC
4A50
B5AC
F5BC
4010
B02C
4010
B5AC
FFFC
4A50
B5AC
ENDCHAR
STARTCHAR E30B
ENCODING 58123
SWIDTH 680 0
DWIDTH 17 0
BBX 14 19 2 0
BITMAP
B5AC
FFFC
4A50
B5AC
4010
B02C
F03C
4010
B5AC
4A50
B5AC
B5BC
0010
002C
0010
B5AC
FFFC
4A50
B5AC
ENDCHAR
STARTCHAR E30C
ENCODING 58124
SWIDTH 680 0
DWIDTH 17 0
BBX 14 19 2 0
BITMAP
35A0
7FF0
4A50
B5AC
4010
B02C
B03C
0010
35AC
4A50
B5A0
F5A0
4000
B000
4000
B5AC
FFFC
4A50
B5AC
ENDCHAR
STARTCHAR E30D
ENCODING 58125
SWIDTH 680 0
DWIDTH 17 0
BBX 14 19 2 0
BITMAP
35A0
7FF0
4A50
B5AC
4010
B02C
B03C
0010
05AC
0250
05AC
05BC
0010
B02C
4010
B5AC
FFFC
4A50
35A0
ENDCHAR
STARTCHAR E30E
ENCODING 58126
SWIDTH 680 0
DWIDTH 17 0
BBX 14 19 2 0
BITMAP
05A0
0FE0
0A40
35A0
4840
B1A0
F1E0
4040
B1A0
4040
B5AC
FFFC
4A50
B5AC
0040
01A0
01E0
0040
01A0
ENDCHAR
STARTCHAR E30F
ENCODING 58127
SWIDTH 680 0
DWIDTH 17 0
BBX 14 19 2 0
BITMAP
B000
F000
4000
B000
4000
B5A0
FFF0
4A50
B5AC
4010
B02C
F03C
4010
B02C
4010
B5AC
FFFC
4A50
35A0
ENDCHAR
STARTCHAR E310
ENCODING 58128
SWIDTH 680 0
DWIDTH 17 0
BBX 14 19 2 0
BITMAP
B5AC
FFFC
4A50
B5AC
0010
002C
003C
0010
05AC
0A50
35A0
3DA0
0800
3400
0800
3400
3C00
0800
3400
ENDCHAR
STARTCHAR E311
ENCODING 58129
SWIDTH 680 0
DWIDTH 17 0
BBX 14 19 2 0
BITMAP
35A0
7FF0
4A50
B5AC
4010
B02C
F03C
4010
B5AC
4A50
B5AC
F5BC
4010
B02C
4010
B5AC
FFFC
4A50
35A0
ENDCHAR
STARTCHAR E312
ENCODING 58130
SWIDTH 680 0
DWIDTH 17 0
BBX 14 19 2 0
BITMAP
35A0
7FF0
4A50
B5AC
4010
B02C
F03C
4010
B02C
4010
B5AC
FFFC
4A50
35AC
0010
002C
003C
0010
002C
ENDCHAR
STARTCHAR E313
ENCODING 58131
SWIDTH 680 0
DWIDTH 17 0
BBX 14 19 2 0
BITMAP
B5A0
FFF0
4A50
B5AC
4010
B02C
F03C
4010
B02C
4010
B02C
F03C
4010
B02C
4010
B5AC
FFFC
4A50
35AC
ENDCHAR
STARTCHAR E314
ENCODING 58132
SWIDTH 680 0
DWIDTH 17 0
BBX 14 19 2 0
BITMAP
B5AC
FFFC
4A50
B5AC
4010
B02C
B07C
0050
01A0
0240
0580
0F80
0A00
3400
4800
B5AC
FFFC
4A50
B5AC
ENDCHAR
STARTCHAR E315
ENCODING 58133
SWIDTH 680 0
DWIDTH 17 0
BBX 14 19 2 0
BITMAP
B5AC
FFFC
4A50
B5AC
4010
B02C
B07C
0050
05A0
0250
05AC
05BC
0010
B02C
4010
B5AC
FFFC
4A50
B5AC
ENDCHAR
STARTCHAR E316
ENCODING 58134
SWIDTH 680 0
DWIDTH 17 0
BBX 14 19 2 0
BITMAP
05AC
0FFC
0A50
35AC
4800
B000
F000
4000
B5AC
4A50
B5AC
F5BC
4010
B02C
4010
B5AC
FFFC
4A50
B5AC
ENDCHAR
STARTCHAR E317
ENCODING 58135
SWIDTH 680 0
DWIDTH 17 0
BBX 14 19 2 0
BITMAP
B5AC
FFFC
4A50
B5AC
4010
B02C
F87C
4850
35A0
0A40
35A0
7DF0
4850
B02C
4010
B5AC
FFFC
4A50
B5AC
ENDCHAR
STARTCHAR E318
ENCODING 58136
SWIDTH 680 0
DWIDTH 17 0
BBX 14 19 2 0
BITMAP
B5AC
FFFC
4A50
B5AC
4010
B02C
F03C
4010
B5AC
4A50
B5AC
B5BC
0010
002C
0050
B5A0
FFE0
4A40
B580
ENDCHAR
STARTCHAR E338
ENCODING 58168
SWIDTH 680 0
DWIDTH 17 0
BBX 14 19 2 0
BITMAP
B5AC
FFFC
4A50
B5AC
4010
B02C
B03C
0010
05AC
0250
05AC
07AC
0200
0580
0000
0580
0780
0200
0580
ENDCHAR
STARTCHAR E339
ENCODING 58169
SWIDTH 680 0
DWIDTH 17 0
BBX 14 19 2 0
BITMAP
0580
0780
0200
0580
0000
0580
0780
0200
B580
4A00
B580
F580
4000
B02C
4010
B5AC
FFFC
4A50
B5AC
ENDCHAR
STARTCHAR E33C
ENCODING 58172
SWIDTH 0 0
DWIDTH 0 0
BBX 11 6 -12 20
BITMAP
90A0
6040
94A0
FFE0
6B40
1480
ENDCHAR
STARTCHAR E33D
ENCODING 58173
SWIDTH 0 0
DWIDTH 0 0
BBX 11 14 -12 20
BITMAP
00A0
03E0
0340
0480
0B00
1400
1400
0000
90A0
6040
94A0
FFE0
6B40
1480
ENDCHAR
STARTCHAR E33E
ENCODING 58174
SWIDTH 0 0
DWIDTH 0 0
BBX 12 14 -13 20
BITMAP
A000
F800
5800
2400
1A00
0500
0500
0000
4850
3020
4A50
7FF0
35A0
0A40
ENDCHAR
STARTCHAR E33F
ENCODING 58175
SWIDTH 0 0
DWIDTH 0 0
BBX 11 16 -12 20
BITMAP
6B00
1480
6B40
6BC0
0080
0B40
0480
0B00
0B00
0000
90A0
6040
94A0
FFE0
6B40
1480
ENDCHAR
STARTCHAR E340
ENCODING 58176
SWIDTH 0 0
DWIDTH 0 0
BBX 14 14 -13 20
BITMAP
342C
7E3C
4A10
B5AC
4250
B1A0
B1A0
0000
4850
3020
4A50
7FF0
35A0
0A40
ENDCHAR
STARTCHAR E341
ENCODING 58177
SWIDTH 0 0
DWIDTH 0 0
BBX 10 14 -9 20
BITMAP
02C0
07C0
0500
1A00
2400
5800
5800
0000
2400
5A00
A500
E700
4200
A500
ENDCHAR
STARTCHAR E342
ENCODING 58178
SWIDTH 0 0
DWIDTH 0 0
BBX 11 14 -12 20
BITMAP
9000
F800
6800
1400
0B00
0480
0480
0000
0480
0B40
14A0
1CE0
0840
14A0
ENDCHAR
STARTCHAR E343
ENCODING 58179
SWIDTH 0 0
DWIDTH 0 0
BBX 8 16 -9 20
BITMAP
A4
5A
A5
A7
02
25
1A
24
24
00
24
5A
A5
E7
42
A5
ENDCHAR
STARTCHAR E344
ENCODING 58180
SWIDTH 0 0
DWIDTH 0 0
BBX 14 14 -12 20
BITMAP
1424
7F3C
6B18
94A4
6358
90A0
90A0
0000
0480
0B40
14A0
1CE0
0840
14A0
ENDCHAR
ENDFONT
